<?xml version="1.0" encoding="UTF-8"?>
<svg width="58px" height="20px" viewBox="0 0 58 20" version="1.1" xmlns="http://www.w3.org/2000/svg" xmlns:xlink="http://www.w3.org/1999/xlink">
    <!-- Generator: sketchtool 48.2 (47327) - http://www.bohemiancoding.com/sketch -->
    <title>AA900722-1D35-46ED-A32B-F353A118124A</title>
    <desc>Created with sketchtool.</desc>
    <defs></defs>
    <g id="01-Главная" stroke="none" stroke-width="1" fill="none" fill-rule="evenodd" transform="translate(-429.000000, -4786.000000)" opacity="0.5">
        <g id="Footer" transform="translate(0.000000, 4494.000000)" fill="#7F7873">
            <g id="Group-5" transform="translate(40.000000, 40.000000)">
                <g id="Group-11" transform="translate(0.000000, 249.000000)">
                    <g id="Payments" transform="translate(330.000000, 0.000000)">
                        <path d="M116.538128,20.1107935 C116.538128,21.6196067 115.636941,22.3222928 114.021299,22.3222928 L110.936154,22.3222928 L110.936154,20.8122906 L114.021299,20.8122906 C114.306617,20.8122906 114.543222,20.7635425 114.639488,20.6624793 C114.734594,20.5614162 114.82854,20.410416 114.82854,20.2094787 C114.82854,20.0073524 114.734594,19.8076041 114.639488,19.7077299 C114.543222,19.6066668 114.35417,19.5567297 114.068852,19.5567297 C112.597029,19.5056037 110.745942,19.6066668 110.745942,17.3939786 C110.745942,16.3881031 111.364131,15.2823535 113.025006,15.2823535 L116.205257,15.2823535 L116.205257,16.7911667 L113.261611,16.7911667 C112.977453,16.7911667 112.786082,16.7911667 112.644582,16.8922298 C112.503083,17.042041 112.407977,17.1930413 112.407977,17.4462936 C112.407977,17.697168 112.550636,17.8481682 112.738529,17.9480424 C112.928741,17.9991684 113.118952,18.0491055 113.356717,18.0491055 L114.210352,18.0491055 C115.111539,18.0491055 115.682174,18.2500428 116.061439,18.6031693 C116.347916,18.9551068 116.538128,19.4081075 116.538128,20.1107935 L116.538128,20.1107935 L116.538128,20.1107935 L116.538128,20.1107935 Z M109.844755,18.6031693 C109.465491,18.2500428 108.894855,18.0491055 107.992508,18.0491055 L107.138874,18.0491055 C106.901109,18.0491055 106.710897,17.9991684 106.523005,17.9480424 C106.332793,17.8481682 106.190134,17.697168 106.190134,17.4462936 C106.190134,17.1930413 106.237687,17.042041 106.427899,16.8922298 C106.569398,16.7911667 106.75845,16.7911667 107.043768,16.7911667 L109.986254,16.7911667 L109.986254,15.2823535 L106.806003,15.2823535 C105.097575,15.2823535 104.52694,16.3892921 104.52694,17.3939786 C104.52694,19.6066668 106.380346,19.5056037 107.84985,19.5567297 C108.135167,19.5567297 108.325379,19.6066668 108.420485,19.7077299 C108.514432,19.8076041 108.610697,20.0073524 108.610697,20.2094787 C108.610697,20.410416 108.514432,20.5614162 108.420485,20.6624793 C108.277826,20.7635425 108.087614,20.8122906 107.803456,20.8122906 L104.718311,20.8122906 L104.718311,22.3222928 L107.803456,22.3222928 C109.416778,22.3222928 110.319125,21.6184177 110.319125,20.1107935 C110.319125,19.4081075 110.128913,18.9551068 109.844755,18.6031693 L109.844755,18.6031693 L109.844755,18.6031693 L109.844755,18.6031693 Z M103.768411,20.8646056 L100.019844,20.8646056 L100.019844,19.4568556 L103.673305,19.4568556 L103.673305,18.0479165 L100.019844,18.0479165 L100.019844,16.7400406 L103.768411,16.7400406 L103.768411,15.2811645 L98.4540752,15.2811645 L98.4540752,22.3211038 L103.768411,22.3211038 L103.768411,20.8646056 L103.768411,20.8646056 L103.768411,20.8646056 Z M96.7433275,15.6366689 C96.2225643,15.3334795 95.6055352,15.2835424 94.7971345,15.2835424 L91.1436733,15.2835424 L91.1436733,22.3234817 L92.7569953,22.3234817 L92.7569953,19.758856 L94.467743,19.758856 C95.0360592,19.758856 95.3689301,19.8099821 95.6055352,20.0608564 C95.8896933,20.4127939 95.8896933,21.0167948 95.8896933,21.4697955 L95.8896933,22.3246707 L97.4554624,22.3246707 L97.4554624,20.9656688 C97.4554624,20.3129198 97.4090693,20.0097304 97.2200172,19.6589818 C97.0773582,19.4580445 96.7920403,19.2059812 96.413936,19.054981 C96.8395933,18.9039807 97.5517282,18.3011688 97.5517282,17.1942302 C97.5517282,16.3892921 97.2664103,15.9374804 96.7433275,15.6366689 L96.7433275,15.6366689 L96.7433275,15.6366689 L96.7433275,15.6366689 Z M87.7268172,15.2835424 L82.6479262,15.2835424 L80.6066272,17.5972938 L78.6604342,15.2835424 L72.2523792,15.2835424 L72.2523792,22.3234817 L78.5653282,22.3234817 L80.6066272,20.0097304 L82.5528202,22.3234817 L85.6379652,22.3234817 L85.6379652,19.9609823 L87.6317112,19.9609823 C89.0084281,19.9609823 90.3839853,19.5591077 90.3839853,17.5984828 C90.3839853,15.686606 88.9597153,15.2835424 87.7268172,15.2835424 L87.7268172,15.2835424 L87.7268172,15.2835424 L87.7268172,15.2835424 Z M95.4628763,18.2001057 C95.2262712,18.3011688 94.9885062,18.3011688 94.7031883,18.3011688 L92.7569953,18.3511059 L92.7569953,16.7412296 L94.7031883,16.7412296 C94.9885062,16.7412296 95.2715045,16.7412296 95.4628763,16.8922298 C95.6519284,16.9932929 95.7945874,17.1930413 95.7945874,17.4950417 C95.7945874,17.7970421 95.6519284,18.0491055 95.4628763,18.2001057 L95.4628763,18.2001057 L95.4628763,18.2001057 L95.4628763,18.2001057 Z M87.7268172,18.5520432 L85.6379652,18.5520432 L85.6379652,16.7424186 L87.7268172,16.7424186 C88.2962932,16.7424186 88.6743974,16.9944819 88.6743974,17.5984828 C88.6743974,18.2001057 88.2962932,18.5520432 87.7268172,18.5520432 L87.7268172,18.5520432 L87.7268172,18.5520432 L87.7268172,18.5520432 Z M81.6040801,18.8029176 L84.0721961,16.0385435 L84.0721961,21.7194809 L81.6040801,18.8029176 L81.6040801,18.8029176 L81.6040801,18.8029176 Z M77.7580873,20.8646056 L73.8193081,20.8646056 L73.8193081,19.4568556 L77.3312702,19.4568556 L77.3312702,18.0479165 L73.8193081,18.0479165 L73.8193081,16.7400406 L77.8068001,16.7400406 L79.5627811,18.8005396 L77.7580873,20.8646056 L77.7580873,20.8646056 L77.7580873,20.8646056 Z M112.122659,10.205417 L109.844755,10.205417 L106.853556,4.92635425 L106.853556,10.205417 L103.625752,10.205417 L103.009883,8.64547773 L99.6869733,8.64547773 L99.0711042,10.205417 L97.2200172,10.205417 C96.4603292,10.205417 95.4628763,10.0032907 94.8934003,9.39928984 C94.3726371,8.79647795 94.0873191,7.99153978 94.0873191,6.73597891 C94.0873191,5.67897738 94.2299781,4.72541695 94.9409533,3.97041586 C95.4153233,3.41754104 96.2701172,3.16666667 97.3615163,3.16666667 L98.8808922,3.16666667 L98.8808922,4.67429089 L97.3615163,4.67429089 C96.7920403,4.67429089 96.4603292,4.77535403 96.1286181,5.07735447 C95.8433002,5.3793549 95.7006412,5.93222972 95.7006412,6.68604183 C95.7006412,7.44104292 95.8433002,7.99391774 96.1286181,8.34585525 C96.366383,8.59672963 96.7920403,8.69779277 97.2200172,8.69779277 L97.9309923,8.69779277 L100.210056,3.16785564 L102.583066,3.16785564 L105.241394,9.80473138 L105.241394,3.16785564 L107.70951,3.16785564 L110.510497,8.04504379 L110.510497,3.16785564 L112.123819,3.16785564 L112.123819,10.205417 L112.122659,10.205417 L112.122659,10.205417 Z M93.2800782,3.16666667 L91.6644365,3.16666667 L91.6644365,10.205417 L93.2800782,10.205417 L93.2800782,3.16666667 L93.2800782,3.16666667 L93.2800782,3.16666667 Z M89.9096152,3.4686671 C89.3876922,3.16666667 88.819376,3.16666667 88.0109752,3.16666667 L84.357514,3.16666667 L84.357514,10.205417 L85.9232831,10.205417 L85.9232831,7.64079124 L87.632871,7.64079124 C88.202347,7.64079124 88.5816111,7.69072832 88.819376,7.94279168 C89.1035341,8.29472919 89.0559811,8.89873007 89.0559811,9.30060466 L89.0559811,10.206606 L90.6693032,10.206606 L90.6693032,8.79766693 C90.6693032,8.19485503 90.6217502,7.8928546 90.3851451,7.5397281 C90.243646,7.3387908 89.9583281,7.08791643 89.6254572,6.93691621 C90.053434,6.73597891 90.7644092,6.18191512 90.7644092,5.07735447 C90.7632494,4.2724163 90.4315383,3.81941564 89.9096152,3.4686671 L89.9096152,3.4686671 L89.9096152,3.4686671 L89.9096152,3.4686671 Z M83.2174022,8.74772985 L79.5152281,8.74772985 L79.5152281,7.3387908 L83.1698492,7.3387908 L83.1698492,5.87991468 L79.5152281,5.87991468 L79.5152281,4.62435381 L83.2174022,4.62435381 L83.2174022,3.16666667 L77.9007462,3.16666667 L77.9007462,10.205417 L83.2174022,10.205417 L83.2174022,8.74772985 L83.2174022,8.74772985 L83.2174022,8.74772985 Z M76.7142412,3.16666667 L74.1034662,3.16666667 L72.1572733,7.94279168 L70.0684213,3.16666667 L67.5051993,3.16666667 L67.5051993,9.8035424 L64.8004782,3.16666667 L62.4274681,3.16666667 L59.5789282,10.205417 L61.2885161,10.205417 L61.9055451,8.64547773 L65.2272952,8.64547773 L65.8443243,10.205417 L69.0721282,10.205417 L69.0721282,4.67429089 L71.3975853,10.205417 L72.7743023,10.205417 L75.0997593,4.67429089 L75.0997593,10.205417 L76.7142412,10.205417 L76.7142412,3.16666667 L76.7142412,3.16666667 L76.7142412,3.16666667 Z M102.440407,7.13785351 L101.349008,4.37229046 L100.257609,7.13785351 L102.440407,7.13785351 L102.440407,7.13785351 L102.440407,7.13785351 Z M88.6743974,6.03210388 C88.4389521,6.18191512 88.2011872,6.18191512 87.8694761,6.18191512 L85.9221233,6.18191512 L85.9221233,4.62435381 L87.8694761,4.62435381 C88.1536342,4.62435381 88.4853453,4.62435381 88.6743974,4.72541695 C88.8646094,4.87641717 88.9597153,5.07735447 88.9597153,5.3793549 C88.9597153,5.68016636 88.8646094,5.93222972 88.6743974,6.03210388 L88.6743974,6.03210388 L88.6743974,6.03210388 L88.6743974,6.03210388 Z M62.4750211,7.13785351 L63.5652604,4.37229046 L64.6566594,7.13785351 L62.4750211,7.13785351 L62.4750211,7.13785351 L62.4750211,7.13785351 Z" id="AMEX"></path>
                    </g>
                </g>
            </g>
        </g>
    </g>
</svg>