<?xml version="1.0" encoding="UTF-8"?>
<svg width="105px" height="31px" viewBox="0 0 105 31" version="1.1" xmlns="http://www.w3.org/2000/svg" xmlns:xlink="http://www.w3.org/1999/xlink">
    <!-- Generator: Sketch 47.1 (45422) - http://www.bohemiancoding.com/sketch -->
    <title>Appstore</title>
    <desc>Created with Sketch.</desc>
    <defs></defs>
    <g id="my" stroke="none" stroke-width="1" fill="none" fill-rule="evenodd">
        <g id="03-Рестораны__Main1" transform="translate(-1106.000000, -712.000000)">
            <g id="Мобильные-приложения" transform="translate(966.000000, 470.000000)">
                <g id="Appstore" transform="translate(140.000000, 242.000000)">
                    <rect id="backfround-copy" fill="#231F20" x="0" y="0" width="105" height="31" rx="2.87999994"></rect>
                    <path d="M40.3028655,23.8074246 L42.0676391,23.8074246 L38.2044163,13.1650119 L36.4173977,13.1650119 L32.554175,23.8074246 L34.2596284,23.8074246 L35.2458254,20.9827232 L39.3240836,20.9827232 L40.3028655,23.8074246 Z M37.2256344,15.0973141 L37.3516896,15.0973141 L38.9014277,19.5961857 L35.6684812,19.5961857 L37.2256344,15.0973141 Z M46.7469654,15.6430789 C45.6495432,15.6430789 44.7004213,16.1888436 44.2110303,17.1033683 L44.0923901,17.1033683 L44.0923901,15.7758325 L42.557482,15.7758325 L42.557482,26.41087 L44.1517102,26.41087 L44.1517102,22.5905167 L44.2777655,22.5905167 C44.7004213,23.4386646 45.6124681,23.9401782 46.7617954,23.9401782 C48.8009245,23.9401782 50.0985521,22.3397599 50.0985521,19.7879409 C50.0985521,17.2361219 48.8009245,15.6430789 46.7469654,15.6430789 L46.7469654,15.6430789 Z M46.2946495,22.5167647 C44.9599468,22.5167647 44.1220502,21.4694864 44.1220502,19.7953161 C44.1220502,18.1137707 44.9599468,17.0664924 46.3020645,17.0664924 C47.6515972,17.0664924 48.4598339,18.0916451 48.4598339,19.7879409 C48.4598339,21.491612 47.6515972,22.5167647 46.2946495,22.5167647 L46.2946495,22.5167647 Z M55.015159,15.6430789 C53.9177368,15.6430789 52.9686149,16.1888436 52.4792239,17.1033683 L52.3605837,17.1033683 L52.3605837,15.7758325 L50.8256756,15.7758325 L50.8256756,26.41087 L52.4199038,26.41087 L52.4199038,22.5905167 L52.545959,22.5905167 C52.9686149,23.4386646 53.8806617,23.9401782 55.029989,23.9401782 C57.0691181,23.9401782 58.3667457,22.3397599 58.3667457,19.7879409 C58.3667457,17.2361219 57.0691181,15.6430789 55.015159,15.6430789 L55.015159,15.6430789 Z M54.5628431,22.5167647 C53.2281404,22.5167647 52.3902437,21.4694864 52.3902437,19.7953161 C52.3902437,18.1137707 53.2281404,17.0664924 54.5702581,17.0664924 C55.9197908,17.0664924 56.7280274,18.0916451 56.7280274,19.7879409 C56.7280274,21.491612 55.9197908,22.5167647 54.5628431,22.5167647 L54.5628431,22.5167647 Z M61.7414814,20.9458472 C61.8601217,22.8486487 63.4543498,24.0655566 65.8271546,24.0655566 C68.3630897,24.0655566 69.9499029,22.7896471 69.9499029,20.754092 C69.9499029,19.1536738 69.045271,18.2686499 66.8504267,17.7597611 L65.6714393,17.4721283 C64.2774165,17.1476195 63.7138754,16.7124828 63.7138754,15.9528372 C63.7138754,14.9940613 64.5888471,14.3671694 65.9013047,14.3671694 C67.1470272,14.3671694 68.007169,14.9793109 68.1628843,15.9602124 L69.7793575,15.9602124 C69.6829623,14.168039 68.0961491,12.9068799 65.9235498,12.9068799 C63.5878201,12.9068799 62.030667,14.168039 62.030667,16.0634652 C62.030667,17.6270075 62.9130538,18.5562826 64.8483726,19.0061698 L66.2275654,19.3380538 C67.6438332,19.6699377 68.2666945,20.1567009 68.2666945,20.9679728 C68.2666945,21.9119984 67.2879125,22.5978919 65.9532099,22.5978919 C64.522112,22.5978919 63.5285,21.9562495 63.3876147,20.9458472 L61.7414814,20.9458472 Z M71.3221326,13.8287798 L71.3221326,15.8127085 L69.9948449,15.8127085 L69.9948449,17.1476195 L71.3221326,17.1476195 L71.3221326,21.6833672 C71.3221326,23.232159 72.026559,23.8516758 73.7987476,23.8516758 C74.1101782,23.8516758 74.3993638,23.8147998 74.6514743,23.7705486 L74.6514743,22.4503879 C74.4290238,22.4725135 74.3029686,22.4872639 74.0582731,22.4872639 C73.2648665,22.4872639 72.9163608,22.1185039 72.9163608,21.2777312 L72.9163608,17.1476195 L74.7256244,17.1476195 L74.7256244,15.8127085 L72.9163608,15.8127085 L72.9163608,13.8287798 L71.3221326,13.8287798 Z M78.6782793,22.5536407 C77.2916715,22.5536407 76.513095,21.5432384 76.513095,19.7879409 C76.513095,18.0473939 77.2916715,17.0296164 78.6782793,17.0296164 C80.0574721,17.0296164 80.8434637,18.0473939 80.8434637,19.7879409 C80.8434637,21.5358632 80.0574721,22.5536407 78.6782793,22.5536407 L78.6782793,22.5536407 Z M78.6782793,23.9623038 C81.036254,23.9623038 82.4821819,22.3913863 82.4821819,19.7879409 C82.4821819,17.1992459 81.028839,15.6209533 78.6782793,15.6209533 C76.3203046,15.6209533 74.8669617,17.1992459 74.8669617,19.7879409 C74.8669617,22.3913863 76.3128896,23.9623038 78.6782793,23.9623038 L78.6782793,23.9623038 Z M83.2093054,23.8074246 L84.8035336,23.8074246 L84.8035336,19.0651714 C84.8035336,17.9367659 85.6562603,17.1771203 86.8574927,17.1771203 C87.1244332,17.1771203 87.6138242,17.2287467 87.7398795,17.2729979 L87.7398795,15.7094557 C87.5693341,15.6652045 87.2653185,15.6430789 87.035453,15.6430789 C85.9825209,15.6430789 85.0927192,16.2183444 84.8628537,17.0074908 L84.7442135,17.0074908 L84.7442135,15.7758325 L83.2093054,15.7758325 L83.2093054,23.8074246 Z M91.3291986,16.9706148 C92.508186,16.9706148 93.2793475,17.7892619 93.3164226,19.050421 L89.2381644,19.050421 C89.3271446,17.7966371 90.1502113,16.9706148 91.3291986,16.9706148 L91.3291986,16.9706148 Z M93.3090076,21.639116 C93.012407,22.2660079 92.3524707,22.6126423 91.3885188,22.6126423 C90.1131362,22.6126423 89.2900695,21.7202432 89.2381644,20.3115801 L89.2381644,20.2230777 L94.9403109,20.2230777 L94.9403109,19.6699377 C94.9403109,17.1476195 93.5833631,15.6209533 91.3366136,15.6209533 C89.0602041,15.6209533 87.6142762,17.2508723 87.6142762,19.8174417 C87.6142762,22.3840111 89.030544,23.9623038 91.3440287,23.9623038 C93.1903674,23.9623038 94.4805799,23.0772799 94.8439157,21.639116 L93.3090076,21.639116 Z" id="App-Store" fill="#FFFFFF"></path>
                    <path d="M34.0481946,4.85793848 L34.0481946,9.92575406 L35.8878244,9.92575406 C37.406137,9.92575406 38.2853459,8.99507414 38.2853459,7.37604227 C38.2853459,5.7815944 37.3990751,4.85793848 35.8878244,4.85793848 L34.0481946,4.85793848 Z M34.8391295,5.57438642 L35.7995505,5.57438642 C36.8553073,5.57438642 37.4802872,6.24166636 37.4802872,7.38657827 C37.4802872,8.54905017 36.8659002,9.20930612 35.7995505,9.20930612 L34.8391295,9.20930612 L34.8391295,5.57438642 Z M41.0684482,9.32871411 C40.4081587,9.32871411 40.037408,8.84757015 40.037408,8.01171422 C40.037408,7.18288229 40.4081587,6.69822633 41.0684482,6.69822633 C41.7252066,6.69822633 42.0994883,7.18288229 42.0994883,8.01171422 C42.0994883,8.84405815 41.7252066,9.32871411 41.0684482,9.32871411 L41.0684482,9.32871411 Z M41.0684482,9.99950605 C42.1912933,9.99950605 42.8798304,9.25145012 42.8798304,8.01171422 C42.8798304,6.77900232 42.1877623,6.02743438 41.0684482,6.02743438 C39.945603,6.02743438 39.253535,6.77900232 39.253535,8.01171422 C39.253535,9.25145012 39.9420721,9.99950605 41.0684482,9.99950605 L41.0684482,9.99950605 Z M48.8302032,6.10118638 L48.0710469,6.10118638 L47.3860408,9.01965814 L47.3260145,9.01965814 L46.5350796,6.10118638 L45.8077019,6.10118638 L45.016767,9.01965814 L44.9602717,9.01965814 L44.2717346,6.10118638 L43.5019854,6.10118638 L44.5612732,9.92575406 L45.3416153,9.92575406 L46.1325502,7.10913029 L46.1925765,7.10913029 L46.9870424,9.92575406 L47.7744463,9.92575406 L48.8302032,6.10118638 Z M49.7948613,9.92575406 L50.5540176,9.92575406 L50.5540176,7.68861025 C50.5540176,7.09157029 50.9282993,6.71929833 51.5391553,6.71929833 C52.1041088,6.71929833 52.3795237,7.0248423 52.3795237,7.63944225 L52.3795237,9.92575406 L53.1386799,9.92575406 L53.1386799,7.44979426 C53.1386799,6.54018634 52.6549385,6.02743438 51.7969154,6.02743438 C51.217838,6.02743438 50.7694062,6.28381036 50.5822653,6.70876233 L50.52577,6.70876233 L50.52577,6.10118638 L49.7948613,6.10118638 L49.7948613,9.92575406 Z M54.4211244,9.92575406 L55.1802807,9.92575406 L55.1802807,4.6085865 L54.4211244,4.6085865 L54.4211244,9.92575406 Z M58.1222761,9.32871411 C57.4619867,9.32871411 57.091236,8.84757015 57.091236,8.01171422 C57.091236,7.18288229 57.4619867,6.69822633 58.1222761,6.69822633 C58.7790346,6.69822633 59.1533163,7.18288229 59.1533163,8.01171422 C59.1533163,8.84405815 58.7790346,9.32871411 58.1222761,9.32871411 L58.1222761,9.32871411 Z M58.1222761,9.99950605 C59.2451212,9.99950605 59.9336583,9.25145012 59.9336583,8.01171422 C59.9336583,6.77900232 59.2415903,6.02743438 58.1222761,6.02743438 C56.999431,6.02743438 56.307363,6.77900232 56.307363,8.01171422 C56.307363,9.25145012 56.9959001,9.99950605 58.1222761,9.99950605 L58.1222761,9.99950605 Z M62.2824525,9.35329811 C61.8693303,9.35329811 61.5691987,9.15311412 61.5691987,8.80893815 C61.5691987,8.47178618 61.809304,8.2926742 62.3389479,8.2575542 L63.2781831,8.1978502 L63.2781831,8.51744218 C63.2781831,8.99156214 62.854468,9.35329811 62.2824525,9.35329811 L62.2824525,9.35329811 Z M62.0882498,9.98897006 C62.593177,9.98897006 63.0133612,9.77122607 63.2428735,9.3884181 L63.3028998,9.3884181 L63.3028998,9.92575406 L64.0338084,9.92575406 L64.0338084,7.31282628 C64.0338084,6.50506634 63.4900407,6.02743438 62.5260887,6.02743438 C61.6539418,6.02743438 61.0324929,6.44887435 60.9548118,7.10561829 L61.6892514,7.10561829 C61.7739944,6.83519432 62.067064,6.68066633 62.4907792,6.68066633 C63.0098302,6.68066633 63.2781831,6.90894631 63.2781831,7.31282628 L63.2781831,7.64295425 L62.2365501,7.70265824 C61.3220316,7.75885024 60.8065115,8.15570621 60.8065115,8.84405815 C60.8065115,9.54294609 61.3467483,9.98897006 62.0882498,9.98897006 L62.0882498,9.98897006 Z M66.700389,9.98897006 C67.2300329,9.98897006 67.6784648,9.73961808 67.9079771,9.32169011 L67.9680035,9.32169011 L67.9680035,9.92575406 L68.6953811,9.92575406 L68.6953811,4.6085865 L67.9362248,4.6085865 L67.9362248,6.70876233 L67.8797295,6.70876233 C67.6714029,6.28732236 67.226502,6.03797038 66.700389,6.03797038 C65.7293752,6.03797038 65.1043953,6.80358632 65.1043953,8.01171422 C65.1043953,9.22335412 65.7223132,9.98897006 66.700389,9.98897006 L66.700389,9.98897006 Z M66.9157775,6.71578633 C67.5513502,6.71578633 67.9503487,7.21800228 67.9503487,8.01522622 C67.9503487,8.81596215 67.5548812,9.31115411 66.9157775,9.31115411 C66.2731429,9.31115411 65.8882683,8.82298615 65.8882683,8.01171422 C65.8882683,7.20746628 66.2766739,6.71578633 66.9157775,6.71578633 L66.9157775,6.71578633 Z M73.7954989,9.32871411 C73.1352095,9.32871411 72.7644588,8.84757015 72.7644588,8.01171422 C72.7644588,7.18288229 73.1352095,6.69822633 73.7954989,6.69822633 C74.4522574,6.69822633 74.8265391,7.18288229 74.8265391,8.01171422 C74.8265391,8.84405815 74.4522574,9.32871411 73.7954989,9.32871411 L73.7954989,9.32871411 Z M73.7954989,9.99950605 C74.918344,9.99950605 75.6068811,9.25145012 75.6068811,8.01171422 C75.6068811,6.77900232 74.9148131,6.02743438 73.7954989,6.02743438 C72.6726538,6.02743438 71.9805858,6.77900232 71.9805858,8.01171422 C71.9805858,9.25145012 72.6691229,9.99950605 73.7954989,9.99950605 L73.7954989,9.99950605 Z M76.6986538,9.92575406 L77.4578101,9.92575406 L77.4578101,7.68861025 C77.4578101,7.09157029 77.8320918,6.71929833 78.4429478,6.71929833 C79.0079013,6.71929833 79.2833161,7.0248423 79.2833161,7.63944225 L79.2833161,9.92575406 L80.0424724,9.92575406 L80.0424724,7.44979426 C80.0424724,6.54018634 79.558731,6.02743438 78.7007078,6.02743438 C78.1216305,6.02743438 77.6731986,6.28381036 77.4860578,6.70876233 L77.4295624,6.70876233 L77.4295624,6.10118638 L76.6986538,6.10118638 L76.6986538,9.92575406 Z M83.7160826,5.17401845 L83.7160826,6.11874637 L83.0840409,6.11874637 L83.0840409,6.75441832 L83.7160826,6.75441832 L83.7160826,8.91429814 C83.7160826,9.65181808 84.0515238,9.94682606 84.8954231,9.94682606 C85.0437234,9.94682606 85.1814308,9.92926606 85.3014834,9.90819406 L85.3014834,9.27954611 C85.1955546,9.29008211 85.1355283,9.29710611 85.0190067,9.29710611 C84.641194,9.29710611 84.4752389,9.12150613 84.4752389,8.72113816 L84.4752389,6.75441832 L85.336793,6.75441832 L85.336793,6.11874637 L84.4752389,6.11874637 L84.4752389,5.17401845 L83.7160826,5.17401845 Z M86.4179728,9.92575406 L87.1771291,9.92575406 L87.1771291,7.69212224 C87.1771291,7.11264229 87.5620036,6.72281032 88.1834525,6.72281032 C88.7554679,6.72281032 89.0414757,7.0318663 89.0414757,7.64295425 L89.0414757,9.92575406 L89.8006319,9.92575406 L89.8006319,7.45681826 C89.8006319,6.54721034 89.3062976,6.03094638 88.4412126,6.03094638 C87.8621352,6.03094638 87.4172343,6.28732236 87.2300935,6.71578633 L87.1700671,6.71578633 L87.1700671,4.6085865 L86.4179728,4.6085865 L86.4179728,9.92575406 Z M92.6296367,6.67013033 C93.1910592,6.67013033 93.558279,7.0599623 93.5759338,7.66051425 L91.6339061,7.66051425 C91.6762776,7.0634743 92.0682141,6.67013033 92.6296367,6.67013033 L92.6296367,6.67013033 Z M93.5724028,8.89322615 C93.4311644,9.19174612 93.1169091,9.35681011 92.6578843,9.35681011 C92.0505593,9.35681011 91.6586228,8.93185814 91.6339061,8.2610662 L91.6339061,8.2189222 L94.3492139,8.2189222 L94.3492139,7.95552222 C94.3492139,6.75441832 93.7030483,6.02743438 92.6331676,6.02743438 C91.5491631,6.02743438 90.860626,6.80358632 90.860626,8.02576222 C90.860626,9.24793812 91.5350392,9.99950605 92.6366986,9.99950605 C93.5159075,9.99950605 94.1302944,9.57806609 94.3033114,8.89322615 L93.5724028,8.89322615 Z" id="Download-on-the" fill="#FFFFFF"></path>
                    <g id="logo_apple" transform="translate(9.400826, 4.819026)" fill="#FFFFFF">
                        <path d="M13.9812538,10.8287265 C13.9579823,8.25627517 16.0989541,7.00476921 16.1968546,6.94650395 C14.9843328,5.18817 13.104964,4.94792555 12.4445367,4.92876985 C10.8660916,4.76355191 9.33499187,5.86819747 8.53092374,5.86819747 C7.71080636,5.86819747 6.47260565,4.94473293 5.13810936,4.97187018 C3.42083812,4.99820927 1.8143068,5.98712246 0.933202215,7.52277136 C-0.885179384,10.6539307 0.470983415,15.2552903 2.21313101,17.7862376 C3.08460604,19.0265694 4.10293184,20.4097709 5.4358232,20.3610834 C6.73982589,20.3084053 7.22692105,19.5341956 8.80055138,19.5341956 C10.3597374,19.5341956 10.8171414,20.3610834 12.176514,20.3291573 C13.5760099,20.3084053 14.4571144,19.0848347 15.2980959,17.8333287 C16.3051872,16.4142104 16.7096286,15.0134496 16.7256779,14.9416157 C16.6935794,14.9312397 14.0085375,13.9119966 13.9812538,10.8287265" id="Fill-2"></path>
                        <path d="M11.4133715,3.26381996 C12.1147244,2.39143729 12.5945974,1.20458183 12.4613885,0.00016698015 C11.4462725,0.0448636215 10.1767758,0.698552002 9.44573179,1.55177896 C8.79894645,2.30364032 8.22117295,3.53599058 8.37043111,4.69491064 C9.51073131,4.77951499 10.6815251,4.12263399 11.4133715,3.26381996" id="Fill-3"></path>
                    </g>
                </g>
            </g>
        </g>
    </g>
</svg>