<?xml version="1.0" encoding="UTF-8"?>
<svg width="16px" height="12px" viewBox="0 0 16 12" version="1.1" xmlns="http://www.w3.org/2000/svg" xmlns:xlink="http://www.w3.org/1999/xlink">
    <!-- Generator: Sketch 47.1 (45422) - http://www.bohemiancoding.com/sketch -->
    <title>Shape Copy 2</title>
    <desc>Created with Sketch.</desc>
    <defs></defs>
    <g id="my" stroke="none" stroke-width="1" fill="none" fill-rule="evenodd">
        <g id="03-Рестораны__Main2" transform="translate(-50.000000, -152.000000)" fill-rule="nonzero" fill="#7F7873">
            <g id="Шапка-Copy-2" transform="translate(0.000000, 130.000000)">
                <g id="Search" transform="translate(50.000000, 20.000000)">
                    <path d="M7.05819879,3.95376071 C7.51142634,3.50641094 7.51105053,2.78215848 7.05824409,2.33522435 C6.60533809,1.88819195 5.87127309,1.88831025 5.41844162,2.33526907 L0.227026616,7.45935818 C-0.0754540847,7.7579161 -0.0758969115,8.24153705 0.227026616,8.54053205 L5.41844162,13.6646212 C5.87166917,14.1119709 6.60543765,14.1116 7.05824409,13.6646659 C7.51115009,13.2176335 7.51103024,12.4930883 7.05819879,12.0461295 L4.10773808,9.13393244 L14.8410074,9.13393244 C15.4806762,9.13393244 16,8.62154632 16,7.98948603 C16,7.35728675 15.4811013,6.8450396 14.8410074,6.8450396 L4.12893112,6.8450396 L7.05819879,3.95376071 Z" id="Shape-Copy-2"></path>
                </g>
            </g>
        </g>
    </g>
</svg>