<?xml version="1.0" encoding="UTF-8"?>
<svg width="16px" height="20px" viewBox="0 0 16 20" version="1.1" xmlns="http://www.w3.org/2000/svg" xmlns:xlink="http://www.w3.org/1999/xlink">
    <!-- Generator: Sketch 47.1 (45422) - http://www.bohemiancoding.com/sketch -->
    <title>Shape</title>
    <desc>Created with Sketch.</desc>
    <defs></defs>
    <g id="my" stroke="none" stroke-width="1" fill="none" fill-rule="evenodd">
        <g id="03-Рестораны__Main1" transform="translate(-841.000000, -195.000000)" fill-rule="nonzero" fill="#231F20">
            <g id="Шапка-Copy-2" transform="translate(0.000000, 130.000000)">
                <path d="M853.450529,72.1588914 C855.407941,72.1588914 857,70.5539994 857,68.5798402 C857,66.605681 855.407941,65 853.450529,65 C851.4939,65 849.901059,66.605681 849.901059,68.5798402 C849.901059,68.8343032 849.929223,69.0812703 849.978901,69.3203472 L845.668215,72.3147253 C845.202332,72.0267285 844.658216,71.8507742 844.072244,71.8507742 C842.377698,71.8507742 841,73.2394713 841,74.9477266 C841,76.6567709 842.377307,78.0466515 844.072244,78.0466515 C844.936337,78.0466515 845.715547,77.6829076 846.274919,77.0998126 C846.303083,77.1274287 846.324597,77.1613571 846.35902,77.1838446 L850.308266,79.7943584 C850.056744,80.2843476 849.901059,80.8331196 849.901059,81.4209488 C849.901059,83.395108 851.4939,85 853.450529,85 C855.407941,85 857,83.395108 857,81.4209488 C857,79.4467896 855.407941,77.8411086 853.450529,77.8411086 C852.559837,77.8411086 851.754419,78.1855213 851.130113,78.7350824 L847.086986,76.0626295 C847.043566,76.0334353 846.995453,76.0231778 846.948121,76.0062136 C847.068992,75.674031 847.144488,75.3205444 847.144488,74.9473321 C847.144488,74.3263635 846.9579,73.7499753 846.644965,73.2635368 L850.509327,70.579643 C851.147715,71.5327942 852.227343,72.1588914 853.450529,72.1588914 Z" id="Shape"></path>
            </g>
        </g>
    </g>
</svg>