<?xml version="1.0" encoding="UTF-8"?>
<svg width="16px" height="18px" viewBox="0 0 16 18" version="1.1" xmlns="http://www.w3.org/2000/svg" xmlns:xlink="http://www.w3.org/1999/xlink">
    <!-- Generator: Sketch 47.1 (45422) - http://www.bohemiancoding.com/sketch -->
    <title>Shape</title>
    <desc>Created with Sketch.</desc>
    <defs></defs>
    <g id="my" stroke="none" stroke-width="1" fill="none" fill-rule="evenodd">
        <g id="11-События" transform="translate(-1118.000000, -643.000000)" fill-rule="nonzero" fill="#FFFFFF">
            <g id="Filter" transform="translate(0.000000, 620.000000)">
                <g id="View-switch" transform="translate(1102.000000, 11.000000)">
                    <path d="M17.7952314,30 L30.2047686,30 C31.1921459,30 32,29.1838791 32,28.186398 L32,15.5138539 C32,14.5163728 31.1921459,13.7002519 30.2047686,13.7002519 L28.2748948,13.7002519 L28.2748948,12.906801 C28.2748948,12.4080605 27.8709677,12 27.3772791,12 C26.8835905,12 26.4796634,12.4080605 26.4796634,12.906801 L26.4796634,13.7002519 L21.5203366,13.7002519 L21.5203366,12.906801 C21.5203366,12.4080605 21.1164095,12 20.6227209,12 C20.1290323,12 19.7251052,12.4080605 19.7251052,12.906801 L19.7251052,13.7002519 L17.7952314,13.7002519 C16.8078541,13.7002519 16,14.5163728 16,15.5138539 L16,28.163728 C16,29.1838791 16.8078541,30 17.7952314,30 Z M17.7952314,28.186398 L17.7952314,20.5239295 L30.2047686,20.5239295 L30.2047686,28.163728 L17.7952314,28.163728 L17.7952314,28.186398 Z M19.7251052,15.5138539 L19.7251052,16.7607053 C19.7251052,17.2594458 20.1290323,17.6675063 20.6227209,17.6675063 C21.1164095,17.6675063 21.5203366,17.2594458 21.5203366,16.7607053 L21.5203366,15.5138539 L26.5021038,15.5138539 L26.5021038,16.7607053 C26.5021038,17.2594458 26.9060309,17.6675063 27.3997195,17.6675063 C27.8934081,17.6675063 28.2973352,17.2594458 28.2973352,16.7607053 L28.2973352,15.5138539 L30.227209,15.5138539 L30.227209,18.7103275 L17.7952314,18.7103275 L17.7952314,15.5138539 L19.7251052,15.5138539 Z" id="Shape"></path>
                </g>
            </g>
        </g>
    </g>
</svg>