<?xml version="1.0" encoding="UTF-8"?>
<svg width="47px" height="48px" viewBox="0 0 47 48" version="1.1" xmlns="http://www.w3.org/2000/svg" xmlns:xlink="http://www.w3.org/1999/xlink">
    <!-- Generator: Sketch 47.1 (45422) - http://www.bohemiancoding.com/sketch -->
    <title>Shape</title>
    <desc>Created with Sketch.</desc>
    <defs></defs>
    <g id="my" stroke="none" stroke-width="1" fill="none" fill-rule="evenodd" opacity="0.109999999">
        <g id="21-Персональные-данные" transform="translate(-877.000000, -449.000000)" fill-rule="nonzero" fill="#231F20">
            <g id="Group" transform="translate(355.000000, 180.000000)">
                <g id="Group-10" transform="translate(35.000000, 90.000000)">
                    <g id="Bitmap-Copy-3" transform="translate(4.000000, 159.000000)">
                        <g id="Group-10">
                            <path d="M490.465909,20 C486.372816,20 483,23.3648799 483,27.4482694 L483,60.5517306 C483,64.6351201 486.372816,68 490.465909,68 L548.534091,68 C552.627184,68 556,64.6351201 556,60.5517306 L556,27.4482694 C556,23.3648799 552.627184,20 548.534091,20 L490.465909,20 Z M491.917613,24.965513 L547.082386,24.965513 L520.381392,48.7586373 C520.017626,49.0828853 518.982374,49.0828853 518.618608,48.7586373 L491.917613,24.965513 Z M487.977273,28.0947792 L506.616122,44.724158 L487.977273,60.1121171 L487.977273,28.0947792 Z M551.022727,28.0947792 L551.022727,60.1121171 L532.383878,44.724158 L551.022727,28.0947792 Z M510.375,48.0603206 L515.300426,52.4569513 C517.716965,54.6114046 521.283033,54.6114046 523.699574,52.4569513 L528.625,48.0603206 L546.771307,63.034487 L492.228693,63.034487 L510.375,48.0603206 Z" id="Shape"></path>
                        </g>
                    </g>
                </g>
            </g>
        </g>
    </g>
</svg>