<?xml version="1.0" encoding="UTF-8"?>
<svg width="49px" height="49px" viewBox="0 0 49 49" version="1.1" xmlns="http://www.w3.org/2000/svg" xmlns:xlink="http://www.w3.org/1999/xlink">
    <!-- Generator: Sketch 47.1 (45422) - http://www.bohemiancoding.com/sketch -->
    <title>Facebook Copy 2_Color</title>
    <desc>Created with Sketch.</desc>
    <defs></defs>
    <g id="Symbols" stroke="none" stroke-width="1" fill="none" fill-rule="evenodd">
        <g id="Footer" transform="translate(-109.000000, -52.000000)">
            <g id="Group-5">
                <g transform="translate(48.000000, 52.000000)">
                    <g id="Group-4" transform="translate(2.000000, 0.000000)">
                        <g id="Social-Copy">
                            <g id="Facebook-Copy-2" transform="translate(59.000000, 0.000000)">
                                <path d="M0,24.5 C0,10.969023 10.969023,0 24.5,0 C38.030977,0 49,10.969023 49,24.5 C49,38.030977 38.030977,49 24.5,49 C10.969023,49 0,38.030977 0,24.5 Z" id="back" fill="#FFFFFF"></path>
                                <path d="M25.984607,34 L25.984607,24.4988876 L28.6471549,24.4988876 L29,21.2247517 L25.984607,21.2247517 L25.9891307,19.5860151 C25.9891307,18.73207 26.0714989,18.2745067 27.3166349,18.2745067 L28.9811514,18.2745067 L28.9811514,15 L26.3182266,15 C23.1196255,15 21.9938009,16.5883082 21.9938009,19.2593431 L21.9938009,21.2251225 L20,21.2251225 L20,24.4992584 L21.9938009,24.4992584 L21.9938009,34 L25.984607,34 Z" id="Shape" fill="#7F7873" opacity="0.5"></path>
                            </g>
                        </g>
                    </g>
                </g>
            </g>
        </g>
    </g>
</svg>