<?xml version="1.0" encoding="UTF-8"?>
<svg width="49px" height="49px" viewBox="0 0 49 49" version="1.1" xmlns="http://www.w3.org/2000/svg" xmlns:xlink="http://www.w3.org/1999/xlink">
    <!-- Generator: Sketch 47.1 (45422) - http://www.bohemiancoding.com/sketch -->
    <title>Instagram Copy 2_Color</title>
    <desc>Created with Sketch.</desc>
    <defs></defs>
    <g id="Symbols" stroke="none" stroke-width="1" fill="none" fill-rule="evenodd">
        <g id="Footer" transform="translate(-227.000000, -52.000000)">
            <g id="Group-5">
                <g transform="translate(48.000000, 52.000000)">
                    <g id="Group-4" transform="translate(2.000000, 0.000000)">
                        <g id="Social-Copy">
                            <g id="Instagram-Copy-2" transform="translate(177.000000, 0.000000)">
                                <path d="M0,24.5 C0,10.969023 10.969023,0 24.5,0 C38.030977,0 49,10.969023 49,24.5 C49,38.030977 38.030977,49 24.5,49 C10.969023,49 0,38.030977 0,24.5 Z" id="back" fill="#FFFFFF"></path>
                                <path d="M24.5011719,12 C21.1063449,12 20.6802988,12.0148437 19.3469515,12.0755208 C18.0162085,12.1364583 17.1078657,12.3471354 16.3130658,12.65625 C15.4909218,12.9755208 14.7935187,13.4026042 14.0987198,14.0976562 C13.4034,14.7924479 12.9763123,15.4898437 12.6559964,16.3117188 C12.3460974,17.1067708 12.1351577,18.0153646 12.0752612,19.3455729 C12.0156252,20.6789062 12,21.1052083 12,24.5 C12,27.8947917 12.0151043,28.3195312 12.0755216,29.6528646 C12.1367202,30.9835937 12.3473995,31.8919271 12.6562568,32.6867187 C12.9757914,33.5088542 13.4028792,34.20625 14.0979385,34.9010417 C14.792477,35.5963542 15.4898801,36.0244792 16.3115032,36.34375 C17.106824,36.6528646 18.0154272,36.8635417 19.3459099,36.9244792 C20.6792571,36.9851563 21.1050428,37 24.4996094,37 C27.8946968,37 28.3194408,36.9851563 29.652788,36.9244792 C30.9835311,36.8635417 31.8929156,36.6528646 32.6882363,36.34375 C33.5101199,36.0244792 34.2064813,35.5963542 34.9010198,34.9010417 C35.5963395,34.20625 36.0234273,33.5088542 36.3437432,32.6869792 C36.651038,31.8919271 36.8619777,30.9833333 36.9244784,29.653125 C36.9843748,28.3197917 37,27.8947917 37,24.5 C37,21.1052083 36.9843748,20.6791667 36.9244784,19.3458333 C36.8619777,18.0151042 36.651038,17.1067708 36.3437432,16.3119792 C36.0234273,15.4898438 35.5963395,14.7924479 34.9010198,14.0976563 C34.2057001,13.4023438 33.5103803,12.9752604 32.6874551,12.65625 C31.8905718,12.3471354 30.9817081,12.1364583 29.6509651,12.0755208 C28.3176179,12.0148438 27.8931343,12 24.4972656,12 L24.5011719,12 Z M23.379806,14.2526042 C23.712622,14.2520833 24.08398,14.2526042 24.5011719,14.2526042 C27.8387067,14.2526042 28.2342837,14.2645833 29.5522662,14.3244792 C30.7710289,14.3802083 31.4324941,14.5838542 31.8731237,14.7549479 C32.4564631,14.9815104 32.8723528,15.2523437 33.309597,15.6898437 C33.7471015,16.1273437 34.0179377,16.5440104 34.2450234,17.1273437 C34.4161189,17.5674479 34.6200273,18.2289063 34.6754966,19.4476563 C34.7353931,20.7653646 34.748414,21.1611979 34.748414,24.4971354 C34.748414,27.8330729 34.7353931,28.2289063 34.6754966,29.5466146 C34.6197669,30.7653646 34.4161189,31.4268229 34.2450234,31.8669271 C34.0184585,32.4502604 33.7471015,32.865625 33.309597,33.3028646 C32.8720924,33.7403646 32.4567235,34.0111979 31.8731237,34.2377604 C31.4330149,34.4096354 30.7710289,34.6127604 29.5522662,34.6684896 C28.2345441,34.7283854 27.8387067,34.7414063 24.5011719,34.7414063 C21.1633767,34.7414063 20.7677997,34.7283854 19.4500776,34.6684896 C18.2313149,34.6122396 17.5698497,34.4085938 17.1289597,34.2375 C16.5456203,34.0109375 16.1289493,33.7401042 15.6914447,33.3026042 C15.2539401,32.8651042 14.983104,32.4494792 14.7560183,31.8658854 C14.5849228,31.4257813 14.3810144,30.7643229 14.3255451,29.5455729 C14.2656486,28.2278646 14.2536693,27.8320313 14.2536693,24.4940104 C14.2536693,21.1559896 14.2656486,20.7622396 14.3255451,19.4445313 C14.3812748,18.2257812 14.5849228,17.5643229 14.7560183,17.1236979 C14.9825832,16.5403646 15.2539401,16.1236979 15.6914447,15.6861979 C16.1289493,15.2486979 16.5456203,14.9778646 17.1289597,14.7507812 C17.5695893,14.5789062 18.2313149,14.3757812 19.4500776,14.3197917 C20.6032146,14.2677083 21.0500943,14.2520833 23.379806,14.2494792 L23.379806,14.2526042 Z M31.1736372,16.328125 C30.3455036,16.328125 29.6736216,16.9992188 29.6736216,17.8276042 C29.6736216,18.6557292 30.3455036,19.3276042 31.1736372,19.3276042 C32.0017709,19.3276042 32.6736529,18.6557292 32.6736529,17.8276042 C32.6736529,16.9994792 32.0017709,16.3276042 31.1736372,16.3276042 L31.1736372,16.328125 Z M24.5011719,18.0807292 C20.9560829,18.0807292 18.0818342,20.9549479 18.0818342,24.5 C18.0818342,28.0450521 20.9560829,30.9179688 24.5011719,30.9179688 C28.0462609,30.9179688 30.9194679,28.0450521 30.9194679,24.5 C30.9194679,20.9549479 28.0460005,18.0807292 24.5009115,18.0807292 L24.5011719,18.0807292 Z M24.5011719,20.3333333 C26.8022375,20.3333333 28.667882,22.1986979 28.667882,24.5 C28.667882,26.8010417 26.8022375,28.6666667 24.5011719,28.6666667 C22.1998458,28.6666667 20.3344618,26.8010417 20.3344618,24.5 C20.3344618,22.1986979 22.1998458,20.3333333 24.5011719,20.3333333 L24.5011719,20.3333333 Z" id="Shape" fill="#7F7873" opacity="0.5"></path>
                            </g>
                        </g>
                    </g>
                </g>
            </g>
        </g>
    </g>
</svg>