<?xml version="1.0" encoding="UTF-8"?>
<svg width="12px" height="18px" viewBox="0 0 12 18" version="1.1" xmlns="http://www.w3.org/2000/svg" xmlns:xlink="http://www.w3.org/1999/xlink">
    <!-- Generator: Sketch 47.1 (45422) - http://www.bohemiancoding.com/sketch -->
    <title>Shape</title>
    <desc>Created with Sketch.</desc>
    <defs></defs>
    <g id="my" stroke="none" stroke-width="1" fill="none" fill-rule="evenodd">
        <g id="30-Оформление1" transform="translate(-538.000000, -743.000000)" fill-rule="nonzero" fill="#7F7873">
            <g id="Group" transform="translate(224.000000, 180.000000)">
                <g id="Group-10" transform="translate(42.000000, 330.000000)">
                    <g id="Время-доставки-Copy-9" transform="translate(111.000000, 178.000000)">
                        <g id="Select" transform="translate(161.000000, 0.000000)">
                            <path d="M6,61.15 C2.69620253,61.15 0,63.8125 0,67.075 C0,70.3375 2.67721519,73 6,73 C9.30379747,73 12,70.35625 12,67.075 C12,63.8125 9.30379747,61.15 6,61.15 Z M7.21518987,70 L4.78481013,70 L5.20253165,66.8875 C4.78481013,66.625 4.5,66.15625 4.5,65.63125 C4.5,64.825 5.16455696,64.15 6,64.15 C6.83544304,64.15 7.5,64.80625 7.5,65.63125 C7.5,66.15625 7.21518987,66.625 6.79746835,66.8875 L7.21518987,70 Z M2.94303797,61.46875 C2.29746835,61.825 1.70886076,62.275 1.17721519,62.81875 L1.17721519,58.58125 C1.17721519,56.6125 2.81012658,55 4.80379747,55 L7.12025316,55 C9.11392405,55 10.7468354,56.6125 10.7468354,58.58125 L10.7468354,62.81875 C10.2721519,62.275 9.6835443,61.825 9.01898734,61.46875 L9.01898734,58.58125 C9.01898734,57.56875 8.1835443,56.725 7.13924051,56.725 L4.82278481,56.725 C3.79746835,56.725 2.94303797,57.55 2.94303797,58.58125 L2.94303797,61.46875 Z" id="Shape"></path>
                        </g>
                    </g>
                </g>
            </g>
        </g>
    </g>
</svg>