<?xml version="1.0" encoding="UTF-8"?>
<svg width="45px" height="28px" viewBox="0 0 45 28" version="1.1" xmlns="http://www.w3.org/2000/svg" xmlns:xlink="http://www.w3.org/1999/xlink">
    <!-- Generator: sketchtool 48.2 (47327) - http://www.bohemiancoding.com/sketch -->
    <title>D4EB8F06-F141-4281-86DB-0108EA772B69</title>
    <desc>Created with sketchtool.</desc>
    <defs></defs>
    <g id="01-Главная" stroke="none" stroke-width="1" fill="none" fill-rule="evenodd" transform="translate(-508.000000, -4783.000000)" opacity="0.5">
        <g id="Footer" transform="translate(0.000000, 4494.000000)" fill="#7F7873">
            <g id="Group-5" transform="translate(40.000000, 40.000000)">
                <g id="Group-11" transform="translate(0.000000, 249.000000)">
                    <g id="Payments" transform="translate(330.000000, 0.000000)">
                        <path d="M182.957056,13.7952381 C182.957056,21.25 177.053056,27.3761905 169.781056,27.3761905 C166.613056,27.3761905 163.733056,26.2690476 161.429056,24.35 C163.157056,22.652381 164.453056,20.5119048 165.173056,18.0761905 L164.093056,18.0761905 C163.445056,20.2166667 162.221056,22.1357143 160.637056,23.6857143 C159.053056,22.1357143 157.901056,20.2166667 157.181056,18.0761905 L156.101056,18.0761905 C156.821056,20.5119048 158.117056,22.652381 159.845056,24.35 C157.613056,26.1952381 154.733056,27.3761905 151.565056,27.3761905 C144.221056,27.3761905 138.317056,21.25 138.317056,13.7952381 C138.317056,6.34047619 144.221056,0.214285714 151.493056,0.214285714 C154.661056,0.214285714 157.469056,1.32142857 159.773056,3.24047619 C158.045056,4.93809524 156.749056,7.07857143 156.029056,9.51428571 L157.109056,9.51428571 C157.829056,7.37380952 158.981056,5.4547619 160.565056,3.9047619 C162.149056,5.4547619 163.301056,7.37380952 164.021056,9.51428571 L165.101056,9.51428571 C164.453056,7.07857143 163.085056,4.93809524 161.357056,3.24047619 C163.661056,1.32142857 166.541056,0.214285714 169.709056,0.214285714 C177.053056,0.214285714 182.957056,6.34047619 182.957056,13.7952381 Z M173.237056,16.9690476 L174.605056,16.9690476 L175.037056,14.6809524 C175.469056,13.2047619 176.045056,13.2785714 176.405056,13.2785714 L176.765056,11.95 C176.045056,11.95 175.685056,12.2452381 175.469056,12.4666667 L175.325056,11.95 L174.173056,11.95 L173.237056,16.9690476 Z M155.597056,10.6952381 L154.589056,15.4190476 C154.373056,16.747619 155.381056,16.9690476 155.669056,16.9690476 C156.029056,16.9690476 156.389056,16.9690476 156.677056,16.747619 L156.821056,15.6404762 C156.101056,15.7880952 156.029056,15.4190476 156.101056,15.05 L156.461056,13.0571429 L157.109056,13.0571429 L157.325056,12.0238095 L156.605056,12.0238095 L156.893056,10.6952381 L155.597056,10.6952381 Z M161.357056,14.7547619 C161.501056,13.9428571 161.861056,11.95 159.557056,11.95 C157.397056,11.95 157.109056,14.1642857 157.109056,14.4595238 C157.037056,14.7547619 157.037056,16.9690476 159.341056,16.9690476 C159.917056,16.9690476 160.709056,16.8952381 161.069056,16.747619 L161.285056,15.7142857 C161.069056,15.7880952 160.349056,15.8619048 159.773056,15.8619048 C159.269056,15.8619048 158.405056,15.8619048 158.549056,14.7547619 L161.357056,14.7547619 Z M154.301056,13.1309524 L154.589056,12.097619 C153.941056,11.8761905 153.437056,11.8761905 153.293056,11.8761905 C153.077056,11.8761905 151.493056,11.8761905 151.277056,13.0571429 C151.061056,14.0166667 151.421056,14.3857143 151.709056,14.5333333 C152.213056,14.7547619 152.501056,14.9761905 152.789056,15.1238095 C153.149056,15.2714286 153.077056,15.8619048 152.645056,15.8619048 C152.429056,15.8619048 151.565056,15.9357143 150.917056,15.7142857 L150.701056,16.747619 C151.349056,16.8952381 151.781056,16.8952381 152.285056,16.8952381 C152.645056,16.8952381 154.229056,16.9690476 154.445056,15.4928571 C154.589056,14.7547619 154.229056,14.4595238 154.013056,14.2380952 C153.725056,14.0904762 153.365056,13.7952381 153.077056,13.7214286 C152.789056,13.5738095 152.573056,13.1309524 153.077056,12.9833333 C153.293056,13.0571429 153.941056,13.0571429 154.301056,13.1309524 Z M145.661056,16.9690476 L146.813056,10.9166667 L144.581056,10.9166667 L142.997056,14.6071429 L142.709056,10.9166667 L140.621056,10.9166667 L139.469056,16.9690476 L140.765056,16.9690476 L141.629056,12.6142857 L141.989056,16.9690476 L143.213056,16.9690476 L145.085056,12.6880952 L144.293056,16.9690476 L145.661056,16.9690476 Z M147.173056,12.097619 L146.957056,13.2047619 C147.317056,13.2047619 148.181056,13.0571429 148.613056,13.0571429 C149.045056,13.0571429 149.621056,12.9833333 149.405056,13.7214286 C149.045056,13.7214286 146.669056,13.352381 146.309056,15.4928571 C146.165056,16.5261905 147.029056,17.0428571 147.677056,17.0428571 C148.325056,17.0428571 148.541056,16.8952381 148.757056,16.747619 L148.901056,17.0428571 L150.125056,17.0428571 L150.629056,14.3119048 C150.773056,13.647619 150.989056,12.0238095 148.757056,12.0238095 C148.469056,11.95 148.037056,11.95 147.173056,12.097619 Z M168.701056,12.3190476 L169.565056,11.4333333 C169.277056,11.0642857 168.845056,10.6952381 167.765056,10.6214286 C166.829056,10.547619 165.245056,11.2857143 164.741056,13.1309524 C164.093056,15.7142857 165.605056,16.9690476 166.973056,16.9690476 C167.693056,16.9690476 168.125056,16.8952381 168.557056,16.6738095 L168.197056,15.4190476 C166.829056,15.8619048 165.893056,15.197619 166.109056,13.7214286 C166.253056,12.5404762 167.261056,12.097619 167.693056,12.097619 C168.125056,12.097619 168.341056,12.097619 168.701056,12.3190476 Z M180.005056,12.5404762 C179.717056,12.3190476 179.573056,11.95 178.997056,11.95 C178.277056,11.95 177.125056,11.802381 176.477056,14.0904762 C176.045056,15.6404762 176.909056,16.9690476 177.845056,16.9690476 C178.277056,16.9690476 178.709056,16.747619 178.997056,16.6 L179.141056,16.9690476 L180.581056,16.9690476 L181.733056,10.6214286 L180.365056,10.6214286 L180.005056,12.5404762 Z M169.637056,12.097619 L169.421056,13.2047619 C169.781056,13.2047619 170.645056,13.0571429 171.077056,13.0571429 C171.509056,13.0571429 172.013056,12.9833333 171.869056,13.7214286 C171.509056,13.7214286 169.133056,13.352381 168.773056,15.4928571 C168.629056,16.5261905 169.493056,17.0428571 170.141056,17.0428571 C170.789056,17.0428571 171.005056,16.8952381 171.221056,16.747619 L171.365056,17.0428571 L172.589056,17.0428571 L173.093056,14.3119048 C173.237056,13.647619 173.453056,12.0238095 171.221056,12.0238095 C171.005056,11.95 170.501056,11.95 169.637056,12.097619 Z M161.357056,16.9690476 L161.357056,17.0428571 L162.725056,17.0428571 L163.157056,14.7547619 C163.589056,13.2785714 164.237056,13.352381 164.525056,13.352381 L164.885056,12.0238095 C164.165056,12.0238095 163.805056,12.3190476 163.589056,12.5404762 L163.445056,12.0238095 L162.293056,12.0238095 L161.357056,16.9690476 Z M158.549056,13.7952381 L160.205056,13.7952381 C160.277056,13.2785714 160.133056,12.9095238 159.629056,12.9095238 C159.053056,12.9095238 158.693056,13.2047619 158.549056,13.7952381 M149.189056,14.7547619 C148.973056,14.7547619 148.469056,14.6071429 148.037056,14.902381 C147.605056,15.197619 147.461056,15.7142857 147.965056,15.8619048 C148.397056,16.0095238 148.973056,15.7142857 149.117056,15.2714286 L149.189056,14.7547619 M179.573056,14.6071429 C179.717056,14.1642857 179.645056,13.5738095 179.501056,13.352381 C179.069056,12.7619048 178.133056,13.2047619 177.845056,14.3119048 C177.629056,15.05 178.061056,15.5666667 178.493056,15.5666667 C178.997056,15.5666667 179.285056,15.197619 179.573056,14.6071429 M171.725056,14.7547619 C171.509056,14.7547619 171.005056,14.6071429 170.573056,14.902381 C170.141056,15.197619 169.997056,15.7142857 170.501056,15.8619048 C170.933056,16.0095238 171.581056,15.7142857 171.653056,15.2714286 L171.725056,14.7547619" id="MasterCard"></path>
                    </g>
                </g>
            </g>
        </g>
    </g>
</svg>