<?xml version="1.0" encoding="UTF-8"?>
<svg width="61px" height="18px" viewBox="0 0 61 18" version="1.1" xmlns="http://www.w3.org/2000/svg" xmlns:xlink="http://www.w3.org/1999/xlink">
    <!-- Generator: sketchtool 48.2 (47327) - http://www.bohemiancoding.com/sketch -->
    <title>6F6D63E6-0296-4877-B20D-6236BA0157DB</title>
    <desc>Created with sketchtool.</desc>
    <defs></defs>
    <g id="01-Главная" stroke="none" stroke-width="1" fill="none" fill-rule="evenodd" transform="translate(-579.000000, -4787.000000)" opacity="0.5">
        <g id="Footer" transform="translate(0.000000, 4494.000000)" fill="#7F7873">
            <g id="Group-5" transform="translate(40.000000, 40.000000)">
                <g id="Group-11" transform="translate(0.000000, 249.000000)">
                    <g id="Payments" transform="translate(330.000000, 0.000000)">
                        <path d="M259.627505,11.0853733 C259.403205,10.9410133 259.16614,10.8174535 258.91783,10.7122104 C258.584116,10.5746803 258.267725,10.5026555 257.975041,10.5026555 C257.525833,10.5026555 257.180569,10.5675399 256.947151,10.7063118 C256.71343,10.8379433 256.590946,11.0667462 256.594897,11.3942728 C256.594897,11.7724029 256.680301,12.0657798 256.857188,12.2958245 C257.035291,12.5171766 257.300014,12.6953758 257.628257,12.8282492 C257.954678,12.9412536 258.356168,13.0343891 258.819661,13.1011362 C259.231789,13.1542234 260.046624,13.250153 260.150872,13.2507739 C260.25512,13.2517053 260.324416,13.3103807 260.277914,13.0266278 C260.257247,12.9033785 260.022006,11.916763 259.914111,11.4681603 C259.882806,11.3337347 259.707743,11.1378397 259.627505,11.0853733 L259.627505,11.0853733 Z M262.825451,18.0196225 C262.139178,18.4107916 261.0657,18.6085494 259.596808,18.6085494 C258.870417,18.6085494 258.140379,18.5489426 257.407909,18.4328337 C256.870257,18.3487013 256.814942,18.334731 256.480924,18.260533 C255.793739,18.1077908 255.687668,17.4049281 255.687668,17.4049281 L255.467015,16.4779193 C255.341796,15.8849566 255.672471,15.9094823 255.819877,15.9554291 C256.119855,16.0479437 256.282458,16.1398374 256.894572,16.2814034 C257.479636,16.4170708 258.097828,16.5185885 258.591106,16.5145526 C259.314458,16.5145526 259.86457,16.4335247 260.230197,16.277678 C260.596129,16.1146909 260.77727,15.837147 260.77727,15.4400793 C260.778486,15.345702 260.780918,15.2566024 260.747485,15.178679 C260.717396,15.1060333 260.65965,15.0358712 260.486714,15.0119664 C259.454266,14.9492552 258.713286,14.8530151 257.820949,14.7201418 C256.940465,14.5934775 256.170004,14.3764718 255.525977,14.0759545 C254.839401,13.7648819 254.32576,13.3485662 253.971682,12.8211088 C253.627026,12.2911677 253.453786,11.6494641 253.452874,10.8935142 C253.452874,10.1791648 253.704224,9.59644697 254.190511,9.14411885 C254.682573,8.6976893 255.322649,8.47664769 256.097061,8.47664769 C256.580916,8.48006266 256.959613,8.51576461 257.231022,8.58499534 C257.499695,8.65422607 257.792683,8.75263926 258.102083,8.88954845 C258.333374,8.9882721 258.5829,9.13107988 258.846407,9.31021051 C259.110217,9.48996204 259.292879,9.61755769 259.527209,9.7743358 L259.535719,9.75943412 L259.469766,9.46233184 C259.469462,9.45953777 259.465511,9.45798552 259.465511,9.45519145 L259.467638,9.44960332 C259.392264,9.09165251 259.602887,8.79392933 259.949975,8.75884829 L259.95423,8.75263926 L259.984926,8.75263926 L259.986142,8.751087 C260.216521,8.751087 261.007345,8.75139745 261.376923,8.75263926 L261.634959,8.75263926 C261.651979,8.75263926 261.653803,8.75791693 261.660489,8.76195281 C262.014871,8.8063474 262.354664,9.10127651 262.434598,9.45519145 L263.754563,15.2746086 C263.784956,15.4115178 263.808967,15.5695377 263.823252,15.7514624 C263.839664,15.9352498 263.859115,16.0864397 263.853341,16.1957187 C263.85638,17.0193471 263.5099,17.6281429 262.825451,18.0196225 Z M240.117666,18.4797119 C239.730459,18.4797119 239.222593,18.1596362 238.982185,17.7728134 C238.982185,17.7728134 236.392098,13.2371141 236.137709,12.7838546 C235.999421,12.54015 235.85931,12.6950654 235.835907,12.7857173 C235.817064,12.8959276 235.03323,17.74301 235.03323,17.74301 C234.94509,18.1332478 234.546031,18.4682252 234.046979,18.4666729 L232.431897,18.4641893 C232.042564,18.4641893 231.799724,18.1456659 231.886344,17.7607058 C231.886344,17.7607058 233.120906,10.6128658 233.361618,8.93176989 C233.48167,8.00196705 233.349157,7.83711719 233.349157,7.83711719 L231.748664,4.98654969 C231.514334,4.60003732 231.642593,4.28337659 232.030103,4.28337659 L233.9017,4.28492885 C234.28921,4.28492885 234.802547,4.60003732 235.03323,4.98717059 L242.233319,17.4260388 C242.233319,17.4260388 242.922023,18.488715 242.28681,18.4797119 C241.853711,18.4735029 240.117666,18.4797119 240.117666,18.4797119 Z M221.290755,19.642664 C221.066151,20.0903353 220.729398,20.4538743 220.299641,20.7283136 C219.853777,21.0092723 219.335273,21.2029942 218.730757,21.319724 C218.122595,21.4311762 217.412311,21.4858157 216.597477,21.4932665 L212.824496,21.4904725 C212.432427,21.4858157 212.04826,21.1716386 211.95769,20.7866785 L209.413496,9.48903069 C209.325964,9.10251832 209.570931,8.78306352 209.961481,8.78306352 L211.768949,8.78306352 C212.159803,8.78306352 212.547009,9.09413612 212.634844,9.48903069 L213.257596,12.2306296 C213.340872,12.6140375 213.727167,12.9313191 214.118932,12.9313191 L214.635612,12.9313191 C216.846091,12.9334923 218.560557,13.3954444 219.792687,14.3199696 C221.022993,15.242632 221.638451,16.4658117 221.635411,17.9783324 C221.638451,18.642699 221.525693,19.198718 221.290755,19.642664 Z M254.106323,19.6013739 C253.881111,20.0490452 253.541014,20.4094797 253.110954,20.690128 C252.669952,20.9701554 252.145978,21.1654296 251.539335,21.2793653 C250.939378,21.3867816 250.226055,21.448251 249.413348,21.4501138 L245.631858,21.448251 C245.242524,21.4414211 244.860485,21.1291067 244.770522,20.744457 L242.228152,9.44339429 C242.135453,9.05936553 242.388323,8.73928983 242.770666,8.74146299 L244.585125,8.74487796 C244.969899,8.74146299 245.361968,9.05936553 245.452843,9.44339429 L246.066173,12.1859246 C246.152185,12.5702638 246.543342,12.8922022 246.934499,12.8866141 L247.450268,12.8866141 C249.663482,12.8866141 251.379468,13.3510498 252.608255,14.275575 C253.834002,15.2047569 254.450979,16.4235903 254.450979,17.9395259 C254.447028,18.601409 254.336701,19.1589802 254.106323,19.6013739 Z M230.002893,18.0286256 C229.316621,18.4197947 228.243446,18.617242 226.774555,18.617242 C226.047859,18.617242 225.318125,18.5582562 224.585351,18.4418368 C224.046788,18.3583253 223.992688,18.3440445 223.658366,18.2698466 C222.970877,18.1164834 222.86511,17.4142417 222.86511,17.4142417 L222.644457,16.486612 C222.519542,15.8939597 222.850521,15.9184854 222.997319,15.9644322 C223.29669,16.0569468 223.460204,16.1485301 224.072318,16.290717 C224.65647,16.4257635 225.275574,16.5269707 225.768244,16.5235557 C226.492204,16.5235557 227.041709,16.4428383 227.407336,16.2869915 C227.773571,16.1240044 227.953801,15.8458397 227.953801,15.4490824 C227.956232,15.3547051 227.958056,15.265295 227.925535,15.1879925 C227.894839,15.1147259 227.836484,15.0448743 227.663548,15.02128 C226.632316,14.9576374 225.891639,14.8617078 224.997783,14.7288345 C224.117299,14.6021702 223.347142,14.3851644 222.702812,14.0849576 C222.016235,13.773885 221.503202,13.3569484 221.149732,12.8298014 C220.80386,12.3001708 220.630924,11.6584672 220.630317,10.9022068 C220.630317,10.1881679 220.88197,9.60513962 221.367649,9.15312195 C221.860015,8.7066924 222.499483,8.48534034 223.273895,8.48534034 C223.758055,8.48875531 224.136447,8.52507816 224.408768,8.59368799 C224.677137,8.66353962 224.970429,8.7613319 225.278614,8.8982411 C225.510816,8.99696474 225.759734,9.14039343 226.023545,9.31921361 C226.286748,9.49865469 226.470321,9.62625034 226.705563,9.78302845 L226.712857,9.76843722 L226.646904,9.47164539 C226.646296,9.46885133 226.642649,9.46698862 226.642649,9.46357365 L226.645385,9.45891687 C226.57001,9.10003471 226.780025,8.80262198 227.127417,8.76816184 L227.131672,8.7613319 L227.162065,8.7613319 L227.162976,8.75915874 C227.393963,8.75915874 228.185091,8.76040055 228.553758,8.7613319 L228.812098,8.7613319 C228.829422,8.7613319 228.831853,8.76723049 228.837324,8.77095591 C229.192617,8.81659231 229.531195,9.11090052 229.61204,9.46357365 L230.932006,15.2836117 C230.961791,15.4202104 230.986105,15.5782303 230.999478,15.7598446 C231.017106,15.9445633 231.036253,16.0951324 231.031087,16.2041009 C231.034126,17.0283502 230.687038,17.637146 230.002893,18.0286256 Z M269.057221,21.3572887 L267.440012,21.3572887 C267.4391,21.3572887 267.438188,21.3569782 267.437581,21.3569782 L267.436669,21.3572887 C267.066483,21.3572887 266.690826,21.0676373 266.58597,20.6991311 C266.581715,20.6842294 266.574421,20.6699486 266.571078,20.6544261 C266.571078,20.6544261 266.532479,20.4746745 266.465614,20.1639124 L264.244194,9.87864757 C264.19283,9.64611925 264.158486,9.49461882 264.148152,9.45519145 L264.152407,9.44960332 C264.075513,9.09010025 264.287048,8.79268752 264.634439,8.75946919 L264.638998,8.75263926 L266.317601,8.75263926 C266.685355,8.75263926 267.058581,9.03949663 267.166779,9.40334602 C267.171946,9.42104176 267.180152,9.4374957 267.184103,9.45519145 L269.607333,20.655047 L269.603686,20.6562888 C269.686051,21.0393862 269.444427,21.3572887 269.057221,21.3572887 Z M226.804947,11.094066 C226.580648,10.9497059 226.343886,10.8267671 226.095576,10.7212135 C225.761862,10.5843043 225.443951,10.5116586 225.152179,10.5116586 C224.704187,10.5116586 224.358011,10.5768534 224.12429,10.7150044 C223.890872,10.8469464 223.76778,11.0757493 223.771731,11.4035863 C223.771731,11.7807851 223.858047,12.0750933 224.03463,12.3048276 C224.213037,12.5264901 224.476544,12.7049998 224.804788,12.8375627 C225.13212,12.951188 225.534826,13.0430817 225.996799,13.1098289 C226.408927,13.1629161 227.224674,13.2585352 227.328618,13.2600875 C227.431954,13.2603979 227.501554,13.3196942 227.455053,13.0359414 C227.434993,12.912692 227.199448,11.9254556 227.091553,11.4771634 C227.059032,11.3421169 226.883969,11.1462219 226.804947,11.094066 Z M250.205084,15.905136 C249.663482,15.5027906 248.903354,15.300997 247.925309,15.300997 L247.475494,15.300997 C247.086464,15.2963402 246.835114,15.6176577 246.927509,16.0029282 L247.469719,18.4014781 C247.550564,18.78085 247.945369,19.1037198 248.328928,19.1006153 L248.92311,19.1037198 C249.616677,19.1006153 250.135484,18.9820227 250.493817,18.7463899 C250.846072,18.507963 251.01688,18.138215 251.019615,17.6455282 C251.021135,16.8945455 250.749118,16.3167949 250.205084,15.905136 Z M217.387997,15.9513933 C216.843052,15.5443911 216.087787,15.3404243 215.10731,15.3404243 L214.664181,15.3404243 C214.273632,15.3404243 214.027145,15.6567746 214.113157,16.0454601 L214.657191,18.4402845 C214.740164,18.826176 215.129801,19.1462517 215.520351,19.1425263 L216.111797,19.1462517 C216.802629,19.1462517 217.327819,19.025486 217.682201,18.7851964 C218.031416,18.5514262 218.208911,18.1822992 218.202832,17.6858869 C218.213166,16.9383192 217.935678,16.3596372 217.387997,15.9513933 Z" id="PayPal" transform="translate(239.507770, 12.888322) scale(1, -1) translate(-239.507770, -12.888322) "></path>
                    </g>
                </g>
            </g>
        </g>
    </g>
</svg>