<?xml version="1.0" encoding="UTF-8"?>
<svg width="8px" height="18px" viewBox="0 0 8 18" version="1.1" xmlns="http://www.w3.org/2000/svg" xmlns:xlink="http://www.w3.org/1999/xlink">
    <!-- Generator: sketchtool 48.2 (47327) - http://www.bohemiancoding.com/sketch -->
    <title>0A37668E-41B4-42F8-9CE2-23444077F6E9</title>
    <desc>Created with sketchtool.</desc>
    <defs></defs>
    <g id="03-Рестораны__Main1__States" stroke="none" stroke-width="1" fill="none" fill-rule="evenodd" transform="translate(-351.000000, -12.000000)">
        <g id="Header" stroke="#7F7873" stroke-width="0.5">
            <g id="Group-23" transform="translate(0.000000, 1.000000)">
                <g id="Time" transform="translate(209.000000, 10.000000)">
                    <g id="Group-16" transform="translate(137.000000, 0.000000)">
                        <g id="Group-15">
                            <g id="phone" transform="translate(9.666667, 10.000000) rotate(45.000000) translate(-9.666667, -10.000000) translate(2.666667, 3.333333)">
                                <path d="M13.0833333,9.94666667 L13.0834103,9.94046541 C13.0970548,9.39056139 12.6964234,8.91772308 12.1539773,8.84118693 C11.4952401,8.75430618 10.8484458,8.59318306 10.2253681,8.36067974 C9.82947747,8.21186495 9.38318139,8.30704658 9.08344336,8.60344336 L8.10205228,9.58483445 L7.93642637,9.49065696 C6.22827792,8.51937692 4.81395641,7.10505542 3.84267637,5.39690696 L3.74849888,5.23128106 L3.8832233,5.09655664 L4.72890359,4.25088189 C5.02628675,3.95015195 5.12146838,3.50385586 4.97244235,3.10740121 C4.74015028,2.48488749 4.57902715,1.83809322 4.49246041,1.18165456 C4.4163567,0.643220279 3.95288678,0.244636141 3.40666667,0.25 L1.4069021,0.249999889 C1.10280731,0.250286263 0.812834355,0.378369303 0.607816895,0.602961294 C0.402799436,0.827553285 0.301616754,1.1279724 0.328602183,1.42693344 C0.543284275,3.44854905 1.23115479,5.39116707 2.33767011,7.09925296 C3.34154375,8.67905765 4.68094235,10.0184563 6.26269196,11.0235784 C7.96121778,12.1250663 9.89443424,12.8127806 11.9025021,13.0310147 C12.2063034,13.0584708 12.5076021,12.9565743 12.7323776,12.7503582 C12.957153,12.5441422 13.0845735,12.2527183 13.0833333,11.9466667 L13.0833333,9.94666667 Z" id="Shape"></path>
                            </g>
                        </g>
                    </g>
                </g>
            </g>
        </g>
    </g>
</svg>