<?xml version="1.0" encoding="UTF-8"?>
<svg width="49px" height="49px" viewBox="0 0 49 49" version="1.1" xmlns="http://www.w3.org/2000/svg" xmlns:xlink="http://www.w3.org/1999/xlink">
    <!-- Generator: Sketch 47.1 (45422) - http://www.bohemiancoding.com/sketch -->
    <title>Pinterest Copy 2_Color</title>
    <desc>Created with Sketch.</desc>
    <defs>
        <path d="M25,49 C10.9667416,49 0,38.0285974 0,24 C0,10.9687785 10.9667416,0 25,0 C38.0306341,0 49,10.9687785 49,24 C49,38.0285974 38.0306341,49 25,49 Z" id="path-1"></path>
    </defs>
    <g id="Symbols" stroke="none" stroke-width="1" fill="none" fill-rule="evenodd">
        <g id="Footer" transform="translate(-286.000000, -52.000000)">
            <g id="Group-5">
                <g transform="translate(48.000000, 52.000000)">
                    <g id="Group-4" transform="translate(2.000000, 0.000000)">
                        <g id="Social-Copy">
                            <g id="Pinterest-Copy-2" transform="translate(236.000000, 0.000000)">
                                <mask id="mask-2" fill="white">
                                    <use xlink:href="#path-1"></use>
                                </mask>
                                <use id="Fill-1892" fill="#FFFFFF" xlink:href="#path-1"></use>
                                <path d="M18.862854,36.5470569 C18.862854,36.5470569 18.6296502,33.7792156 18.9128262,32.5846049 C19.1676846,31.5074968 20.5652415,25.722121 20.5652415,25.722121 C20.5652415,25.722121 20.143809,24.8947062 20.143809,23.6723518 C20.143809,21.7515091 21.2781788,20.318629 22.6940589,20.318629 C23.8950583,20.318629 24.476402,21.2031632 24.476402,22.2639514 C24.476402,23.4487703 23.7068295,25.2194706 23.3087174,26.8612444 C22.9772349,28.2370051 24.0133259,29.3565447 25.3958912,29.3565447 C27.901166,29.3565447 29.8267629,26.7682214 29.8267629,23.0326149 C29.8267629,19.7262196 27.4031094,17.4153332 23.9400333,17.4153332 C19.9305941,17.4153332 17.5769017,20.3626925 17.5769017,23.4079707 C17.5769017,24.5944215 18.0416435,25.8673674 18.624653,26.5593277 C18.7395891,26.6964142 18.7562465,26.8155489 18.7229317,26.9558993 C18.6163243,27.3916385 18.3781233,28.3300281 18.3314825,28.52097 C18.2698501,28.7739272 18.1265963,28.8277826 17.858412,28.7070159 C16.0993892,27.9040808 15,25.3810368 15,23.3573793 C15,19.0016196 18.2298723,15 24.3114936,15 C29.2004442,15 33,18.4141061 33,22.9754955 C33,27.7343547 29.9367018,31.5646162 25.6873959,31.5646162 C24.2581899,31.5646162 22.9156024,30.8367523 22.4558579,29.9783298 C22.4558579,29.9783298 21.7495836,32.6139806 21.5780122,33.2602454 C21.2598556,34.4597521 20.4003331,35.9628074 19.8273182,36.8799812 C21.1449195,37.2814488 18.862854,36.5470569 18.862854,36.5470569 Z" id="Fill-1894" fill="#7F7873" opacity="0.5" mask="url(#mask-2)"></path>
                            </g>
                        </g>
                    </g>
                </g>
            </g>
        </g>
    </g>
</svg>