<?xml version="1.0" encoding="UTF-8"?>
<svg width="15px" height="18px" viewBox="0 0 15 18" version="1.1" xmlns="http://www.w3.org/2000/svg" xmlns:xlink="http://www.w3.org/1999/xlink">
    <!-- Generator: Sketch 47.1 (45422) - http://www.bohemiancoding.com/sketch -->
    <title>Pinterest Copy 9_Color</title>
    <desc>Created with Sketch.</desc>
    <defs></defs>
    <g stroke="none" stroke-width="1" fill="none" fill-rule="evenodd" opacity="0.5">
        <g transform="translate(-1225.000000, -76.000000)" fill="#7F7873">
            <g>
                <g transform="translate(1100.000000, 75.000000)">
                    <g transform="translate(125.600000, 1.400000)">
                        <path d="M3.09028318,17.2376455 C3.09028318,17.2376455 2.90372016,15.0233725 3.13026097,14.0676839 C3.3341477,13.2059975 4.45219323,8.57769682 4.45219323,8.57769682 C4.45219323,8.57769682 4.1150472,7.91576497 4.1150472,6.93788142 C4.1150472,5.40120727 5.02254303,4.25490319 6.15524708,4.25490319 C7.11604664,4.25490319 7.5811216,4.96253054 7.5811216,5.81116112 C7.5811216,6.7590162 6.96546363,8.17557648 6.6469739,9.48899551 C6.3817879,10.5896041 7.21066074,11.4852358 8.31671294,11.4852358 C10.3209328,11.4852358 11.8614103,9.41457714 11.8614103,6.4260919 C11.8614103,3.78097565 9.92248751,1.93226656 7.15202665,1.93226656 C3.94447529,1.93226656 2.06152138,4.290154 2.06152138,6.72637656 C2.06152138,7.67553723 2.43331483,8.69389393 2.89972238,9.24746219 C2.99167129,9.35713137 3.00499722,9.45243912 2.97834536,9.56471947 C2.89305941,9.9133108 2.70249861,10.6640225 2.66518601,10.816776 C2.61588007,11.0191417 2.50127707,11.0622261 2.28672959,10.9656127 C0.879511383,10.3232647 -1.71418435e-13,8.30482945 -1.71418435e-13,6.68590341 C-1.71418435e-13,3.20129568 2.58389783,-4.79616347e-14 7.44919489,-4.79616347e-14 C11.3603554,-4.79616347e-14 14.4,2.73128489 14.4,6.3803964 C14.4,10.1874838 11.9493615,13.251693 8.54991671,13.251693 C7.40655192,13.251693 6.33248195,12.6694018 5.96468629,11.9826638 C5.96468629,11.9826638 5.39966685,14.0911844 5.26240977,14.6081963 C5.00788451,15.5678017 4.32026652,16.7702459 3.86185453,17.503985 C4.91593559,17.825159 3.09028318,17.2376455 3.09028318,17.2376455 Z"></path>
                    </g>
                </g>
            </g>
        </g>
    </g>
</svg>