<?xml version="1.0" encoding="UTF-8"?>
<svg width="107px" height="32px" viewBox="0 0 107 32" version="1.1" xmlns="http://www.w3.org/2000/svg" xmlns:xlink="http://www.w3.org/1999/xlink">
    <!-- Generator: Sketch 47.1 (45422) - http://www.bohemiancoding.com/sketch -->
    <title>Playstore</title>
    <desc>Created with Sketch.</desc>
    <defs>
        <linearGradient x1="50%" y1="0%" x2="50%" y2="38.9125982%" id="linearGradient-1">
            <stop stop-color="#FBDA09" offset="0%"></stop>
            <stop stop-color="#FFBC00" offset="100%"></stop>
        </linearGradient>
        <path d="M8.02404677,1.84676925 C8.63601623,0.759297862 9.63471365,0.770820487 10.2402164,1.84676925 L19.0540219,17.5084708 C19.6660091,18.5959422 19.1423802,19.4775119 17.8844351,19.4775119 L0.38011619,19.4775119 C-0.877815988,19.4775119 -1.39498794,18.5844196 -0.789502786,17.5084708 L8.02404677,1.84676925 Z" id="path-2"></path>
        <linearGradient x1="0%" y1="58.4755255%" x2="69.3064856%" y2="39.0830098%" id="linearGradient-4">
            <stop stop-color="#01E2FF" offset="0%"></stop>
            <stop stop-color="#01C4FF" offset="100%"></stop>
        </linearGradient>
        <linearGradient x1="20.2810876%" y1="20.1019903%" x2="83.820166%" y2="83.6214476%" id="linearGradient-5">
            <stop stop-color="#28D781" offset="0%"></stop>
            <stop stop-color="#02F076" offset="100%"></stop>
        </linearGradient>
        <linearGradient x1="74.4881466%" y1="17.4301299%" x2="10.1079427%" y2="91.1838038%" id="linearGradient-6">
            <stop stop-color="#F2414E" offset="0%"></stop>
            <stop stop-color="#E02554" offset="100%"></stop>
        </linearGradient>
    </defs>
    <g id="my" stroke="none" stroke-width="1" fill="none" fill-rule="evenodd">
        <g id="03-Рестораны__Main1" transform="translate(-985.000000, -712.000000)">
            <g id="Мобильные-приложения" transform="translate(966.000000, 470.000000)">
                <g id="Playstore" transform="translate(19.000000, 242.000000)">
                    <rect id="background" fill="#231F20" x="0" y="0" width="107" height="31.941533" rx="3.59999993"></rect>
                    <g id="get-it-on" transform="translate(32.812374, 5.381818)" fill="#FFFFFF">
                        <path d="M23.8897108,5.23636364 C22.4590445,5.23636364 21.2992603,4.06416371 21.2992603,2.61818182 C21.2992603,1.17219993 22.4590445,0 23.8897108,0 C25.3203772,0 26.4801614,1.17219993 26.4801614,2.61818182 C26.4801614,4.06416371 25.3203772,5.23636364 23.8897108,5.23636364 Z M23.8897108,4.43636364 C24.8832291,4.43636364 25.6886348,3.62233591 25.6886348,2.61818182 C25.6886348,1.61402773 24.8832291,0.8 23.8897108,0.8 C22.8961925,0.8 22.0907868,1.61402773 22.0907868,2.61818182 C22.0907868,3.62233591 22.8961925,4.43636364 23.8897108,4.43636364 Z" id="o"></path>
                        <path d="M6.33221251,2.90909091 L6.33221251,4.50909091 L8.41896436,4.50909091 L8.41896436,5.09090909 L5.54068594,5.09090909 L5.54068594,4.8 L5.54068594,0.545454545 L5.54068594,0.218181818 L8.41896436,0.218181818 L8.41896436,0.8 L6.33221251,0.8 L6.33221251,2.32727273 L8.20309348,2.32727273 L8.20309348,2.90909091 L6.33221251,2.90909091 Z" id="e"></path>
                        <path d="M11.2252858,0.8 L11.2252858,5.09090909 L10.4337592,5.09090909 L10.4337592,0.8 L9.21049092,0.8 L9.21049092,0.218181818 L12.4485541,0.218181818 L12.4485541,0.8 L11.2252858,0.8 Z" id="t"></path>
                        <path d="M18.2770679,0.8 L18.2770679,5.09090909 L17.4855414,5.09090909 L17.4855414,0.8 L16.262273,0.8 L16.262273,0.218181818 L19.5003362,0.218181818 L19.5003362,0.8 L18.2770679,0.8 Z" id="t"></path>
                        <rect id="i" x="14.7511769" y="0.218181818" width="1" height="4.87272727"></rect>
                        <path d="M27.5954943,0.218181818 L27.127774,0.218181818 L27.127774,5.09090909 L27.9193006,5.09090909 L27.9193006,1.28780488 L30.2219233,5.09090909 L30.6176866,5.09090909 L31.0134499,5.09090909 L31.0134499,0.218181818 L30.2219233,0.218181818 L30.2219233,3.78359202 L28.0632145,0.218181818 L27.5954943,0.218181818 Z" id="n"></path>
                        <g id="g" transform="translate(0.000000, 0.072727)">
                            <polygon id="Rectangle-1" points="2.57485475 2.33964446 4.74202416 2.33964446 4.72056704 3.03287244 2.57485475 3.03287244"></polygon>
                            <path d="M4.31555991,0.708547543 C3.89374495,0.258913542 3.27669163,0 2.54266907,0 C1.13839172,0 0,1.14933425 0,2.56710989 C0,3.98488553 1.13839307,5.13218687 2.54266907,5.13421978 C3.97040591,5.14720934 5.16123432,4.13072319 4.92311055,2.36541203 C4.92311055,2.35680548 4.92307458,2.34821625 4.92300275,2.33964446 L4.28995862,2.33964446 C4.29511278,2.41334407 4.29691,2.48919119 4.29519634,2.56710989 C4.29670505,3.82794368 3.57733896,4.41932842 2.56412619,4.41932842 C1.55091342,4.41932842 0.729542179,3.59006194 0.729542179,2.56710989 C0.729542179,1.54415784 1.55091342,0.714891362 2.56412619,0.714891362 C3.07102029,0.714891362 3.5103375,0.889930792 3.81965086,1.2092234 L4.31555991,0.708547543 Z" id="Oval-1"></path>
                        </g>
                    </g>
                    <g id="googleplay" transform="translate(32.452589, 13.963636)" fill="#FFFFFF">
                        <g id="big-P" transform="translate(44.901143, 0.363636)">
                            <path d="M0.359784802,2.55610311e-07 L4.4392331,0 C4.4392331,0 6.78765902,0.403835227 6.78765884,3.1294399 C6.78765866,5.85504458 4.4392331,6.2588798 4.4392331,6.2588798 L0.359784802,6.25888006 L0.359784802,2.55610311e-07 Z M1.15131137,1.51395729 L1.15131137,4.87272727 L3.92064018,4.87272727 C3.92064018,4.87272727 5.18090114,4.87272727 5.18090114,3.19334228 C5.18090114,1.51395729 3.92064018,1.51395729 3.92064018,1.51395729 L1.15131137,1.51395729 Z" id="Combined-Shape"></path>
                            <rect id="Rectangle-6" x="0" y="0" width="1.43913921" height="10.1818182"></rect>
                        </g>
                        <rect id="y" x="52.528581" y="0.363636364" width="1.43913921" height="10.1818182"></rect>
                        <path d="M59.3017472,9.81746423 C58.9053575,10.148016 58.2716298,10.45912 57.2707198,10.5223011 C54.9776891,10.6670456 54.9764944,8.55220157 54.9764944,8.40958807 C54.9764944,8.26697457 54.8633941,6.54229404 56.6874398,6.26814631 C57.9790436,6.07402274 58.8836741,6.39746992 59.3017472,6.60284002 L59.3017472,6.30368032 C59.1992242,5.90747466 58.8810699,5.17947443 57.9272568,5.17947443 C56.6168594,5.17947443 56.3274793,5.89552557 56.3274793,5.89552557 L55.1287354,5.17947443 C55.1287354,5.17947443 55.7995308,3.78181818 57.8122943,3.78181818 C60.3149705,3.78181818 60.7410357,5.52650036 60.7410357,6.11410689 C60.7410357,6.11696708 60.7409857,6.11980877 60.7408864,6.12263209 L60.7408864,10.5421875 L59.3017472,10.5421875 L59.3017472,9.81746423 Z M59.1989415,7.6365767 C59.1989415,7.6365767 56.4264201,6.88128556 56.3300442,8.45550426 C56.2336682,10.029723 58.9898869,9.27382814 59.2361497,8.15788352 C59.2361496,7.80301845 59.1989415,7.6365767 59.1989415,7.6365767 Z" id="a"></path>
                        <path d="M63.4413331,10.1591579 L62.0988568,13.3818182 L63.537996,13.3818182 L67.4315421,4.03522727 L65.9924029,4.03522727 L64.1609027,8.43180637 L62.3147276,4 L60.8755884,4 L63.4413331,10.1591579 Z" id="y"></path>
                        <path d="M41.6792953,6.38004772 L37.1277323,8.28124721 C37.1277323,8.28124721 37.421689,9.33279768 38.7901491,9.33984561 C39.8617044,9.3453644 40.4666034,8.37989685 40.4666034,8.37989685 L41.6213961,9.17032875 C41.6213961,9.17032875 40.6895417,10.693555 38.7810532,10.693555 C36.4357838,10.693555 35.4028245,8.62085422 35.4028245,7.27477393 C35.4028245,5.97786031 36.2227285,3.78181818 38.6355179,3.78181818 C41.0483072,3.78181818 41.6792953,6.38004772 41.6792953,6.38004772 Z M39.9475218,5.84146567 C39.9475218,5.84146567 39.374872,4.96086604 38.4966297,5.12326807 C36.6388685,5.4667999 36.872652,7.10993158 36.872652,7.10993158 L39.9475218,5.84146567 Z" id="e"></path>
                        <rect id="i" x="33.2441157" y="0.363636364" width="1.52252281" height="10.1604278"></rect>
                        <path d="M30.8076455,4.0026373 L32.2150695,4.01492608 L32.2150695,10.4258446 C32.2150695,12.0638166 31.2501986,13.7928533 28.978659,13.7928533 C26.7071193,13.7928533 25.9734956,11.7586951 25.9734956,11.7586951 L27.2660832,11.2092647 C27.2660832,11.2092647 27.6603141,12.462915 29.0458291,12.4629133 C30.6236273,12.4629114 30.8078204,11.0120977 30.8078204,10.51548 L30.8078204,9.81974681 C30.8078204,9.81974681 30.2618882,10.6833372 28.9058914,10.6833391 C27.435714,10.6833411 25.6886348,9.41024277 25.6886348,7.23986249 C25.6886348,5.06948221 27.3337344,3.82804904 28.9229025,3.78289158 C30.1958116,3.74672088 30.8076455,4.63670617 30.8076455,4.63670617 L30.8076455,4.0026373 Z M29.0260629,9.38056408 C30.0524142,9.38056408 30.8844363,8.43033302 30.8844363,7.25816361 C30.8844363,6.08599419 30.0524142,5.13576313 29.0260629,5.13576313 C27.9997116,5.13576313 27.1676895,6.08599419 27.1676895,7.25816361 C27.1676895,8.43033302 27.9997116,9.38056408 29.0260629,9.38056408 Z" id="g"></path>
                        <path d="M21.6307873,10.6909091 C19.7388385,10.6909091 18.205111,9.14425641 18.205111,7.23636364 C18.205111,5.32847086 19.7388385,3.78181818 21.6307873,3.78181818 C23.5227361,3.78181818 25.0564636,5.32847086 25.0564636,7.23636364 C25.0564636,9.14425641 23.5227361,10.6909091 21.6307873,10.6909091 Z M21.6083972,9.33618538 C22.6718456,9.33618538 23.5339408,8.39606316 23.5339408,7.23636364 C23.5339408,6.07666411 22.6718456,5.13654189 21.6083972,5.13654189 C20.5449489,5.13654189 19.6828537,6.07666411 19.6828537,7.23636364 C19.6828537,8.39606316 20.5449489,9.33618538 21.6083972,9.33618538 Z" id="o"></path>
                        <path d="M14.2192204,10.6909091 C12.3272716,10.6909091 10.793544,9.14425641 10.793544,7.23636364 C10.793544,5.32847086 12.3272716,3.78181818 14.2192204,3.78181818 C16.1111692,3.78181818 17.6448967,5.32847086 17.6448967,7.23636364 C17.6448967,9.14425641 16.1111692,10.6909091 14.2192204,10.6909091 Z M14.1968303,9.33618538 C15.2602787,9.33618538 16.1223739,8.39606316 16.1223739,7.23636364 C16.1223739,6.07666411 15.2602787,5.13654189 14.1968303,5.13654189 C13.133382,5.13654189 12.2712868,6.07666411 12.2712868,7.23636364 C12.2712868,8.39606316 13.133382,9.33618538 14.1968303,9.33618538 Z" id="o"></path>
                        <g id="big-g">
                            <polygon id="Rectangle-1" points="5.37360991 4.87700535 9.89639826 4.87700535 9.85161817 6.32204397 5.37360991 6.32204397"></polygon>
                            <path d="M9.0063859,1.47697234 C8.12607642,0.539707101 6.83831297,0 5.30643979,0 C2.37577402,0 0,2.39579533 0,5.35115865 C0,8.30652196 2.37577684,10.6980797 5.30643979,10.7023173 C8.2860645,10.7293941 10.7712716,8.61052158 10.2743177,4.93071803 C10.2743177,4.91277761 10.2742426,4.89487331 10.2740927,4.87700535 L8.95295712,4.87700535 C8.96371363,5.03063271 8.96746435,5.18873656 8.96388802,5.35115865 C8.96703662,7.97937556 7.46575087,9.21212121 5.35121987,9.21212121 C3.23668887,9.21212121 1.52252281,7.48350939 1.52252281,5.35115865 C1.52252281,3.2188079 3.23668887,1.49019608 5.35121987,1.49019608 C6.40908582,1.49019608 7.32592174,1.855067 7.97144527,2.5206347 L9.0063859,1.47697234 Z" id="Oval-1"></path>
                        </g>
                    </g>
                    <g id="logo_play" transform="translate(7.843309, 5.672727)">
                        <mask id="mask-3" fill="white">
                            <use xlink:href="#path-2"></use>
                        </mask>
                        <use id="yellow" fill="url(#linearGradient-1)" transform="translate(9.131980, 10.262194) rotate(-270.000000) translate(-9.131980, -10.262194) " xlink:href="#path-2"></use>
                        <polygon id="blue" fill="url(#linearGradient-4)" mask="url(#mask-3)" points="0 -0.00717171748 10.0586364 10.0972175 -0.129922289 20.6009817"></polygon>
                        <polygon id="green" fill="url(#linearGradient-5)" mask="url(#mask-3)" points="-2.06842948 -2.08730587 10.0574427 10.100173 13.6626058 6.62408934"></polygon>
                        <polygon id="red" fill="url(#linearGradient-6)" mask="url(#mask-3)" points="10.0590945 10.0978478 15.5782377 15.7204391 -0.909678116 21.3430303"></polygon>
                    </g>
                </g>
            </g>
        </g>
    </g>
</svg>