<?xml version="1.0" encoding="UTF-8"?>
<svg width="18px" height="18px" viewBox="0 0 18 18" version="1.1" xmlns="http://www.w3.org/2000/svg" xmlns:xlink="http://www.w3.org/1999/xlink">
    <!-- Generator: Sketch 47.1 (45422) - http://www.bohemiancoding.com/sketch -->
    <title>search copy</title>
    <desc>Created with Sketch.</desc>
    <defs></defs>
    <g id="my" stroke="none" stroke-width="1" fill="none" fill-rule="evenodd">
        <g id="01-Главная" transform="translate(-940.000000, -12.000000)" stroke-width="0.200000003" stroke="#231F20" fill="#231F20">
            <g id="Header">
                <g id="Group-23" transform="translate(0.000000, 1.000000)">
                    <g id="Group-5" transform="translate(941.000000, 12.000000)">
                        <path d="M6.67448932,0 C3.00352017,0 0,2.99465859 0,6.66328912 C0,10.3319197 3.00352017,13.3335266 6.67448932,13.3335266 C8.08586587,13.3335266 9.68379737,12.712713 10.7614493,11.9623115 L14.3698451,15.5614603 C14.5932311,15.7880865 15.3264253,16.260372 15.7933216,15.8165192 C16.2602178,15.3726664 15.8228455,14.8195311 15.5873604,14.584196 L11.9789645,10.978099 C12.7367972,9.89418541 13.3420263,8.07376654 13.3420263,6.66328912 C13.3420263,2.99465859 10.3385059,6.66726317e-16 6.67448932,6.66726317e-16 L6.67448932,0 Z M12.0282862,6.6632891 C12.0282862,9.64005281 9.64535716,12.0214635 6.6753299,12.0214635 C3.69666885,12.0214635 1.31374007,9.64005281 1.31374007,6.6632891 C1.31374007,3.68652563 3.69666885,1.30511491 6.6753299,1.30511491 C9.64535716,1.30511491 12.0282862,3.68652563 12.0282862,6.6632891 Z" id="search-copy"></path>
                    </g>
                </g>
            </g>
        </g>
    </g>
</svg>