<?xml version="1.0" encoding="UTF-8"?>
<svg width="16px" height="14px" viewBox="0 0 16 14" version="1.1" xmlns="http://www.w3.org/2000/svg" xmlns:xlink="http://www.w3.org/1999/xlink">
    <!-- Generator: Sketch 48.2 (47327) - http://www.bohemiancoding.com/sketch -->
    <title>Shape</title>
    <desc>Created with Sketch.</desc>
    <defs></defs>
    <g id="05-Подборка" stroke="none" stroke-width="1" fill="none" fill-rule="evenodd" transform="translate(-855.000000, -196.000000)">
        <g id="Шапка-Copy-2" transform="translate(0.000000, 130.000000)" fill="#1DA0F3" fill-rule="nonzero">
            <g id="Group-18" transform="translate(781.000000, 53.000000)">
                <path d="M89.76,15.23648 C89.19488,15.48736 88.58752,15.65632 87.95008,15.73248 C88.60096,15.34272 89.1008,14.72512 89.33568,13.98912 C88.72704,14.35008 88.05248,14.61248 87.3344,14.75392 C86.76032,14.14144 85.94048,13.75872 85.03424,13.75872 C82.99968,13.75872 81.50464,15.65696 81.96416,17.62752 C79.34592,17.49632 77.024,16.24192 75.46944,14.33536 C74.64384,15.75168 75.04128,17.60448 76.44416,18.54272 C75.92832,18.52608 75.44192,18.38464 75.0176,18.14848 C74.98304,19.60832 76.02944,20.97408 77.54496,21.27808 C77.10144,21.3984 76.61568,21.42656 76.1216,21.33184 C76.52224,22.58368 77.68576,23.4944 79.0656,23.52 C77.7408,24.55872 76.07168,25.02272 74.4,24.8256 C75.79456,25.71968 77.45152,26.24128 79.23072,26.24128 C85.0816,26.24128 88.3872,21.29984 88.18752,16.86784 C88.8032,16.42304 89.3376,15.86816 89.76,15.23648 Z" id="Shape"></path>
            </g>
        </g>
    </g>
</svg>