<?xml version="1.0" encoding="UTF-8"?>
<svg width="49px" height="49px" viewBox="0 0 49 49" version="1.1" xmlns="http://www.w3.org/2000/svg" xmlns:xlink="http://www.w3.org/1999/xlink">
    <!-- Generator: Sketch 47.1 (45422) - http://www.bohemiancoding.com/sketch -->
    <title>Twitter Copy 2_Color</title>
    <desc>Created with Sketch.</desc>
    <defs></defs>
    <g id="my" stroke="none" stroke-width="1" fill="none" fill-rule="evenodd">
        <g id="01-Главная" transform="translate(-158.000000, -4534.000000)">
            <g id="Footer" transform="translate(0.000000, 4494.000000)">
                <g id="Group-5" transform="translate(40.000000, 40.000000)">
                    <g id="Group-4">
                        <g id="Social-Copy">
                            <g id="Twitter-Copy-2" transform="translate(118.000000, 0.000000)">
                                <path d="M0,24.5 C0,10.969023 10.969023,0 24.5,0 C38.030977,0 49,10.969023 49,24.5 C49,38.030977 38.030977,49 24.5,49 C10.969023,49 0,38.030977 0,24.5 Z" id="back" fill="#F7F6F2"></path>
                                <path d="M24.2255842,21.2562505 L24.2667698,21.9482956 L23.5803424,21.8635554 C21.0817467,21.5387179 18.8989076,20.4370951 17.0455536,18.5869336 L16.1394695,17.6689146 L15.9060842,18.3468363 C15.4118564,19.8580369 15.727613,21.4539777 16.7572541,22.5273538 C17.306396,23.1205353 17.1828391,23.2052756 16.2355693,22.8521913 C15.9060842,22.7392044 15.6177847,22.6544641 15.5903276,22.6968342 C15.4942277,22.7956978 15.8237129,24.0809245 16.0845553,24.5893658 C16.4414975,25.2955343 17.1691106,25.9875794 17.9653663,26.3971571 L18.6380652,26.7219946 L17.8418094,26.736118 C17.0730107,26.736118 17.0455536,26.7502414 17.1279249,27.0468321 C17.4024959,27.9648512 18.4870512,28.9393637 19.6951634,29.3630648 L20.5463333,29.6596556 L19.8049918,30.1116034 C18.7067079,30.7612784 17.4162244,31.128486 16.1257409,31.1567328 C15.5079563,31.1708561 15,31.2273496 15,31.2697197 C15,31.4109534 16.6748828,32.2018621 17.6496097,32.5125763 C20.5737904,33.4305953 24.0471131,33.0351409 26.6555371,31.4674469 C28.5088911,30.3517007 30.3622451,28.1343316 31.2271436,25.9875794 C31.6939142,24.8435865 32.1606848,22.7533277 32.1606848,21.7505685 C32.1606848,21.1008935 32.2018705,21.0161532 32.9706692,20.2393679 C33.4237112,19.7874201 33.8492962,19.2931021 33.9316675,19.1518684 C34.068953,18.8835244 34.0552245,18.8835244 33.3550685,19.1236217 C32.1881419,19.5473228 32.0233994,19.4908293 32.5999984,18.8552777 C33.0255834,18.4033298 33.5335396,17.5841744 33.5335396,17.3440771 C33.5335396,17.301707 33.3276114,17.3723238 33.0942261,17.4994342 C32.8471122,17.6406678 32.2979703,17.8525184 31.8861139,17.9796287 L31.1447723,18.219726 L30.4720735,17.7536548 C30.1014027,17.4994342 29.5797178,17.2169668 29.3051469,17.1322265 C28.6049909,16.9344994 27.5341642,16.9627461 26.902651,17.18872 C25.1865825,17.8242717 24.1020272,19.4625826 24.2255842,21.2562505 Z" id="Shape" fill="#7F7873" opacity="0.5"></path>
                            </g>
                        </g>
                    </g>
                </g>
            </g>
        </g>
    </g>
</svg>