<?xml version="1.0" encoding="UTF-8"?>
<svg width="14px" height="18px" viewBox="0 0 14 18" version="1.1" xmlns="http://www.w3.org/2000/svg" xmlns:xlink="http://www.w3.org/1999/xlink">
    <!-- Generator: Sketch 47.1 (45422) - http://www.bohemiancoding.com/sketch -->
    <title>Group 19</title>
    <desc>Created with Sketch.</desc>
    <defs></defs>
    <g id="my" stroke="none" stroke-width="1" fill="none" fill-rule="evenodd">
        <g id="01-Главная" transform="translate(-1071.000000, -12.000000)" fill-rule="nonzero">
            <g id="Header">
                <g id="Group-23" transform="translate(0.000000, 1.000000)">
                    <g id="Group-3" transform="translate(1071.000000, 10.000000)">
                        <g id="Group-19" transform="translate(0.000000, 1.000000)">
                            <path d="M7.00069835,7.62695158 L6.99999991,7.62695122 C8.44416296,7.62695102 9.7424594,6.78351615 10.290787,5.49615019 C10.8362775,4.21544514 10.5345259,2.74226385 9.52262483,1.75909375 C8.50349513,0.768900227 6.96560344,0.472039644 5.63057586,1.01022026 C4.30206209,1.54577501 3.44036787,2.80071148 3.44112812,4.18718329 C3.4442424,6.08203877 5.03220572,7.624915 7.00069835,7.62695158 Z" id="Shape" stroke="#231F20" stroke-width="1.35"></path>
                            <path d="M13.8893548,15.7565854 C13.7937046,12.1257396 10.7384387,9.23072685 7.00225806,9.23072685 C3.26607745,9.23072685 0.210811553,12.1257396 0.11516129,15.7565854 L0.11516129,17.9121951 L13.8893548,17.9121951 L13.8893548,15.7565854 Z M12.5345161,16.5973171 L1.47,16.5973171 L1.47,15.7565854 C1.55554716,12.8461923 4.00719087,10.5300157 7.00225806,10.5300157 C9.99732525,10.5300157 12.448969,12.8461923 12.5345161,15.7565854 L12.5345161,16.5973171 Z" id="Shape" fill="#231F20"></path>
                        </g>
                    </g>
                </g>
            </g>
        </g>
    </g>
</svg>