<?xml version="1.0" encoding="UTF-8"?>
<svg width="41px" height="14px" viewBox="0 0 41 14" version="1.1" xmlns="http://www.w3.org/2000/svg" xmlns:xlink="http://www.w3.org/1999/xlink">
    <!-- Generator: sketchtool 48.2 (47327) - http://www.bohemiancoding.com/sketch -->
    <title>35E4509D-851F-4D4B-815D-989F79CB4755</title>
    <desc>Created with sketchtool.</desc>
    <defs></defs>
    <g id="01-Главная" stroke="none" stroke-width="1" fill="none" fill-rule="evenodd" transform="translate(-370.000000, -4789.000000)" opacity="0.5">
        <g id="Footer" transform="translate(0.000000, 4494.000000)" fill="#7F7873">
            <g id="Group-5" transform="translate(40.000000, 40.000000)">
                <g id="Group-11" transform="translate(0.000000, 249.000000)">
                    <g id="Payments" transform="translate(330.000000, 0.000000)">
                        <path d="M38.0059794,6.96062838 L40.5,19.9145803 L37.5071753,19.9145803 L37.0915052,17.9544428 L32.9348041,17.9544428 L32.269732,19.9145803 L28.8612371,19.9145803 L33.7661443,7.89808542 C34.0155464,7.30152185 34.5143505,6.96062838 35.1794227,6.96062838 L38.0059794,6.96062838 Z M34.0155464,15.3125184 L36.7589691,15.3125184 L35.7613608,10.4547865 L34.0155464,15.3125184 Z M16.9730722,6.96062838 L20.215299,6.96062838 L17.5550103,19.9145803 L14.2296495,19.9145803 L16.9730722,6.96062838 Z M12.151299,6.96062838 L12.151299,6.87540501 L15.5597938,6.87540501 L10.2392165,19.8293569 L6.74758763,19.8293569 L4.17043299,9.51732941 C4.00416495,8.92076583 3.92103093,8.66509573 3.4222268,8.40942563 C2.5908866,7.98330879 1.34387629,7.55719195 0.18,7.30152185 L0.263134021,6.96062838 L5.8331134,6.96062838 C6.49818557,6.96062838 7.16325773,7.38674521 7.32952577,8.23897889 L8.74280412,15.7386352 L12.151299,6.96062838 Z M24.538268,10.5400098 C24.455134,12.0740304 29.1106392,12.3297005 29.1106392,15.5681885 C29.1106392,18.2953363 26.8660206,19.9998036 23.4575258,19.9998036 C21.9611134,19.9998036 20.5478351,19.6589102 19.7996289,19.3180167 L20.381567,16.5056456 C21.1297732,16.9317624 22.0442474,17.3578792 23.7069278,17.3578792 C24.7045361,17.3578792 25.7021443,16.9317624 25.7021443,16.0795287 C25.7021443,15.4829651 25.2864742,15.0568483 24.0394639,14.4602847 C22.8755876,13.8637212 21.2129072,12.8410407 21.2129072,10.9661267 C21.2129072,8.49464899 23.4575258,6.70495827 26.6997526,6.70495827 C27.9467629,6.70495827 29.0275052,7.04585174 29.7757113,7.30152185 L29.1937732,10.0286696 C27.6973608,9.34688267 26.4503505,9.34688267 25.9515464,9.43210604 C24.9539381,9.60255277 24.538268,10.113893 24.538268,10.5400098 Z" id="Visa"></path>
                    </g>
                </g>
            </g>
        </g>
    </g>
</svg>