<?xml version="1.0" encoding="UTF-8"?>
<svg width="17px" height="11px" viewBox="0 0 17 11" version="1.1" xmlns="http://www.w3.org/2000/svg" xmlns:xlink="http://www.w3.org/1999/xlink">
    <!-- Generator: Sketch 47.1 (45422) - http://www.bohemiancoding.com/sketch -->
    <title>VK Copy 9_Color</title>
    <desc>Created with Sketch.</desc>
    <defs></defs>
    <g stroke="none" stroke-width="1" fill="none" fill-rule="evenodd" opacity="0.5">
        <g transform="translate(-1100.000000, -80.000000)" fill="#7F7873">
            <g>
                <g transform="translate(1100.000000, 75.000000)">
                    <g transform="translate(0.000000, 5.600000)">
                        <path d="M9.22389721,9.55987507 C9.22389721,9.55987507 9.52710032,9.52613095 9.68239947,9.35905641 C9.8245516,9.20597333 9.81962147,8.91709076 9.81962147,8.91709076 C9.81962147,8.91709076 9.80072263,7.56814904 10.4260277,7.36897644 C11.0422941,7.17309595 11.8335803,8.67347468 12.6733461,9.25041681 C13.3076897,9.68662127 13.7891992,9.5911501 13.7891992,9.5911501 L16.0332309,9.55987507 C16.0332309,9.55987507 17.2066022,9.48744866 16.650319,8.56318903 C16.6043045,8.48747052 16.325752,7.87925336 14.9822911,6.62989794 C13.5747385,5.32210759 13.7637269,5.5336256 15.4580488,3.27112361 C16.4900898,1.89337594 16.9025774,1.05224205 16.7735723,0.692579132 C16.6511407,0.348553728 15.8919004,0.439909757 15.8919004,0.439909757 L13.3660296,0.455547275 C13.3660296,0.455547275 13.1786846,0.430033429 13.0398192,0.513159185 C12.9042406,0.594638886 12.8163199,0.784758188 12.8163199,0.784758188 C12.8163199,0.784758188 12.4169792,1.85057852 11.8837033,2.75755458 C10.7588116,4.67026998 10.3093479,4.77150234 10.1252896,4.65298641 C9.69718986,4.37562622 9.80400938,3.54025353 9.80400938,2.94685086 C9.80400938,1.09257039 10.0850269,0.319747773 9.25758645,0.119752144 C8.98314244,0.0530869342 8.78100704,0.00946648827 8.07846326,0.00205924273 C7.17707084,-0.00699405737 6.41454379,0.00535135186 5.98233557,0.216869363 C5.69474455,0.357607028 5.47288862,0.67200345 5.60846725,0.69011005 C5.77527004,0.712331787 6.15324681,0.792165433 6.35373883,1.06541049 C6.61257075,1.41848919 6.60353218,2.21024144 6.60353218,2.21024144 C6.60353218,2.21024144 6.75225782,4.39290979 6.25595789,4.66368577 C5.91577879,4.84968993 5.44905965,4.47027436 4.44577784,2.73450982 C3.93222244,1.84564035 3.54438541,0.862945779 3.54438541,0.862945779 C3.54438541,0.862945779 3.46961175,0.679410696 3.3356765,0.580647422 C3.17380384,0.461308466 2.94783947,0.424272238 2.94783947,0.424272238 L0.547686982,0.439909757 C0.547686982,0.439909757 0.186965674,0.449786084 0.0546738049,0.606984295 C-0.062827669,0.746075905 0.04563523,1.03495848 0.04563523,1.03495848 C0.04563523,1.03495848 1.92483712,5.43897747 4.05301067,7.65868204 C6.00452116,9.69320549 8.21979371,9.55987507 8.21979371,9.55987507 L9.22389721,9.55987507 Z"></path>
                    </g>
                </g>
            </g>
        </g>
    </g>
</svg>