<?xml version="1.0" encoding="UTF-8"?>
<svg width="49px" height="49px" viewBox="0 0 49 49" version="1.1" xmlns="http://www.w3.org/2000/svg" xmlns:xlink="http://www.w3.org/1999/xlink">
    <!-- Generator: Sketch 47.1 (45422) - http://www.bohemiancoding.com/sketch -->
    <title>VK Copy 2_Color</title>
    <desc>Created with Sketch.</desc>
    <defs></defs>
    <g id="my" stroke="none" stroke-width="1" fill="none" fill-rule="evenodd">
        <g id="01-Главная" transform="translate(-40.000000, -4534.000000)">
            <g id="Footer" transform="translate(0.000000, 4494.000000)">
                <g id="Group-5" transform="translate(40.000000, 40.000000)">
                    <g id="Group-4">
                        <g id="Social-Copy">
                            <g id="VK-Copy-2">
                                <path d="M0,24.5 C0,10.969023 10.969023,0 24.5,0 C38.030977,0 49,10.969023 49,24.5 C49,38.030977 38.030977,49 24.5,49 C10.969023,49 0,38.030977 0,24.5 Z" id="back" fill="#F7F6F2"></path>
                                <path d="M25.5298715,30.9498438 C25.5298715,30.9498438 25.9088754,30.9076637 26.1029993,30.6988205 C26.2806895,30.5074667 26.2745268,30.1463634 26.2745268,30.1463634 C26.2745268,30.1463634 26.2509033,28.4601863 27.0325346,28.2112206 C27.8028677,27.9663699 28.7919754,29.8418434 29.8416826,30.563021 C30.6346121,31.1082766 31.236499,30.9889376 31.236499,30.9889376 L34.0415386,30.9498438 C34.0415386,30.9498438 35.5082528,30.8593108 34.8128988,29.7039863 C34.7553806,29.6093381 34.40719,28.8490667 32.7278639,27.2873724 C30.9684231,25.6526345 31.2046586,25.917032 33.322561,23.0889045 C34.6126122,21.3667199 35.1282218,20.3153026 34.9669654,19.8657239 C34.8139259,19.4356922 33.8648755,19.5498872 33.8648755,19.5498872 L30.707537,19.5694341 C30.707537,19.5694341 30.4733557,19.5375418 30.299774,19.641449 C30.1303007,19.7432986 30.0203999,19.9809477 30.0203999,19.9809477 C30.0203999,19.9809477 29.521224,21.3132231 28.8546291,22.4469432 C27.4485145,24.8378375 26.8866849,24.9643779 26.656612,24.816233 C26.1214873,24.4695328 26.2550117,23.4253169 26.2550117,22.6835636 C26.2550117,20.365713 26.6062836,19.3996847 25.5719831,19.1496902 C25.2289281,19.0663587 24.9762588,19.0118331 24.0980791,19.0025741 C22.9713385,18.9912574 22.0181797,19.0066892 21.4779195,19.2710867 C21.1184307,19.4470088 20.8411108,19.8400043 21.0105841,19.8626376 C21.2190875,19.8904147 21.6915585,19.9902068 21.9421735,20.3317631 C22.2657134,20.7731115 22.2544152,21.7628018 22.2544152,21.7628018 C22.2544152,21.7628018 22.4403223,24.4911372 21.8199474,24.8296072 C21.3947235,25.0621124 20.8113246,24.5878429 19.5572223,22.4181373 C18.9152781,21.3070504 18.4304818,20.0786822 18.4304818,20.0786822 C18.4304818,20.0786822 18.3370147,19.8492634 18.1695956,19.7258093 C17.9672548,19.5766356 17.6847993,19.5303403 17.6847993,19.5303403 L14.6846087,19.5498872 C14.6846087,19.5498872 14.2337071,19.5622326 14.0683423,19.7587304 C13.9214654,19.9325949 14.057044,20.2936981 14.057044,20.2936981 C14.057044,20.2936981 16.4060464,25.7987218 19.0662633,28.5733526 C21.5056515,31.1165069 24.2747421,30.9498438 24.2747421,30.9498438 L25.5298715,30.9498438 Z" id="Shape" fill="#7F7873" opacity="0.5"></path>
                            </g>
                        </g>
                    </g>
                </g>
            </g>
        </g>
    </g>
</svg>