<?xml version="1.0" encoding="UTF-8"?>
<svg width="23px" height="14px" viewBox="0 0 23 14" version="1.1" xmlns="http://www.w3.org/2000/svg" xmlns:xlink="http://www.w3.org/1999/xlink">
    <!-- Generator: Sketch 48.2 (47327) - http://www.bohemiancoding.com/sketch -->
    <title>Shape</title>
    <desc>Created with Sketch.</desc>
    <defs></defs>
    <g id="05-Подборка" stroke="none" stroke-width="1" fill="none" fill-rule="evenodd" transform="translate(-821.000000, -196.000000)">
        <g id="Шапка-Copy-2" transform="translate(0.000000, 130.000000)" fill="#4976A8" fill-rule="nonzero">
            <g id="Group-18" transform="translate(781.000000, 53.000000)">
                <path d="M52.214336,26.3945143 C52.779488,26.3945143 53.01056,26.0233143 53.004064,25.5579429 C52.975296,23.8052571 53.666656,22.8617143 54.914816,24.0914286 C56.29568,25.4518857 56.581504,26.3945143 58.2584,26.3945143 L61.228,26.3945143 C61.977824,26.3945143 62.272928,26.1568 62.272928,25.7837714 C62.272928,24.9947429 60.95424,23.6022857 59.836928,22.5801143 C58.27232,21.1492571 58.199008,21.1154286 59.546464,19.3929143 C61.217792,17.2544 63.40416,14.5142857 61.470208,14.5142857 L57.77584,14.5142857 C57.059424,14.5142857 57.007456,14.912 56.752256,15.5044571 C55.828896,17.6502857 54.074048,20.4297143 53.407744,20.0045714 C52.710816,19.5611429 53.030048,17.8048 53.082944,15.1945143 C53.096864,14.5051429 53.093152,14.0324571 52.024096,13.7874286 C51.440384,13.6548571 50.872448,13.6 50.345344,13.6 C48.236,13.6 46.780896,14.4713143 47.607744,14.6230857 C49.065632,14.8909714 48.925504,17.9986286 48.585856,19.3408 C47.993792,21.6777143 45.768448,17.4902857 44.841376,15.4048 C44.617728,14.9037714 44.549056,14.5142857 43.750976,14.5142857 L40.730336,14.5142857 C40.27376,14.5142857 40,14.6605714 40,14.9860571 C40,15.5364571 42.74688,21.1300571 45.369408,23.9186286 C47.926976,26.6386286 50.454848,26.3945143 52.214336,26.3945143 Z" id="Shape"></path>
            </g>
        </g>
    </g>
</svg>