<?xml version="1.0" encoding="UTF-8"?>
<svg width="16px" height="20px" viewBox="0 0 16 20" version="1.1" xmlns="http://www.w3.org/2000/svg" xmlns:xlink="http://www.w3.org/1999/xlink">
    <!-- Generator: Sketch 47.1 (45422) - http://www.bohemiancoding.com/sketch -->
    <title>Group Copy 3</title>
    <desc>Created with Sketch.</desc>
    <defs></defs>
    <g id="my" stroke="none" stroke-width="1" fill="none" fill-rule="evenodd">
        <g id="01-Главная" transform="translate(-1158.000000, -11.000000)" fill-rule="nonzero" fill="#231F20">
            <g id="Header">
                <g id="Group-23" transform="translate(0.000000, 1.000000)">
                    <g id="Group-3" transform="translate(1071.000000, 10.000000)">
                        <g id="Group-Copy-3" transform="translate(87.000000, 0.000000)">
                            <path d="M15.993985,16.9088507 L15.3709061,6.26155878 C15.3189829,5.57463672 14.7478272,5.01981506 14.072825,5.01981506 L11.9699337,5.01981506 L11.9699337,4.14795244 C11.9699337,1.87582563 10.1526203,0 7.89395921,0 C5.63529817,0 3.81798469,1.84940555 3.81798469,4.14795244 L3.81798469,5.01981506 L1.71509337,5.01981506 C1.0141296,5.01981506 0.442973937,5.57463672 0.417012316,6.28797886 L0.00162637704,16.9616909 C-0.0243352441,17.7542933 0.261242589,18.5204756 0.806436633,19.1017173 C1.35163068,19.682959 2.07855607,20 2.8574047,20 L13.1122451,20 C13.8910937,20 14.6439807,19.656539 15.1891748,19.0752972 C15.7603304,18.4940555 16.0459083,17.7014531 15.993985,16.9088507 Z M5.40164358,4.12153236 C5.40164358,2.72126816 6.51799329,1.55878468 7.91992083,1.55878468 C9.32184837,1.55878468 10.4381981,2.69484808 10.4381981,4.12153236 L10.4381981,4.99339498 L5.40164358,4.99339498 L5.40164358,4.12153236 Z M14.0987867,17.992074 C13.8391705,18.2562748 13.527631,18.4147952 13.1641683,18.4147952 L2.88336633,18.4147952 C2.51990363,18.4147952 2.18240255,18.2826948 1.94874796,18.0184941 C1.68913175,17.7542933 1.58528527,17.4108322 1.58528527,17.0409511 L2.00067121,6.60501982 L3.84394631,6.60501982 L3.84394631,10.9114927 L5.40164358,10.9114927 L5.40164358,6.60501982 L10.4122365,6.60501982 L10.4122365,10.9114927 L11.9699337,10.9114927 L11.9699337,6.60501982 L13.8391705,6.60501982 L14.4362877,17.014531 C14.4622494,17.3579921 14.3584029,17.7278732 14.0987867,17.992074 Z" id="Shape"></path>
                        </g>
                    </g>
                </g>
            </g>
        </g>
    </g>
</svg>