<?xml version="1.0" encoding="UTF-8"?>
<svg width="60px" height="42px" viewBox="0 0 60 42" version="1.1" xmlns="http://www.w3.org/2000/svg" xmlns:xlink="http://www.w3.org/1999/xlink">
    <!-- Generator: Sketch 47.1 (45422) - http://www.bohemiancoding.com/sketch -->
    <title>Shape</title>
    <desc>Created with Sketch.</desc>
    <defs></defs>
    <g id="my" stroke="none" stroke-width="1" fill="none" fill-rule="evenodd">
        <g id="10-Доставка_full" transform="translate(-969.000000, -349.000000)" fill-rule="nonzero" fill="#F7F6F5">
            <g id="Group-Copy-2" transform="translate(837.000000, 300.000000)">
                <path d="M172.887688,81.4073852 C172.887688,83.7460222 174.793833,85.6409487 177.146458,85.6409487 C178.132458,85.6409487 179.028438,85.2951066 179.750417,84.7367157 C180.472396,85.2951066 181.368979,85.6409487 182.354375,85.6409487 C184.707604,85.6409487 186.614354,83.7460222 186.614354,81.4073852 C186.614354,79.0693485 184.707604,77.1732213 182.354375,77.1732213 C181.368979,77.1732213 180.473,77.5190633 179.750417,78.0780546 C179.029042,77.5190633 178.132458,77.1732213 177.146458,77.1732213 C174.794438,77.1738217 172.887688,79.069949 172.887688,81.4073852 M159.065562,83.0069048 C159.065562,83.5262684 159.489083,83.9483639 160.012292,83.9483639 L164.556229,83.9483639 C165.078833,83.9483639 165.502958,83.5262684 165.502958,83.0069048 C165.502958,82.4875413 165.078833,82.0660462 164.556229,82.0660462 L160.012292,82.0660462 C159.489083,82.0654458 159.065562,82.4869409 159.065562,83.0069048 M147.704813,83.0069048 C147.704813,83.5262684 148.128938,83.9483639 148.651542,83.9483639 L156.319021,83.9483639 C156.842229,83.9483639 157.266354,83.5262684 157.266354,83.0069048 C157.266354,82.4875413 156.842229,82.0660462 156.319021,82.0660462 L148.651542,82.0660462 C148.128938,82.0654458 147.704813,82.4869409 147.704813,83.0069048 M137.859313,83.0069048 C137.859313,83.5262684 138.283438,83.9483639 138.806646,83.9483639 L144.958875,83.9483639 C145.482083,83.9483639 145.905604,83.5262684 145.905604,83.0069048 C145.905604,82.4875413 145.482083,82.0660462 144.958875,82.0660462 L138.806646,82.0660462 C138.283438,82.0654458 137.859313,82.4869409 137.859313,83.0069048 M189.804354,55.4434104 L189.804354,58.9372561 L134.195042,58.9372561 L134.195042,55.4434104 C134.195042,51.2578805 138.303979,51.1888322 138.477375,51.1870309 L185.522625,51.1870309 C189.733667,51.1870309 189.80375,55.2710898 189.804354,55.4434104 M134.195042,84.5565896 L134.195042,65.9939958 L189.804354,65.9939958 L189.804354,84.5565896 C189.804354,88.7421195 185.695417,88.8111678 185.519604,88.8123687 L138.477375,88.8123687 C134.266333,88.8117682 134.19625,84.7289102 134.195042,84.5565896 M192,54.7155809 C192,52.7378865 190.795885,49 186.239312,49 L137.760687,49 C135.768021,49 132,50.1946863 132,54.7155809 L132,85.2837887 C132,87.261483 133.204115,91 137.760687,91 L186.239312,91 C188.230708,91 192,89.8053137 192,85.2844191 L192,54.7155809 Z" id="Shape"></path>
            </g>
        </g>
    </g>
</svg>