<?xml version="1.0" encoding="UTF-8"?>
<svg width="15px" height="20px" viewBox="0 0 15 20" version="1.1" xmlns="http://www.w3.org/2000/svg" xmlns:xlink="http://www.w3.org/1999/xlink">
    <!-- Generator: Sketch 47.1 (45422) - http://www.bohemiancoding.com/sketch -->
    <title>Group</title>
    <desc>Created with Sketch.</desc>
    <defs></defs>
    <g id="my" stroke="none" stroke-width="1" fill="none" fill-rule="evenodd">
        <g id="15-О-проекте---Вакансии" transform="translate(-661.000000, -583.000000)" fill="#FFFFFF">
            <g id="Group-10" transform="translate(500.000000, 352.000000)">
                <g id="Время-доставки-Copy-8" transform="translate(141.000000, 218.000000)">
                    <g id="Select">
                        <g id="Group" transform="translate(20.000000, 13.000000)">
                            <path d="M0.301654412,1.10163043 L0.301654412,19.0070652 C0.301654412,19.4652174 0.678860294,19.8369565 1.14375,19.8369565 L8.50533088,19.8369565 L14.8086397,13.625 L14.8086397,1.10163043 C14.8086397,0.643478261 14.4314338,0.27173913 13.9665441,0.27173913 L1.14375,0.27173913 C0.678860294,0.27173913 0.301654412,0.643478261 0.301654412,1.10163043 Z" id="path26" opacity="0.5" transform="translate(7.555147, 10.054348) scale(-1, 1) rotate(-180.000000) translate(-7.555147, -10.054348) "></path>
                            <path d="M8.50533088,6.48369565 L14.8086397,0.27173913 L9.34742647,0.27173913 C8.88253676,0.27173913 8.50533088,0.643478261 8.50533088,1.10163043 L8.50533088,6.48369565 Z" id="path32" opacity="0.669999957" transform="translate(11.656985, 3.377717) scale(-1, 1) rotate(-180.000000) translate(-11.656985, -3.377717) "></path>
                        </g>
                    </g>
                </g>
            </g>
        </g>
    </g>
</svg>