<?xml version="1.0" encoding="UTF-8"?>
<svg width="14px" height="20px" viewBox="0 0 14 20" version="1.1" xmlns="http://www.w3.org/2000/svg" xmlns:xlink="http://www.w3.org/1999/xlink">
    <!-- Generator: Sketch 47.1 (45422) - http://www.bohemiancoding.com/sketch -->
    <title>Icon</title>
    <desc>Created with Sketch.</desc>
    <defs></defs>
    <g id="my" stroke="none" stroke-width="1" fill="none" fill-rule="evenodd">
        <g id="01-Главная" transform="translate(-40.000000, -11.000000)" fill="#7F7873">
            <g id="Header">
                <g id="Group-23" transform="translate(0.000000, 1.000000)">
                    <g id="Location" transform="translate(40.000000, 10.000000)">
                        <g id="Icon">
                            <path d="M6.97950156,0.641691974 C3.46816199,0.641691974 0.611028037,3.48329718 0.611028037,6.97657267 C0.611028037,10.6182213 5.78797508,17.6251627 6.97819315,19.1878525 C8.16579439,17.6143167 13.3475389,10.543167 13.3475389,6.97657267 C13.3475389,3.48329718 10.4908411,0.641691974 6.97950156,0.641691974 Z M6.97950156,19.9921909 C6.88573209,19.9921909 6.79719626,19.9492408 6.73919003,19.8759219 C6.72261682,19.8546638 5.04174455,17.7167028 3.38398754,15.0863341 C1.13875389,11.5240781 0.000436137072,8.79566161 0.000436137072,6.97657267 C0.000436137072,3.1483731 3.13146417,0.0343167028 6.97950156,0.0343167028 C10.8275389,0.0343167028 13.9581308,3.1483731 13.9581308,6.97657267 C13.9581308,8.75921909 12.8202492,11.4767896 10.5750156,15.0533623 C8.9176947,17.6937093 7.23725857,19.8533623 7.22068536,19.8746204 C7.16311526,19.9488069 7.0741433,19.9921909 6.98037383,19.9921909 C6.97993769,19.9921909 6.97950156,19.9921909 6.97950156,19.9921909 L6.97950156,19.9921909 Z" id="Fill-52"></path>
                            <path d="M6.97950156,3.62863341 C5.12373832,3.62863341 3.61383178,5.13058568 3.61383178,6.97657267 C3.61383178,8.82212581 5.12373832,10.3240781 6.97950156,10.3240781 C8.8352648,10.3240781 10.3447352,8.82212581 10.3447352,6.97657267 C10.3447352,5.13058568 8.8352648,3.62863341 6.97950156,3.62863341 Z M6.97950156,10.9314534 C4.7870405,10.9314534 3.00323988,9.15704989 3.00323988,6.97657267 C3.00323988,4.79566161 4.7870405,3.02125813 6.97950156,3.02125813 C9.17196262,3.02125813 10.9553271,4.79566161 10.9553271,6.97657267 C10.9553271,9.15704989 9.17196262,10.9314534 6.97950156,10.9314534 L6.97950156,10.9314534 Z" id="Fill-53"></path>
                        </g>
                    </g>
                </g>
            </g>
        </g>
    </g>
</svg>