<?xml version="1.0" encoding="UTF-8"?>
<svg width="123px" height="52px" viewBox="0 0 123 52" version="1.1" xmlns="http://www.w3.org/2000/svg" xmlns:xlink="http://www.w3.org/1999/xlink">
    <!-- Generator: Sketch 47.1 (45422) - http://www.bohemiancoding.com/sketch -->
    <title>Logo</title>
    <desc>Created with Sketch.</desc>
    <defs></defs>
    <g id="my" stroke="none" stroke-width="1" fill="none" fill-rule="evenodd">
        <g id="01-Главная" transform="translate(-579.000000, -58.000000)" fill="#1D1D1B">
            <g id="Header">
                <g id="Logo" transform="translate(579.000000, 58.000000)">
                    <g id="Group-18">
                        <path d="M9.63212286,14.996852 C8.20759429,15.535832 6.36622898,16.130192 4.76592694,15.9360587 C4.47659837,15.9002653 4.21517592,16.1038453 4.17981061,16.3885453 C4.14453306,16.673332 4.34952898,16.9323787 4.63798,16.967392 C4.8924698,16.9982453 5.15003102,17.0122853 5.40952286,17.0122853 C7.01640653,17.0122853 8.68392898,16.4682787 10.0085922,15.967172 C10.279931,15.8645587 10.4155127,15.5640853 10.3116106,15.296112 C10.2077086,15.028312 9.90433918,14.893632 9.63212286,14.996852" id="Fill-48"></path>
                        <path d="M16.6885282,41.2440253 L21.2044057,41.2440253 C21.8016669,43.4753453 22.7201118,45.282692 23.8423241,46.437872 C20.8341669,45.681532 18.2833894,43.7850053 16.6885282,41.2440253 L16.6885282,41.2440253 Z M23.8423241,23.7579853 C22.7024731,24.931192 21.7734098,26.777972 21.1770261,29.057652 L16.6211322,29.057652 C18.2110792,26.463112 20.7921322,24.524812 23.8423241,23.7579853 L23.8423241,23.7579853 Z M36.9067771,29.057652 L32.3507078,29.057652 C31.7543241,26.777972 30.8252608,24.931192 29.6854098,23.7578987 C32.7356016,24.524812 35.3168302,26.463112 36.9067771,29.057652 L36.9067771,29.057652 Z M29.6854098,46.437872 C30.807622,45.282692 31.7260669,43.4753453 32.3233282,41.2440253 L36.839469,41.2440253 C35.24452,43.7850053 32.6935669,45.681532 29.6854098,46.437872 L29.6854098,46.437872 Z M26.2376873,41.2440253 L26.2376873,46.7375653 C24.6030731,46.357792 23.1630996,44.2331587 22.3109976,41.2440253 L26.2376873,41.2440253 Z M21.5037384,35.6172787 L26.2376873,35.6172787 L26.2376873,40.2049787 L22.0463282,40.2049787 C21.729971,38.8004587 21.5376118,37.2462653 21.5037384,35.6172787 L21.5037384,35.6172787 Z M26.2376873,30.096612 L26.2376873,34.578232 L21.5037384,34.578232 C21.536822,32.990412 21.7197914,31.4729653 22.02202,30.096612 L26.2376873,30.096612 Z M26.2376873,23.4582053 L26.2376873,29.057652 L22.2801078,29.057652 C23.1280853,26.012272 24.5835914,23.8424853 26.2376873,23.4582053 L26.2376873,23.4582053 Z M27.2900465,29.057652 L27.2900465,23.4582053 C28.9441424,23.8424853 30.3996486,26.012272 31.2476261,29.057652 L27.2900465,29.057652 Z M32.0239955,34.578232 L27.2900465,34.578232 L27.2900465,30.096612 L31.5057139,30.096612 C31.8079424,31.4729653 31.9909118,32.990412 32.0239955,34.578232 L32.0239955,34.578232 Z M31.2166486,41.2440253 C30.3646343,44.2331587 28.9246608,46.357792 27.2900465,46.7375653 L27.2900465,41.2440253 L31.2166486,41.2440253 Z M27.2900465,40.2049787 L27.2900465,35.6172787 L32.0239955,35.6172787 C31.9900343,37.2462653 31.7977629,38.8004587 31.4814057,40.2049787 L27.2900465,40.2049787 Z M37.421022,40.2049787 L32.5707976,40.2049787 C32.8686384,38.7970787 33.0452016,37.2513787 33.0761792,35.6172787 L38.5979057,35.6172787 C38.525069,37.2557987 38.1102506,38.8077387 37.421022,40.2049787 L37.421022,40.2049787 Z M37.471218,30.0948787 C38.1300833,31.4649053 38.5268241,32.980272 38.5979057,34.578232 L33.0761792,34.578232 C33.0459037,32.985472 32.8784669,31.475652 32.5941404,30.096612 L37.4533159,30.096612 C37.4594588,30.096612 37.4650751,30.095052 37.471218,30.0948787 L37.471218,30.0948787 Z M16.0559894,30.096612 L20.9336812,30.096612 C20.6492669,31.475652 20.4817424,32.985472 20.4514669,34.578232 L14.9300914,34.578232 C15.0011731,32.9809653 15.3975629,31.4662053 16.0559894,30.096612 L16.0559894,30.096612 Z M14.9300914,35.6172787 L20.4514669,35.6172787 C20.4825322,37.2513787 20.6590955,38.7970787 20.9569363,40.2049787 L16.1069751,40.2049787 C15.4177465,38.8077387 15.0030159,37.2557987 14.9300914,35.6172787 L14.9300914,35.6172787 Z M39.6636914,35.097712 C39.6636914,28.073032 33.876769,22.3580587 26.7638669,22.3580587 C19.6512282,22.3580587 13.8644812,28.073032 13.8644812,35.097712 C13.8644812,42.122652 19.6512282,47.837712 26.7638669,47.837712 C33.876769,47.837712 39.6636914,42.122652 39.6636914,35.097712 L39.6636914,35.097712 Z" id="Fill-50"></path>
                        <path d="M42.5947031,39.99333 C42.3216969,39.8999033 42.0209602,40.0422967 41.9250439,40.3133033 C39.682901,46.68027 33.5900643,50.9582233 26.7638582,50.9582233 C24.5543602,50.9582233 22.4113806,50.52073 20.3942418,49.6582233 C20.1271153,49.5438233 19.8176908,49.6654167 19.7024684,49.9285367 C19.5868949,50.19183 19.7096643,50.4977633 19.9761765,50.61173 C22.126001,51.53109 24.409652,51.9971833 26.7638582,51.9971833 C34.037352,51.9971833 40.52965,47.43895 42.9189582,40.6546833 C43.014348,40.3836767 42.8692888,40.0875367 42.5947031,39.99333" id="Fill-52"></path>
                        <path d="M13.8284314,24.0439767 L10.6022029,18.0188233 C10.4762743,17.7835233 10.187209,17.6838567 9.93982735,17.78049 C6.21743143,19.1874367 3.37855388,19.4406767 1.62415388,16.10323 C1.0019702,14.92049 0.883325306,13.5691833 1.29024571,12.2982167 C1.69725388,11.02725 2.58103551,9.98881 3.77845388,9.37451667 C4.29770082,9.10845 4.85336612,8.93494333 5.43053143,8.85867667 C5.57102735,8.84013 5.69792122,8.76637667 5.7826049,8.65405667 C5.86737633,8.54182333 5.90247837,8.40055667 5.88027633,8.26232333 C5.45685796,5.63025667 6.78152122,3.03667 9.17609469,1.80834333 C11.3798008,0.678383333 14.0170171,0.94783 15.9327988,2.44144333 C15.3402763,3.13157 14.9055376,3.95412333 14.6757069,4.83084333 C14.6026947,5.10843667 14.771711,5.39209667 15.0527906,5.46403 C15.0971947,5.47538333 15.1415988,5.48075667 15.1851253,5.48075667 C15.4189927,5.48075667 15.6326763,5.32536333 15.6939294,5.09127667 C15.8930457,4.33329 16.2750437,3.62262333 16.7993804,3.03641 C16.80956,3.02505667 16.8166682,3.01223 16.8257069,3.00027 C16.9575151,2.99021667 17.0812498,2.93336333 17.1715498,2.83699 C17.5672376,2.41440333 18.0310233,2.06531 18.5491294,1.79950333 C19.7475131,1.18503667 21.1157906,1.06786333 22.4024559,1.46999667 C23.6890335,1.87204333 24.7401641,2.74477667 25.3619967,3.92769 C26.4764865,6.04729667 25.9115192,8.65934333 24.0288212,10.13077 C23.3925967,10.6037967 22.7335559,11.0627833 22.0650376,11.51449 C22.0391498,11.52307 22.0133498,11.5318233 21.9883396,11.54465 C21.9231376,11.5781033 21.8682906,11.6233433 21.8245008,11.6761233 C20.6774539,12.44243 19.493111,13.1790967 18.2723498,13.87009 C18.0201416,14.0129167 17.9331763,14.3302033 18.0776212,14.5791967 C18.2220661,14.8278433 18.5435131,14.9143367 18.795458,14.7716833 C19.9076661,14.1421367 20.9922314,13.4758433 22.0480131,12.7824233 L24.9634131,18.3096767 C20.5841702,18.76251 16.6262396,20.8480567 13.8284314,24.0439767 M26.7638845,19.2529567 C28.8748335,19.2529567 30.9302335,19.65379 32.8728682,20.4442767 C33.1421886,20.5542567 33.4493314,20.4271167 33.5596396,20.1617433 C33.670211,19.8965433 33.5422641,19.5928633 33.273558,19.48349 C31.2032396,18.64109 29.0130478,18.21391 26.7638845,18.21391 C26.5437069,18.21391 26.3244947,18.2186767 26.1060722,18.22691 L22.923809,12.19387 C23.516858,11.78827 24.102711,11.3766033 24.6724171,10.95315 C26.9592273,9.16547667 27.641962,6.00942333 26.295711,3.44885667 C25.5443518,2.01955 24.2741845,0.965076667 22.7195151,0.47931 C21.1655478,-0.00619666667 19.5114518,0.13507 18.0645457,0.87737 C17.5927743,1.11925667 17.1588253,1.41817 16.7686661,1.76908333 C14.5181865,-0.104303333 11.3368008,-0.469516667 8.69142327,0.88621 C6.04771306,2.24219667 4.52068653,5.02237667 4.77807224,7.91877667 C4.26330082,8.03161667 3.7659049,8.21032333 3.29369469,8.45238333 C1.84652531,9.19477 0.778896735,10.44927 0.287204898,11.98483 C-0.204662449,13.5205633 -0.0612706122,15.1532767 0.690527347,16.5822367 C2.84359878,20.67793 6.50368857,20.12907 9.88857837,18.9088033 L13.1105069,24.9257233 C11.9992641,26.3825033 11.1122355,28.0334167 10.5124294,29.8401567 C10.4218661,30.1127233 10.5721906,30.40635 10.8483559,30.4956167 C10.9027641,30.51321 10.9580498,30.5217033 11.0123702,30.5217033 C11.2335131,30.5217033 11.4394743,30.38269 11.5120478,30.1638567 C13.6787212,23.63777 19.8080641,19.2529567 26.7638845,19.2529567" id="Fill-54"></path>
                    </g>
                    <g id="Group-20" transform="translate(51.809326, 11.487105)">
                        <path d="M2.40187344,6.80306156 L1.49962531,6.80306156 L1.49962531,1.82136439 L2.40187344,1.82136439 C3.09854288,1.82136439 3.67731057,2.06121464 4.17064946,2.55464226 C4.66473772,3.04844426 4.90491257,3.62660566 4.90491257,4.32232113 C4.90491257,5.01803661 4.66473772,5.5963228 4.17377186,6.08700499 C3.67243963,6.56895175 3.09279767,6.80306156 2.40187344,6.80306156 M2.40187344,13.6722379 L1.49962531,13.6722379 L1.49962531,8.280599 L2.40187344,8.280599 C3.14300583,8.280599 3.78646961,8.54790349 4.31440466,9.07527454 C4.84246461,9.60264559 5.11011657,10.2458236 5.11011657,10.986589 C5.11011657,11.7273544 4.84246461,12.3705324 4.31727727,12.8947837 C3.78209825,13.4107987 3.1377602,13.6722379 2.40187344,13.6722379 M4.75241465,7.5337188 C5.78030808,6.78584027 6.38380516,5.60992512 6.38380516,4.32232113 C6.38380516,3.21803661 5.9878851,2.27361065 5.21128226,1.51924293 C4.45228976,0.739168053 3.50707744,0.343826955 2.40187344,0.343826955 L0.0207327227,0.343826955 L0.0207327227,15.1497754 L2.40187344,15.1497754 C3.55378851,15.1497754 4.54671107,14.7412063 5.35054122,13.9372962 C6.17223147,13.1382529 6.58888426,12.1451581 6.58888426,10.986589 C6.58888426,9.59116473 5.89346378,8.29919301 4.75241465,7.5337188" id="Fill-26"></path>
                        <path d="M10.3749167,7.74657654 C10.3749167,6.03979617 10.9879059,4.56225874 12.1981474,3.35327371 C13.4003955,2.13230865 14.8857827,1.51346506 16.6132182,1.51346506 C18.3406536,1.51346506 19.8260408,2.13230865 21.0299126,3.35452163 C22.2385304,4.56175957 22.8512698,6.039297 22.8512698,7.74657654 C22.8512698,9.47145175 22.2548918,10.9154201 21.0299126,12.1593469 C19.8207952,13.3669592 18.3349084,13.979688 16.6132182,13.979688 C14.8915279,13.979688 13.4056411,13.3669592 12.1981474,12.1607196 C10.9712948,10.9150458 10.3749167,9.47107737 10.3749167,7.74657654 M16.6132182,15.4572255 C18.7454413,15.4572255 20.5806619,14.7036065 22.0679226,13.217708 C23.5691715,11.7175832 24.3305371,9.87702579 24.3305371,7.74657654 C24.3305371,5.62985441 23.5691715,3.79628536 22.0679226,2.29616057 C20.5665487,0.796534942 18.7312032,0.0359276206 16.6132182,0.0359276206 C14.4952331,0.0359276206 12.6598876,0.796534942 11.1582639,2.29616057 C9.65713988,3.79578619 8.89614904,5.62985441 8.89614904,7.74657654 C8.89614904,9.87702579 9.65713988,11.7180824 11.1582639,13.217708 C12.6455246,14.7036065 14.4807452,15.4572255 16.6132182,15.4572255" id="Fill-28"></path>
                        <polygon id="Fill-30" points="34.9618152 15.1497879 29.7332973 7.74700083 34.9830475 0.343839434 33.1965362 0.343839434 28.7584846 6.60515391 28.7584846 0.343839434 27.2800916 0.343839434 27.2800916 15.1497879 28.7584846 15.1497879 28.7584846 8.90918885 33.1761782 15.1497879"></polygon>
                        <path d="M38.8910908,7.52040349 L38.3995004,7.52040349 L38.3995004,1.82140183 L38.8910908,1.82140183 C39.6735637,1.82140183 40.3517485,2.10268303 40.9070358,2.65713394 C41.4618235,3.21183444 41.7434638,3.88945507 41.7434638,4.67090266 C41.7434638,5.45272463 41.4618235,6.13034526 40.9070358,6.68467138 C40.3517485,7.2389975 39.6735637,7.52040349 38.8910908,7.52040349 M43.2226062,4.67090266 C43.2226062,3.49324043 42.7929642,2.46707571 41.9450458,1.61986273 C41.0980017,0.773148918 40.0706078,0.343739601 38.8910908,0.343739601 L36.9211074,0.343739601 L36.9211074,15.1498128 L38.3995004,15.1498128 L38.3995004,8.99794093 L38.8910908,8.99794093 C40.0838468,8.99794093 41.1112406,8.57564476 41.9450458,7.74253328 C42.7929642,6.8953203 43.2226062,5.86216722 43.2226062,4.67090266" id="Fill-32"></path>
                        <path d="M51.8491049,13.2994218 C51.5329933,13.7636481 51.2076395,13.9796631 50.8248335,13.9796631 C50.1130516,13.9796631 49.5118027,13.3789143 49.5118027,12.6682238 L49.5118027,12.0316597 L48.0334097,12.0316597 L48.0334097,12.6682238 C48.0334097,13.440312 48.2955662,14.0887313 48.8416112,14.6564101 C49.4038926,15.1952621 50.0528518,15.4572005 50.8248335,15.4572005 C51.7411948,15.4572005 52.4808285,15.0221755 53.0860741,14.1271672 L62.3738343,0.343764559 L60.5966903,0.343764559 L53.5847835,10.7016265 L45.7509367,0.432990849 L45.683368,0.343764559 L43.8216694,0.343764559 L52.7023938,12.0012105 L51.8491049,13.2994218 Z" id="Fill-34"></path>
                        <polygon id="Fill-36" points="64.2704413 0.343789517 64.2704413 15.1497379 65.7488343 15.1497379 65.7488343 1.82132696 71.1873022 1.82132696 71.1873022 0.343789517"></polygon>
                    </g>
                    <g id="Group-21" transform="translate(51.809326, 32.956323)">
                        <path d="M7.72232723,1.49664309 C9.45425895,1.49664309 10.8989301,2.09876456 12.1387719,3.33769967 L12.2987635,3.49768303 L13.3580058,2.43932196 L13.1980142,2.2793386 C11.6965154,0.779712978 9.85430058,0.0191056572 7.72232723,0.0191056572 C5.60434221,0.0191056572 3.76899667,0.779712978 2.26737302,2.2793386 C0.766248959,3.77896423 0.00525811823,5.61303245 0.00525811823,7.72975458 C0.00525811823,9.86020383 0.766248959,11.7012604 2.26737302,13.200886 C3.75463364,14.6867845 5.58997918,15.4404035 7.72232723,15.4404035 C9.85467527,15.4404035 11.6968901,14.6797962 13.1980142,13.1801705 L13.3580058,13.0201872 L12.2987635,11.9623253 L12.1387719,12.1221839 C10.8991799,13.3607446 9.45438385,13.9628661 7.72232723,13.9628661 C6.00063697,13.9628661 4.51475021,13.3501373 3.30725645,12.1438977 C2.08040383,10.8982238 1.48402581,9.45425541 1.48402581,7.72975458 C1.48402581,6.02297421 2.09701499,4.54543677 3.30725645,3.33645175 C4.50950458,2.11548669 5.99489176,1.49664309 7.72232723,1.49664309" id="Fill-38"></path>
                        <path d="M20.8764155,10.9697546 C20.8764155,11.71052 20.6085137,12.353698 20.0837011,12.8779493 C19.5478976,13.3939642 18.9038093,13.6554035 18.1681724,13.6554035 L17.2654246,13.6554035 L17.2654246,8.26376456 L18.1681724,8.26376456 C18.9091799,8.26376456 19.5523938,8.53106905 20.0807036,9.0584401 C20.6085137,9.58581115 20.8764155,10.2289892 20.8764155,10.9697546 L20.8764155,10.9697546 Z M17.2654246,6.78622712 L17.2654246,1.80452995 L18.1681724,1.80452995 C18.8644671,1.80452995 19.4431099,2.0443802 19.9365737,2.53780782 C20.4307868,3.03160982 20.6713364,3.60977121 20.6713364,4.30548669 C20.6713364,5.00120216 20.4307868,5.57948835 19.9395712,6.07017055 C19.4383639,6.5521173 18.8587219,6.78622712 18.1681724,6.78622712 L17.2654246,6.78622712 Z M20.5183389,7.51688436 C21.5462323,6.76900582 22.1496045,5.59309068 22.1496045,4.30548669 C22.1496045,3.20170133 21.7539342,2.25677621 20.9777061,1.50240849 C20.2180891,0.722333611 19.2730017,0.326992512 18.1681724,0.326992512 L15.7871565,0.326992512 L15.7871565,15.1329409 L18.1681724,15.1329409 C19.3202123,15.1329409 20.3127602,14.7243719 21.1164654,13.9204617 C21.9382806,13.1214185 22.3548085,12.1283236 22.3548085,10.9697546 C22.3548085,9.57433028 21.659388,8.28235857 20.5183389,7.51688436 L20.5183389,7.51688436 Z" id="Fill-40"></path>
                        <polygon id="Fill-42" points="25.3317777 15.1329659 31.4281973 15.1329659 31.4281973 13.6554285 26.8101707 13.6554285 26.8101707 8.468698 31.2221191 8.468698 31.2221191 6.99116057 26.8101707 6.99116057 26.8101707 1.80455491 31.4281973 1.80455491 31.4281973 0.327017471 25.3317777 0.327017471"></polygon>
                        <polygon id="Fill-44" points="42.1416944 0.326967554 33.4802873 0.326967554 33.4802873 1.80450499 37.0717943 1.80450499 37.0717943 15.132916 38.5510616 15.132916 38.5510616 1.80450499 42.1416944 1.80450499"></polygon>
                        <path d="M55.4047544,9.86192596 L46.4578351,9.86192596 L50.9312323,2.05406406 L55.4047544,9.86192596 Z M51.657627,0.326942596 L50.2049625,0.326942596 L41.7367694,15.1330158 L43.4493422,15.1330158 L45.6041715,11.3394634 L56.2385595,11.3394634 L58.413622,15.1330158 L60.1249459,15.1330158 L51.7230724,0.440877704 L51.657627,0.326942596 Z" id="Fill-46"></path>
                    </g>
                </g>
            </g>
        </g>
    </g>
</svg>