<?xml version="1.0" encoding="UTF-8"?>
<svg width="20px" height="20px" viewBox="0 0 20 20" version="1.1" xmlns="http://www.w3.org/2000/svg" xmlns:xlink="http://www.w3.org/1999/xlink">
    <!-- Generator: Sketch 47.1 (45422) - http://www.bohemiancoding.com/sketch -->
    <title>Group 22</title>
    <desc>Created with Sketch.</desc>
    <defs></defs>
    <g id="my" stroke="none" stroke-width="1" fill="none" fill-rule="evenodd">
        <g id="01-Главная" transform="translate(-209.000000, -11.000000)" fill="#7F7873">
            <g id="Header">
                <g id="Group-23" transform="translate(0.000000, 1.000000)">
                    <g id="Time" transform="translate(209.000000, 10.000000)">
                        <g id="Group-22">
                            <path d="M10,0.585774059 C4.80878661,0.585774059 0.585774059,4.80899582 0.585774059,10 C0.585774059,15.1910042 4.80878661,19.4142259 10,19.4142259 C15.190795,19.4142259 19.4142259,15.1910042 19.4142259,10 C19.4142259,4.80899582 15.190795,0.585774059 10,0.585774059 Z M10,20 C7.32887029,20 4.81757322,18.9598326 2.92887029,17.0710879 C1.04016736,15.1823013 0,12.6710879 0,10 C0,7.32891213 1.04016736,4.81769874 2.92887029,2.92895397 C4.81757322,1.04016736 7.32887029,0 10,0 C12.6711297,0 15.1824268,1.04016736 17.0711297,2.92895397 C18.9598326,4.81769874 20,7.32891213 20,10 C20,12.6710879 18.9598326,15.1823013 17.0711297,17.0710879 C15.1824268,18.9598326 12.6711297,20 10,20 L10,20 Z" id="Fill-62"></path>
                            <path d="M10.6841004,9.6439749 C10.6062762,9.6439749 10.5288703,9.61334728 10.4715481,9.55267782 C10.360251,9.43531381 10.3648536,9.24995816 10.4824268,9.13861925 L12.0794979,7.62301255 C12.1970711,7.51171548 12.3824268,7.51656904 12.4937238,7.63393305 C12.6050209,7.75125523 12.6,7.93665272 12.4828452,8.04799163 L10.8853556,9.56355649 C10.8288703,9.61732218 10.7564854,9.6439749 10.6841004,9.6439749" id="Fill-63"></path>
                            <path d="M9.29832636,9.53803347 C9.21966527,9.53803347 9.14142259,9.50665272 9.08368201,9.44460251 L5.76025105,5.87046025 C5.64979079,5.75200837 5.65690377,5.56665272 5.77531381,5.4565272 C5.89372385,5.34635983 6.0790795,5.35313808 6.18912134,5.47158996 L9.5125523,9.04573222 C9.62259414,9.1641841 9.61589958,9.34949791 9.49748954,9.45966527 C9.44100418,9.51209205 9.36945607,9.53803347 9.29832636,9.53803347" id="Fill-64"></path>
                            <path d="M10,9.40334728 C9.67112971,9.40334728 9.40334728,9.67100418 9.40334728,10 C9.40334728,10.3289958 9.67112971,10.5966527 10,10.5966527 C10.3288703,10.5966527 10.5966527,10.3289958 10.5966527,10 C10.5966527,9.67100418 10.3288703,9.40334728 10,9.40334728 Z M10,11.1824268 C9.34811715,11.1824268 8.81757322,10.6520084 8.81757322,10 C8.81757322,9.34799163 9.34811715,8.81757322 10,8.81757322 C10.6518828,8.81757322 11.1824268,9.34799163 11.1824268,10 C11.1824268,10.6520084 10.6518828,11.1824268 10,11.1824268 L10,11.1824268 Z" id="Fill-65"></path>
                            <path d="M10,2.96707113 C9.83807531,2.96707113 9.70711297,2.83594142 9.70711297,2.6741841 L9.70711297,1.44025105 C9.70711297,1.27849372 9.83807531,1.14736402 10,1.14736402 C10.1619247,1.14736402 10.292887,1.27849372 10.292887,1.44025105 L10.292887,2.6741841 C10.292887,2.83594142 10.1619247,2.96707113 10,2.96707113" id="Fill-66"></path>
                            <path d="M10,18.8627615 C9.83807531,18.8627615 9.70711297,18.7316736 9.70711297,18.5698745 L9.70711297,17.3359833 C9.70711297,17.1741841 9.83807531,17.0430962 10,17.0430962 C10.1619247,17.0430962 10.292887,17.1741841 10.292887,17.3359833 L10.292887,18.5698745 C10.292887,18.7316736 10.1619247,18.8627615 10,18.8627615" id="Fill-67"></path>
                            <path d="M18.5648536,10.2979916 L17.3309623,10.2979916 C17.1690377,10.2979916 17.0380753,10.1668619 17.0380753,10.0051046 C17.0380753,9.84330544 17.1690377,9.71221757 17.3309623,9.71221757 L18.5648536,9.71221757 C18.7263598,9.71221757 18.8577406,9.84330544 18.8577406,10.0051046 C18.8577406,10.1668619 18.7263598,10.2979916 18.5648536,10.2979916" id="Fill-68"></path>
                            <path d="M2.66903766,10.2979916 L1.43514644,10.2979916 C1.27322176,10.2979916 1.14225941,10.1668619 1.14225941,10.0051046 C1.14225941,9.84330544 1.27322176,9.71221757 1.43514644,9.71221757 L2.66903766,9.71221757 C2.83096234,9.71221757 2.96192469,9.84330544 2.96192469,10.0051046 C2.96192469,10.1668619 2.83096234,10.2979916 2.66903766,10.2979916" id="Fill-69"></path>
                        </g>
                    </g>
                </g>
            </g>
        </g>
    </g>
</svg>