<?xml version="1.0" encoding="UTF-8"?>
<svg width="16px" height="13px" viewBox="0 0 16 13" version="1.1" xmlns="http://www.w3.org/2000/svg" xmlns:xlink="http://www.w3.org/1999/xlink">
    <!-- Generator: Sketch 47.1 (45422) - http://www.bohemiancoding.com/sketch -->
    <title>Twitter Copy 9_Color</title>
    <desc>Created with Sketch.</desc>
    <defs></defs>
    <g stroke="none" stroke-width="1" fill="none" fill-rule="evenodd" opacity="0.5">
        <g transform="translate(-1157.000000, -79.000000)" fill="#7F7873">
            <g>
                <g transform="translate(1100.000000, 75.000000)">
                    <g transform="translate(57.200000, 4.000000)">
                        <path d="M7.38046734,3.40500042 L7.41341585,3.95863651 L6.86427394,3.89084434 C4.86539737,3.63097433 3.11912608,2.74967606 1.63644291,1.2695469 L0.911575579,0.535131672 L0.724867328,1.07746907 C0.329485149,2.28642953 0.58209043,3.56318216 1.4058033,4.42188304 C1.84511683,4.89642827 1.74627129,4.96422044 0.988455447,4.68175305 C0.724867328,4.59136348 0.494227724,4.52357131 0.472262047,4.55746739 C0.395382179,4.63655827 0.658970298,5.66473959 0.867644226,6.07149264 C1.15319802,6.63642743 1.73528845,7.19006353 2.37229307,7.51772571 L2.91045215,7.77759571 L2.27344753,7.78889441 C1.65840858,7.78889441 1.63644291,7.8001931 1.70233994,8.03746572 C1.9219967,8.77188095 2.78964093,9.55149096 3.7561307,9.89045184 L4.43706667,10.1277244 L3.84399341,10.4892827 C2.96536634,11.0090227 1.93297954,11.3027888 0.900592741,11.3253862 C0.406365017,11.3366849 -1.86517468e-14,11.3818797 -1.86517468e-14,11.4157758 C-1.86517468e-14,11.5287627 1.33990627,12.1614897 2.11968779,12.410061 C4.45903235,13.1444762 7.23769044,12.8281128 9.32442972,11.5739575 C10.8071129,10.6813605 12.2897961,8.9074653 12.9817149,7.19006353 C13.3551314,6.27486916 13.7285479,4.60266218 13.7285479,3.80045477 C13.7285479,3.28071476 13.7614964,3.21292259 14.3765353,2.59149432 C14.738969,2.22993605 15.079437,1.83448169 15.145334,1.72149474 C15.2551624,1.50681951 15.2441796,1.50681951 14.6840548,1.69889734 C13.7505136,2.03785822 13.6187195,1.99266344 14.0799987,1.48422212 C14.4204667,1.12266386 14.8268317,0.467339496 14.8268317,0.275261667 C14.8268317,0.241365579 14.6620891,0.297859059 14.4753809,0.399547321 C14.2776898,0.51253428 13.8383763,0.682014718 13.5088911,0.78370298 L12.9158178,0.97578081 L12.3776588,0.602923847 C12.0811221,0.399547321 11.6637743,0.173573404 11.4441175,0.105781229 C10.8839928,-0.0524005126 10.0273314,-0.0298031209 9.52212081,0.150976013 C8.14926602,0.659417326 7.28162179,1.97006604 7.38046734,3.40500042 Z"></path>
                    </g>
                </g>
            </g>
        </g>
    </g>
</svg>