<?xml version="1.0" encoding="UTF-8"?>
<svg width="52px" height="52px" viewBox="0 0 52 52" version="1.1" xmlns="http://www.w3.org/2000/svg" xmlns:xlink="http://www.w3.org/1999/xlink">
    <!-- Generator: Sketch 47.1 (45422) - http://www.bohemiancoding.com/sketch -->
    <title>Group</title>
    <desc>Created with Sketch.</desc>
    <defs></defs>
    <g id="my" stroke="none" stroke-width="1" fill="none" fill-rule="evenodd">
        <g id="10-Доставка_full" transform="translate(-257.000000, -344.000000)" fill-rule="nonzero" fill="#FFFFFF">
            <g id="Group-3" transform="translate(171.000000, 300.000000)">
                <g id="Group" transform="translate(86.000000, 44.000000)">
                    <path d="M25.9733333,52 C32.6577778,52 39.2711111,49.4434961 44.3911111,44.4015022 C49.2977778,39.5015364 52,32.9682485 52,26.0088767 C52,19.049505 49.2977778,12.5162171 44.3911111,7.61625128 C34.2222222,-2.53875043 17.7244444,-2.53875043 7.62666667,7.61625128 C-2.54222222,17.771253 -2.54222222,34.2465005 7.62666667,44.3304882 C12.6755556,49.4434961 19.2888889,52 25.9733333,52 Z M10.1671729,10.1614575 C19.0458726,1.28399047 33.5203914,1.28399047 42.3990911,10.1614575 C46.7265246,14.4882902 49.1140741,20.2325336 49.1140741,26.2751792 C49.1140741,32.3178249 46.7265246,38.0620683 42.3990911,42.388901 C33.5203914,51.266368 19.0458726,51.266368 10.1671729,42.388901 C1.28847323,33.5114339 1.28847323,19.0389246 10.1671729,10.1614575 Z" id="Shape"></path>
                    <path d="M23.6756757,30.7567568 L33.4054054,30.7567568 C34.4391892,30.7567568 35.2297297,29.9662162 35.2297297,28.9324324 C35.2297297,27.8986486 34.4391892,27.1081081 33.4054054,27.1081081 L25.5,27.1081081 L25.5,16.7702703 C25.5,15.7364865 24.7094595,14.9459459 23.6756757,14.9459459 C22.6418919,14.9459459 21.8513514,15.7364865 21.8513514,16.7702703 L21.8513514,28.9324324 C21.8513514,29.9662162 22.6418919,30.7567568 23.6756757,30.7567568 Z" id="Shape"></path>
                </g>
            </g>
        </g>
    </g>
</svg>