<svg xmlns="http://www.w3.org/2000/svg" xmlns:xlink="http://www.w3.org/1999/xlink" height="229" viewBox="0 0 266 229" width="266"><svg height="52" viewBox="0 0 123 52" width="123" x="5" y="5"><title>Logo</title><g fill="#1D1D1B" fill-rule="evenodd"><path d="M9.632 14.997c-1.424.539-3.266 1.133-4.866.94a.524.524 0 0 0-.586.452.521.521 0 0 0 .458.578c.254.031.512.045.772.045 1.606 0 3.274-.544 4.599-1.045a.518.518 0 0 0 .303-.67.527.527 0 0 0-.68-.3M16.689 41.244h4.515c.598 2.231 1.516 4.039 2.638 5.194a11.88 11.88 0 0 1-7.153-5.194zm7.153-17.486c-1.14 1.173-2.069 3.02-2.665 5.3h-4.556a11.88 11.88 0 0 1 7.221-5.3zm13.065 5.3H32.35c-.597-2.28-1.526-4.127-2.666-5.3a11.88 11.88 0 0 1 7.222 5.3zm-7.222 17.38c1.123-1.155 2.041-2.963 2.638-5.194h4.516a11.88 11.88 0 0 1-7.154 5.194zm-3.447-5.194v5.494c-1.635-.38-3.075-2.505-3.927-5.494h3.927zm-4.734-5.627h4.734v4.588h-4.192a23.216 23.216 0 0 1-.542-4.588zm4.734-5.52v4.481h-4.734c.033-1.588.216-3.105.518-4.481h4.216zm0-6.639v5.6H22.28c.848-3.046 2.304-5.216 3.958-5.6zm1.052 5.6v-5.6c1.654.384 3.11 2.554 3.958 5.6H27.29zm4.734 5.52H27.29v-4.481h4.216c.302 1.376.485 2.893.518 4.481zm-.807 6.666c-.852 2.99-2.292 5.114-3.927 5.494v-5.494h3.927zm-3.927-1.039v-4.588h4.734a23.222 23.222 0 0 1-.543 4.588H27.29zm10.131 0h-4.85c.298-1.408.474-2.954.505-4.588h5.522a11.502 11.502 0 0 1-1.177 4.588zm.05-10.11a11.502 11.502 0 0 1 1.127 4.483h-5.522a24.615 24.615 0 0 0-.482-4.481h4.86l.017-.002zm-21.415.002h4.878a24.607 24.607 0 0 0-.483 4.481h-5.52a11.501 11.501 0 0 1 1.125-4.481zm-1.126 5.52h5.521a24.52 24.52 0 0 0 .506 4.588h-4.85a11.504 11.504 0 0 1-1.177-4.588zm24.734-.52c0-7.024-5.787-12.739-12.9-12.739s-12.9 5.715-12.9 12.74 5.787 12.74 12.9 12.74 12.9-5.715 12.9-12.74z"/><path d="M42.595 39.993a.53.53 0 0 0-.67.32c-2.242 6.367-8.335 10.645-15.161 10.645a16.11 16.11 0 0 1-6.37-1.3.528.528 0 0 0-.692.27.517.517 0 0 0 .274.684c2.15.92 4.434 1.385 6.788 1.385 7.273 0 13.766-4.558 16.155-11.342a.518.518 0 0 0-.324-.662M13.828 24.044l-3.226-6.025a.534.534 0 0 0-.662-.239c-3.723 1.407-6.561 1.66-8.316-1.677a4.902 4.902 0 0 1-.334-3.805 4.974 4.974 0 0 1 2.488-2.923 5.069 5.069 0 0 1 1.653-.516.527.527 0 0 0 .352-.205.514.514 0 0 0 .097-.392c-.423-2.632.902-5.225 3.296-6.454a6.312 6.312 0 0 1 6.757.633 6.034 6.034 0 0 0-1.257 2.39.519.519 0 0 0 .51.65.525.525 0 0 0 .508-.39c.199-.758.581-1.468 1.105-2.055.01-.01.018-.024.027-.036a.527.527 0 0 0 .346-.163c.395-.423.859-.772 1.377-1.037a5.077 5.077 0 0 1 3.853-.33 5.003 5.003 0 0 1 2.96 2.458 4.95 4.95 0 0 1-1.333 6.203c-.636.473-1.295.932-1.964 1.383a.522.522 0 0 0-.24.162 56.533 56.533 0 0 1-3.553 2.194.516.516 0 0 0-.194.71.53.53 0 0 0 .717.192 57.746 57.746 0 0 0 3.253-1.99l2.915 5.528a17.125 17.125 0 0 0-11.135 5.734m12.936-4.791c2.11 0 4.166.4 6.109 1.191.27.11.576-.017.687-.282a.517.517 0 0 0-.286-.679 17.19 17.19 0 0 0-7.168-1.256l-3.182-6.033a54.598 54.598 0 0 0 1.748-1.24 5.987 5.987 0 0 0 1.624-7.505A6.045 6.045 0 0 0 22.72.479a6.134 6.134 0 0 0-4.655.398c-.472.242-.906.541-1.296.892A7.375 7.375 0 0 0 8.69.886C6.048 2.242 4.521 5.022 4.778 7.92a6.124 6.124 0 0 0-1.484.533 6.009 6.009 0 0 0-3.007 3.533 5.922 5.922 0 0 0 .404 4.597c2.153 4.096 5.813 3.547 9.198 2.327l3.222 6.017a16.844 16.844 0 0 0-2.599 4.914.518.518 0 0 0 .5.682.526.526 0 0 0 .5-.358c2.167-6.526 8.296-10.911 15.252-10.911"/><g><path d="M54.211 18.29h-.902v-4.982h.902c.697 0 1.276.24 1.769.734.494.494.734 1.072.734 1.767 0 .696-.24 1.274-.73 1.765a2.448 2.448 0 0 1-1.773.716m0 6.87h-.902v-5.392h.902a2.62 2.62 0 0 1 1.913.794c.528.528.795 1.17.795 1.912 0 .74-.267 1.384-.792 1.908a2.677 2.677 0 0 1-1.916.777m2.35-6.138a3.943 3.943 0 0 0 1.632-3.212c0-1.104-.396-2.048-1.172-2.803-.76-.78-1.705-1.175-2.81-1.175h-2.38v14.806h2.38c1.152 0 2.145-.409 2.949-1.213.822-.799 1.238-1.792 1.238-2.95a4.156 4.156 0 0 0-1.836-3.453M62.184 19.234c0-1.707.613-3.185 1.823-4.394C65.21 13.62 66.695 13 68.423 13c1.727 0 3.212.62 4.416 1.842 1.209 1.207 1.822 2.684 1.822 4.392 0 1.725-.597 3.169-1.822 4.412-1.209 1.208-2.695 1.82-4.416 1.82-1.722 0-3.208-.612-4.416-1.818-1.226-1.246-1.823-2.69-1.823-4.414m6.239 7.71c2.132 0 3.967-.753 5.454-2.24 1.501-1.5 2.263-3.34 2.263-5.47 0-2.117-.762-3.95-2.263-5.45s-3.336-2.261-5.454-2.261-3.954.76-5.455 2.26c-1.502 1.5-2.263 3.334-2.263 5.45 0 2.131.761 3.972 2.263 5.472 1.487 1.486 3.322 2.24 5.455 2.24M86.771 26.637l-5.228-7.403 5.25-7.403h-1.787l-4.438 6.261v-6.261h-1.479v14.806h1.479v-6.24l4.418 6.24zM90.7 19.008h-.491v-5.7h.491c.783 0 1.461.282 2.016.836.555.555.837 1.233.837 2.014 0 .782-.282 1.46-.837 2.014a2.762 2.762 0 0 1-2.016.836m4.332-2.85c0-1.178-.43-2.204-1.278-3.051-.847-.847-1.874-1.276-3.054-1.276h-1.97v14.806h1.479v-6.152h.491c1.193 0 2.22-.422 3.054-1.255.848-.848 1.278-1.88 1.278-3.072M103.658 24.787c-.316.464-.641.68-1.024.68a1.33 1.33 0 0 1-1.313-1.312v-.636h-1.478v.636c0 .772.262 1.42.808 1.989.562.538 1.211.8 1.983.8.917 0 1.656-.435 2.261-1.33l9.288-13.783h-1.777l-7.012 10.358L97.56 11.92l-.067-.09H95.63l8.88 11.658-.853 1.299zM116.08 11.83v14.807h1.478V13.308h5.439v-1.477z"/></g><g><path d="M59.532 34.453c1.732 0 3.176.602 4.416 1.841l.16.16 1.06-1.058-.16-.16c-1.502-1.5-3.344-2.26-5.476-2.26-2.118 0-3.954.76-5.455 2.26-1.501 1.5-2.262 3.333-2.262 5.45 0 2.13.76 3.972 2.262 5.471 1.487 1.486 3.322 2.24 5.455 2.24 2.132 0 3.974-.76 5.475-2.26l.16-.16-1.059-1.058-.16.16c-1.24 1.238-2.684 1.84-4.416 1.84-1.722 0-3.208-.613-4.415-1.819-1.227-1.245-1.824-2.69-1.824-4.414 0-1.707.613-3.184 1.824-4.393 1.202-1.221 2.687-1.84 4.415-1.84M72.686 43.926c0 .74-.268 1.384-.793 1.908a2.678 2.678 0 0 1-1.916.778h-.902V41.22h.902c.742 0 1.385.267 1.913.795.528.527.796 1.17.796 1.911zm-3.611-4.183V34.76h.902c.697 0 1.275.24 1.769.733.494.494.735 1.072.735 1.768s-.24 1.274-.732 1.764a2.447 2.447 0 0 1-1.772.717h-.902zm3.253.73a3.943 3.943 0 0 0 1.63-3.211c0-1.104-.395-2.049-1.171-2.803-.76-.78-1.705-1.176-2.81-1.176h-2.38V48.09h2.38c1.153 0 2.145-.408 2.949-1.212.822-.8 1.238-1.792 1.238-2.95a4.156 4.156 0 0 0-1.836-3.454zM77.141 48.09h6.097v-1.478h-4.619v-5.187h4.412v-1.478H78.62v-5.186h4.619v-1.478H77.14zM93.951 33.283H85.29v1.478h3.591v13.328h1.48V34.761h3.59zM107.214 42.818h-8.947l4.474-7.808 4.473 7.808zm-3.747-9.535h-1.453L93.546 48.09h1.713l2.154-3.793h10.635l2.175 3.793h1.711l-8.402-14.692-.065-.114z"/></g></g></svg><svg height="32" viewBox="0 0 107 32" width="107" x="5" y="62"><title>Playstore</title><defs><linearGradient x1="50%" y1="0%" x2="50%" y2="38.913%" id="b"><stop stop-color="#FBDA09" offset="0%"/><stop stop-color="#FFBC00" offset="100%"/></linearGradient><path d="M8.024 1.847c.612-1.088 1.61-1.076 2.216 0l8.814 15.661c.612 1.088.088 1.97-1.17 1.97H.38c-1.258 0-1.775-.894-1.17-1.97L8.024 1.847z" id="a"/><linearGradient x1="0%" y1="58.476%" x2="69.306%" y2="39.083%" id="c"><stop stop-color="#01E2FF" offset="0%"/><stop stop-color="#01C4FF" offset="100%"/></linearGradient><linearGradient x1="20.281%" y1="20.102%" x2="83.82%" y2="83.621%" id="e"><stop stop-color="#28D781" offset="0%"/><stop stop-color="#02F076" offset="100%"/></linearGradient><linearGradient x1="74.488%" y1="17.43%" x2="10.108%" y2="91.184%" id="f"><stop stop-color="#F2414E" offset="0%"/><stop stop-color="#E02554" offset="100%"/></linearGradient></defs><g fill="none" fill-rule="evenodd"><rect fill="#231F20" width="107" height="31.942" rx="3.6"/><g fill="#FFF"><path d="M56.702 10.618c-1.43 0-2.59-1.172-2.59-2.618s1.16-2.618 2.59-2.618 2.59 1.172 2.59 2.618-1.16 2.618-2.59 2.618zm0-.8c.994 0 1.799-.814 1.799-1.818a1.809 1.809 0 0 0-1.799-1.818c-.993 0-1.799.814-1.799 1.818s.806 1.818 1.8 1.818zM39.145 8.29v1.6h2.086v.583h-2.878V5.6h2.878v.582h-2.086v1.527h1.87v.582h-1.87zM44.038 6.182v4.29h-.792v-4.29h-1.223V5.6h3.238v.582h-1.223zM51.09 6.182v4.29h-.792v-4.29h-1.223V5.6h3.238v.582h-1.224zM47.563 5.6h1v4.873h-1zM60.408 5.6h-.468v4.873h.792V6.67l2.302 3.803h.792V5.6h-.792v3.565L60.876 5.6h-.468zM35.387 7.794h2.167l-.021.693h-2.146z"/><path d="M37.128 6.163c-.422-.45-1.039-.708-1.773-.708-1.404 0-2.543 1.149-2.543 2.567a2.556 2.556 0 0 0 2.543 2.567c1.428.013 2.619-1.004 2.38-2.769v-.026h-.633c.005.074.007.15.006.228.001 1.26-.718 1.852-1.731 1.852a1.843 1.843 0 0 1-1.835-1.852c0-1.023.821-1.853 1.835-1.853.506 0 .946.175 1.255.495l.496-.5z"/></g><g fill="#FFF"><path d="M77.714 14.327h4.079s2.348.404 2.348 3.13c0 2.725-2.348 3.13-2.348 3.13h-4.08v-6.26zm.791 1.514V19.2h2.77s1.26 0 1.26-1.68c0-1.679-1.26-1.679-1.26-1.679h-2.77z"/><path d="M77.354 14.327h1.439V24.51h-1.44zM84.982 14.328h1.439V24.51h-1.44zM91.754 23.781c-.396.33-1.03.642-2.03.705-2.294.145-2.295-1.97-2.295-2.113 0-.142-.113-1.867 1.711-2.141 1.292-.194 2.196.13 2.614.334v-.299c-.102-.396-.42-1.124-1.374-1.124-1.31 0-1.6.716-1.6.716l-1.199-.716s.671-1.398 2.684-1.398c2.503 0 2.929 1.745 2.929 2.333v4.428h-1.44v-.725zm-.102-2.18s-2.773-.756-2.87.818c-.096 1.574 2.66.818 2.907-.297 0-.355-.037-.522-.037-.522zM95.894 24.123l-1.343 3.222h1.44L99.884 18h-1.439l-1.832 4.396-1.846-4.431h-1.439l2.566 6.159zM74.132 20.344l-4.552 1.9s.294 1.052 1.663 1.06c1.071.005 1.676-.96 1.676-.96l1.155.79s-.932 1.523-2.84 1.523c-2.346 0-3.379-2.073-3.379-3.419 0-1.297.82-3.493 3.233-3.493 2.413 0 3.044 2.599 3.044 2.599zm-1.732-.539s-.573-.88-1.45-.718c-1.859.343-1.625 1.987-1.625 1.987l3.075-1.269zM65.697 14.328h1.523v10.16h-1.523zM63.26 17.966l1.408.013v6.41c0 1.638-.965 3.367-3.237 3.367-2.271 0-3.005-2.034-3.005-2.034l1.293-.55s.394 1.255 1.78 1.255c1.577 0 1.761-1.451 1.761-1.948v-.696s-.546.864-1.902.864c-1.47 0-3.217-1.273-3.217-3.444 0-2.17 1.645-3.411 3.234-3.456 1.273-.037 1.885.853 1.885.853v-.634zm-1.781 5.378c1.026 0 1.858-.95 1.858-2.122s-.832-2.123-1.858-2.123c-1.027 0-1.859.95-1.859 2.123 0 1.172.832 2.122 1.859 2.122zM54.083 24.655c-1.892 0-3.425-1.547-3.425-3.455 0-1.908 1.533-3.455 3.425-3.455s3.426 1.547 3.426 3.455c0 1.908-1.534 3.455-3.426 3.455zm-.022-1.355c1.063 0 1.926-.94 1.926-2.1 0-1.16-.863-2.1-1.926-2.1s-1.926.94-1.926 2.1c0 1.16.863 2.1 1.926 2.1zM46.672 24.655c-1.892 0-3.426-1.547-3.426-3.455 0-1.908 1.534-3.455 3.426-3.455 1.892 0 3.425 1.547 3.425 3.455 0 1.908-1.533 3.455-3.425 3.455zm-.023-1.355c1.064 0 1.926-.94 1.926-2.1 0-1.16-.862-2.1-1.926-2.1-1.063 0-1.925.94-1.925 2.1 0 1.16.862 2.1 1.925 2.1z"/><g><path d="M37.826 18.84h4.523l-.045 1.446h-4.478z"/><path d="M41.459 15.44c-.88-.937-2.168-1.476-3.7-1.476-2.93 0-5.306 2.395-5.306 5.35 0 2.956 2.375 5.348 5.306 5.352 2.98.027 5.465-2.092 4.968-5.772v-.053h-1.321c.01.153.014.311.01.474.004 2.628-1.498 3.86-3.612 3.86-2.115 0-3.829-1.728-3.829-3.86 0-2.133 1.714-3.861 3.829-3.861 1.058 0 1.975.365 2.62 1.03l1.035-1.043z"/></g></g><g transform="translate(7.843 5.673)"><mask id="d" fill="#fff"><use xlink:href="#a"/></mask><use fill="url(#b)" transform="rotate(90 9.132 10.262)" xlink:href="#a"/><path fill="url(#c)" mask="url(#d)" d="M0-.007l10.059 10.104L-.13 20.601z"/><path fill="url(#e)" mask="url(#d)" d="M-2.068-2.087L10.057 10.1l3.606-3.476z"/><path fill="url(#f)" mask="url(#d)" d="M10.06 10.098l5.518 5.622L-.91 21.343z"/></g></g></svg><svg height="31" viewBox="0 0 105 31" width="105" x="133" y="5"><title>Appstore</title><g fill="none" fill-rule="evenodd"><rect fill="#231F20" width="105" height="31" rx="2.88"/><path d="M40.303 23.807h1.765l-3.864-10.642h-1.787l-3.863 10.642h1.706l.986-2.824h4.078l.979 2.824zm-3.077-8.71h.126l1.55 4.5h-3.234l1.558-4.5zm9.521.546c-1.097 0-2.047.546-2.536 1.46h-.119v-1.327h-1.535V26.41h1.595v-3.82h.126c.422.848 1.334 1.35 2.484 1.35 2.039 0 3.337-1.601 3.337-4.153 0-2.552-1.298-4.145-3.352-4.145zm-.452 6.874c-1.335 0-2.173-1.048-2.173-2.722 0-1.681.838-2.729 2.18-2.729 1.35 0 2.158 1.026 2.158 2.722 0 1.704-.808 2.729-2.165 2.729zm8.72-6.874c-1.097 0-2.046.546-2.536 1.46h-.118v-1.327h-1.535V26.41h1.594v-3.82h.126c.423.848 1.335 1.35 2.484 1.35 2.04 0 3.337-1.601 3.337-4.153 0-2.552-1.298-4.145-3.352-4.145zm-.452 6.874c-1.335 0-2.173-1.048-2.173-2.722 0-1.681.838-2.729 2.18-2.729 1.35 0 2.158 1.026 2.158 2.722 0 1.704-.808 2.729-2.165 2.729zm7.178-1.571c.12 1.903 1.713 3.12 4.086 3.12 2.536 0 4.123-1.276 4.123-3.312 0-1.6-.905-2.485-3.1-2.994l-1.179-.288c-1.394-.324-1.957-.76-1.957-1.52 0-.958.875-1.585 2.187-1.585 1.246 0 2.106.612 2.262 1.593h1.616c-.096-1.792-1.683-3.053-3.855-3.053-2.336 0-3.893 1.261-3.893 3.156 0 1.564.882 2.493 2.817 2.943l1.38.332c1.416.332 2.039.819 2.039 1.63 0 .944-.98 1.63-2.314 1.63-1.43 0-2.425-.642-2.565-1.652H61.74zm9.581-7.117v1.984h-1.327v1.335h1.327v4.535c0 1.55.705 2.169 2.477 2.169.311 0 .6-.037.852-.081v-1.32c-.222.022-.348.036-.593.036-.793 0-1.142-.368-1.142-1.21v-4.13h1.81v-1.334h-1.81v-1.984h-1.594zm7.356 8.725c-1.386 0-2.165-1.01-2.165-2.766 0-1.74.779-2.758 2.165-2.758 1.38 0 2.165 1.017 2.165 2.758 0 1.748-.786 2.766-2.165 2.766zm0 1.408c2.358 0 3.804-1.57 3.804-4.174 0-2.589-1.453-4.167-3.804-4.167-2.358 0-3.811 1.578-3.811 4.167 0 2.603 1.446 4.174 3.811 4.174zm4.531-.155h1.595v-4.742c0-1.128.852-1.888 2.053-1.888.267 0 .757.052.883.096v-1.564a3.36 3.36 0 0 0-.705-.066c-1.052 0-1.942.575-2.172 1.364h-.119v-1.231H83.21v8.031zm8.12-6.836c1.18 0 1.95.818 1.987 2.08h-4.078c.09-1.254.912-2.08 2.091-2.08zm1.98 4.668c-.297.627-.957.974-1.92.974-1.276 0-2.099-.893-2.15-2.301v-.089h5.701v-.553c0-2.522-1.357-4.049-3.603-4.049-2.277 0-3.723 1.63-3.723 4.196 0 2.567 1.417 4.145 3.73 4.145 1.846 0 3.137-.885 3.5-2.323h-1.535zM34.048 4.858v5.068h1.84c1.518 0 2.397-.93 2.397-2.55 0-1.594-.886-2.518-2.397-2.518h-1.84zm.791.716h.96c1.056 0 1.681.668 1.681 1.813 0 1.162-.614 1.822-1.68 1.822h-.96V5.574zm6.23 3.755c-.66 0-1.032-.481-1.032-1.317 0-.83.371-1.314 1.031-1.314.657 0 1.031.485 1.031 1.314 0 .832-.374 1.317-1.03 1.317zm0 .67c1.122 0 1.81-.748 1.81-1.987 0-1.233-.691-1.985-1.81-1.985-1.123 0-1.815.752-1.815 1.985 0 1.24.688 1.988 1.814 1.988zm7.761-3.898h-.759l-.685 2.919h-.06l-.79-2.919h-.728l-.791 2.919h-.057L44.272 6.1h-.77l1.06 3.825h.78l.79-2.817h.06l.795 2.817h.787L48.83 6.1zm.965 3.825h.759V7.689c0-.597.374-.97.985-.97.565 0 .84.306.84.92v2.287h.76V7.45c0-.91-.484-1.423-1.342-1.423-.58 0-1.028.257-1.215.682h-.056V6.1h-.731v3.825zm4.626 0h.76V4.609h-.76v5.317zm3.701-.597c-.66 0-1.03-.481-1.03-1.317 0-.83.37-1.314 1.03-1.314.657 0 1.031.485 1.031 1.314 0 .832-.374 1.317-1.03 1.317zm0 .67c1.123 0 1.812-.748 1.812-1.987 0-1.233-.692-1.985-1.812-1.985-1.123 0-1.815.752-1.815 1.985 0 1.24.689 1.988 1.815 1.988zm4.16-.646c-.413 0-.713-.2-.713-.544 0-.337.24-.516.77-.551l.94-.06v.32c0 .474-.425.835-.997.835zm-.194.636c.505 0 .925-.218 1.155-.6h.06v.537h.73V7.313c0-.808-.543-1.286-1.507-1.286-.872 0-1.494.422-1.571 1.079h.734c.085-.27.378-.425.802-.425.519 0 .787.228.787.632v.33l-1.041.06c-.915.056-1.43.453-1.43 1.141 0 .699.54 1.145 1.281 1.145zm4.612 0c.53 0 .978-.25 1.208-.667h.06v.604h.727V4.609h-.759v2.1h-.056c-.209-.422-.653-.671-1.18-.671-.97 0-1.596.766-1.596 1.974 0 1.211.618 1.977 1.596 1.977zm.216-3.273c.635 0 1.034.502 1.034 1.3 0 .8-.395 1.295-1.034 1.295-.643 0-1.028-.488-1.028-1.3 0-.804.389-1.295 1.028-1.295zm6.88 2.613c-.66 0-1.032-.481-1.032-1.317 0-.83.371-1.314 1.031-1.314.657 0 1.032.485 1.032 1.314 0 .832-.375 1.317-1.032 1.317zm0 .67c1.122 0 1.81-.748 1.81-1.987 0-1.233-.691-1.985-1.81-1.985-1.123 0-1.815.752-1.815 1.985 0 1.24.688 1.988 1.814 1.988zm2.903-.073h.759V7.689c0-.597.374-.97.985-.97.565 0 .84.306.84.92v2.287h.76V7.45c0-.91-.484-1.423-1.342-1.423-.58 0-1.028.257-1.215.682h-.056V6.1h-.731v3.825zm7.017-4.752v.945h-.632v.635h.632v2.16c0 .738.336 1.033 1.18 1.033.148 0 .285-.018.405-.039V9.28c-.105.01-.165.017-.282.017-.378 0-.544-.175-.544-.576V6.754h.862V6.12h-.862v-.945h-.759zm2.702 4.752h.76V7.692c0-.58.384-.97 1.005-.97.572 0 .858.31.858.921v2.283h.76v-2.47c0-.909-.495-1.425-1.36-1.425-.579 0-1.024.256-1.21.685h-.06V4.609h-.753v5.317zM92.63 6.67c.561 0 .928.39.946.99h-1.942c.042-.597.434-.99.996-.99zm.942 2.223c-.14.299-.455.464-.914.464-.607 0-1-.425-1.024-1.096V8.22h2.715v-.263c0-1.202-.646-1.929-1.716-1.929-1.084 0-1.772.777-1.772 1.999S91.535 10 92.637 10c.879 0 1.493-.422 1.666-1.107h-.73z" fill="#FFF"/><g fill="#FFF"><path d="M23.382 15.648c-.023-2.573 2.118-3.824 2.216-3.882-1.213-1.759-3.092-1.999-3.753-2.018-1.578-.165-3.11.94-3.913.94-.82 0-2.059-.924-3.393-.897-1.717.026-3.324 1.015-4.205 2.55-1.818 3.132-.462 7.733 1.28 10.264.871 1.24 1.89 2.624 3.223 2.575 1.304-.053 1.79-.827 3.364-.827 1.56 0 2.017.827 3.376.795 1.4-.02 2.28-1.244 3.122-2.496 1.007-1.419 1.411-2.82 1.428-2.891-.033-.01-2.718-1.03-2.745-4.113M20.814 8.083c.702-.873 1.181-2.06 1.048-3.264-1.015.045-2.284.699-3.015 1.552-.647.752-1.225 1.984-1.076 3.143 1.14.085 2.311-.572 3.043-1.431"/></g></g></svg><svg height="42" viewBox="0 0 60 42" width="60" x="133" y="41"><title>Shape</title><path d="M40.888 32.407c0 2.339 1.906 4.234 4.258 4.234.986 0 1.882-.346 2.604-.904a4.24 4.24 0 0 0 2.604.904c2.354 0 4.26-1.895 4.26-4.234 0-2.338-1.906-4.234-4.26-4.234-.985 0-1.881.346-2.604.905a4.234 4.234 0 0 0-2.604-.905c-2.352 0-4.258 1.897-4.258 4.234m-13.822 1.6c0 .52.423.941.946.941h4.544a.945.945 0 0 0 .947-.941c0-.52-.424-.941-.947-.941h-4.544a.943.943 0 0 0-.946.94m-11.361 0c0 .52.424.942.947.942h7.667a.945.945 0 0 0 .947-.941c0-.52-.424-.941-.947-.941h-7.667a.943.943 0 0 0-.947.94m-9.846 0c0 .52.424.942.948.942h6.152a.944.944 0 0 0 .947-.941c0-.52-.424-.941-.947-.941H6.807a.944.944 0 0 0-.948.94M57.804 6.444v3.494H2.195V6.443c0-4.185 4.109-4.254 4.282-4.256h47.046c4.21 0 4.28 4.084 4.281 4.256M2.195 35.557V16.994h55.61v18.563c0 4.185-4.11 4.254-4.285 4.255H6.477c-4.21 0-4.28-4.083-4.282-4.255M60 5.716C60 3.738 58.796 0 54.24 0H5.76C3.769 0 0 1.195 0 5.716v30.568C0 38.26 1.204 42 5.76 42h48.48c1.99 0 5.76-1.195 5.76-5.716V5.716z" fill-rule="nonzero" fill="#F7F6F5"/></svg><svg height="52" viewBox="0 0 52 52" width="52" x="5" y="99"><title>Group</title><g fill-rule="nonzero" fill="#FFF"><path d="M25.973 52c6.685 0 13.298-2.557 18.418-7.598C49.298 39.502 52 32.968 52 26.009c0-6.96-2.702-13.493-7.609-18.393-10.169-10.155-26.667-10.155-36.764 0-10.17 10.155-10.17 26.63 0 36.714C12.676 49.443 19.289 52 25.973 52zM10.167 10.161c8.879-8.877 23.353-8.877 32.232 0 4.328 4.327 6.715 10.072 6.715 16.114 0 6.043-2.387 11.787-6.715 16.114-8.879 8.877-23.353 8.877-32.232 0-8.879-8.878-8.879-23.35 0-32.228z"/><path d="M23.676 30.757h9.73c1.033 0 1.824-.79 1.824-1.825 0-1.033-.79-1.824-1.825-1.824H25.5V16.77c0-1.034-.79-1.824-1.824-1.824s-1.825.79-1.825 1.824v12.162c0 1.034.79 1.825 1.825 1.825z"/></g></svg><svg height="49" viewBox="0 0 49 49" width="49" x="62" y="99"><title>Pinterest Copy 2_Color</title><defs><path d="M25 49C10.967 49 0 38.029 0 24 0 10.969 10.967 0 25 0c13.03 0 24 10.969 24 24 0 14.029-10.97 25-24 25z" id="g"/></defs><g fill="none" fill-rule="evenodd"><mask id="h" fill="#fff"><use xlink:href="#g"/></mask><use fill="#FFF" xlink:href="#g"/><path d="M18.863 36.547s-.233-2.768.05-3.962c.255-1.078 1.652-6.863 1.652-6.863s-.421-.827-.421-2.05c0-1.92 1.134-3.353 2.55-3.353 1.201 0 1.782.884 1.782 1.945 0 1.185-.77 2.955-1.167 4.597-.332 1.376.704 2.496 2.087 2.496 2.505 0 4.43-2.589 4.43-6.324 0-3.307-2.423-5.618-5.886-5.618-4.01 0-6.363 2.948-6.363 5.993 0 1.186.465 2.46 1.048 3.151a.41.41 0 0 1 .098.397c-.107.436-.345 1.374-.392 1.565-.061.253-.204.307-.473.186C16.1 27.904 15 25.381 15 23.357 15 19.002 18.23 15 24.311 15 29.201 15 33 18.414 33 22.975c0 4.76-3.063 8.59-7.313 8.59-1.429 0-2.771-.728-3.231-1.587l-.878 3.282c-.318 1.2-1.178 2.703-1.75 3.62 1.317.401-.965-.333-.965-.333z" fill="#7F7873" opacity=".5" mask="url(#h)"/></g></svg><svg height="49" viewBox="0 0 49 49" width="49" x="116" y="99"><title>Instagram Copy 2_Color</title><g fill="none" fill-rule="evenodd"><path d="M0 24.5C0 10.969 10.969 0 24.5 0S49 10.969 49 24.5 38.031 49 24.5 49 0 38.031 0 24.5z" fill="#FFF"/><path d="M24.501 12c-3.395 0-3.82.015-5.154.076-1.33.06-2.24.271-3.034.58a6.12 6.12 0 0 0-2.214 1.442 6.136 6.136 0 0 0-1.443 2.214c-.31.795-.52 1.703-.58 3.034-.06 1.333-.076 1.76-.076 5.154 0 3.395.015 3.82.076 5.153.06 1.33.271 2.239.58 3.034.32.822.747 1.52 1.442 2.214a6.12 6.12 0 0 0 2.214 1.443c.795.309 1.703.52 3.034.58 1.333.061 1.759.076 5.154.076s3.82-.015 5.153-.076c1.33-.06 2.24-.271 3.035-.58a6.116 6.116 0 0 0 2.213-1.443 6.136 6.136 0 0 0 1.443-2.214c.307-.795.518-1.704.58-3.034.06-1.333.076-1.758.076-5.153 0-3.395-.016-3.82-.076-5.154-.062-1.33-.273-2.24-.58-3.034a6.135 6.135 0 0 0-1.443-2.214 6.11 6.11 0 0 0-2.214-1.442c-.796-.309-1.705-.52-3.036-.58-1.333-.061-1.758-.076-5.154-.076h.004zm-1.121 2.253H24.5c3.338 0 3.733.012 5.051.071 1.219.056 1.88.26 2.321.43.583.228 1 .498 1.437.936.437.437.708.854.935 1.437.171.44.375 1.102.43 2.32.06 1.318.073 1.714.073 5.05s-.013 3.732-.073 5.05c-.055 1.218-.259 1.88-.43 2.32a3.865 3.865 0 0 1-.935 1.436 3.866 3.866 0 0 1-1.437.935c-.44.172-1.102.375-2.32.43-1.318.06-1.714.073-5.052.073-3.338 0-3.733-.013-5.05-.073-1.22-.056-1.881-.26-2.322-.43-.583-.227-1-.498-1.438-.935a3.874 3.874 0 0 1-.935-1.437c-.171-.44-.375-1.102-.43-2.32-.06-1.318-.072-1.714-.072-5.052 0-3.338.012-3.732.072-5.05.055-1.218.259-1.88.43-2.32.227-.584.498-1 .935-1.438a3.88 3.88 0 0 1 1.438-.935c.44-.172 1.102-.375 2.321-.431 1.153-.052 1.6-.068 3.93-.07v.003zm7.794 2.075a1.5 1.5 0 1 0 0 3 1.5 1.5 0 0 0 0-3zM24.5 18.081a6.42 6.42 0 1 0 .001 12.839 6.42 6.42 0 0 0-.001-12.84zm0 2.252a4.167 4.167 0 1 1 0 8.334 4.167 4.167 0 0 1 0-8.334z" fill="#7F7873" opacity=".5"/></g></svg><svg height="49" viewBox="0 0 49 49" width="49" x="170" y="99"><title>Facebook Copy 2_Color</title><g fill="none" fill-rule="evenodd"><path d="M0 24.5C0 10.969 10.969 0 24.5 0S49 10.969 49 24.5 38.031 49 24.5 49 0 38.031 0 24.5z" fill="#FFF"/><path d="M25.985 34v-9.501h2.662L29 21.225h-3.015l.004-1.639c0-.854.082-1.311 1.328-1.311h1.664V15h-2.663c-3.198 0-4.324 1.588-4.324 4.26v1.965H20V24.5h1.994V34h3.99z" fill="#7F7873" opacity=".5"/></g></svg><svg height="49" viewBox="0 0 49 49" width="49" x="5" y="156"><title>Twitter Copy 2_Color</title><g fill="none" fill-rule="evenodd"><path d="M0 24.5C0 10.969 10.969 0 24.5 0S49 10.969 49 24.5 38.031 49 24.5 49 0 38.031 0 24.5z" fill="#FFF"/><path d="M24.226 21.256l.04.692-.686-.084c-2.498-.325-4.681-1.427-6.534-3.277l-.907-.918-.233.678c-.494 1.511-.178 3.107.851 4.18.55.594.426.678-.521.325-.33-.113-.618-.198-.646-.155-.096.099.234 1.384.495 1.892.356.707 1.084 1.399 1.88 1.808l.673.325-.796.014c-.769 0-.796.014-.714.31.274.919 1.36 1.893 2.567 2.317l.851.297-.741.452a7.62 7.62 0 0 1-3.68 1.045c-.617.014-1.125.07-1.125.113 0 .141 1.675.932 2.65 1.243 2.924.918 6.397.522 9.006-1.046 1.853-1.115 3.706-3.333 4.571-5.48.467-1.143.934-3.234.934-4.236 0-.65.04-.735.81-1.512.453-.452.878-.946.96-1.087.138-.268.124-.268-.576-.028-1.167.423-1.332.367-.755-.269.426-.452.934-1.27.934-1.51 0-.043-.206.027-.44.154-.247.142-.796.354-1.208.48l-.741.24-.673-.465c-.37-.255-.892-.537-1.167-.622-.7-.198-1.77-.17-2.402.057-1.716.635-2.801 2.274-2.677 4.067z" fill="#7F7873" opacity=".5"/></g></svg><svg height="49" viewBox="0 0 49 49" width="49" x="59" y="156"><title>VK Copy 2_Color</title><g fill="none" fill-rule="evenodd"><path d="M0 24.5C0 10.969 10.969 0 24.5 0S49 10.969 49 24.5 38.031 49 24.5 49 0 38.031 0 24.5z" fill="#FFF"/><path d="M25.53 30.95s.379-.042.573-.251c.178-.192.172-.553.172-.553s-.024-1.686.758-1.935c.77-.245 1.759 1.63 2.809 2.352.793.545 1.394.426 1.394.426l2.806-.04s1.466-.09.77-1.245c-.057-.095-.405-.855-2.084-2.417-1.76-1.634-1.523-1.37.595-4.198 1.29-1.722 1.805-2.774 1.644-3.223-.153-.43-1.102-.316-1.102-.316l-3.157.02s-.235-.032-.408.071c-.17.102-.28.34-.28.34s-.499 1.332-1.165 2.466c-1.406 2.39-1.968 2.517-2.198 2.37-.536-.347-.402-1.392-.402-2.133 0-2.318.351-3.284-.683-3.534-.343-.084-.596-.138-1.474-.147-1.127-.012-2.08.004-2.62.268-.36.176-.637.569-.467.592.208.027.68.127.931.469.324.441.312 1.43.312 1.43s.186 2.73-.434 3.068c-.425.232-1.009-.242-2.263-2.412-.642-1.11-1.127-2.34-1.127-2.34s-.093-.229-.26-.352c-.203-.15-.485-.196-.485-.196l-3 .02s-.451.012-.617.209c-.147.174-.011.535-.011.535s2.349 5.505 5.01 8.28c2.439 2.543 5.208 2.376 5.208 2.376h1.255z" fill="#7F7873" opacity=".5"/></g></svg><svg height="48" viewBox="0 0 47 48" width="47" x="113" y="156"><title>Shape</title><path d="M7.466 0C3.373 0 0 3.365 0 7.448v33.104C0 44.635 3.373 48 7.466 48h58.068C69.627 48 73 44.635 73 40.552V7.448C73 3.365 69.627 0 65.534 0H7.466zm1.452 4.966h55.164l-26.7 23.793c-.364.324-1.4.324-1.763 0L8.918 4.966zm-3.94 3.129l18.638 16.63L4.977 40.111V8.095zm63.045 0v32.017l-18.64-15.388 18.64-16.63zM27.375 28.06l4.925 4.397a6.265 6.265 0 0 0 8.4 0l4.925-4.397 18.146 14.974H9.23L27.375 28.06z" fill-rule="nonzero" fill="#231F20" opacity=".11"/></svg><svg height="29" viewBox="0 0 22 29" width="22" x="198" y="41"><title>₽</title><text transform="translate(-108 -55)" fill="#FFF" fill-rule="evenodd" font-size="40" font-family="SFUIText-Regular, SF UI Text"><tspan x="106.031" y="84">₽</tspan></text></svg><svg height="22" viewBox="0 0 13 22" width="13" x="225" y="41"><title>Combined Shape1</title><path d="M3.985 10.864l8.743-8.743L10.607 0 0 10.607l.257.257-.257.257 10.607 10.607 2.12-2.121-8.742-8.743z" fill="#FFF" fill-rule="evenodd"/></svg><svg height="20" viewBox="0 0 20 20" width="20" x="165" y="156"><title>Group 22</title><g fill="#7F7873" fill-rule="evenodd"><path d="M10 .586C4.809.586.586 4.809.586 10S4.809 19.414 10 19.414c5.19 0 9.414-4.223 9.414-9.414S15.191.586 10 .586zM10 20a9.935 9.935 0 0 1-7.071-2.929A9.935 9.935 0 0 1 0 10a9.935 9.935 0 0 1 2.929-7.071A9.934 9.934 0 0 1 10 0a9.934 9.934 0 0 1 7.071 2.929A9.935 9.935 0 0 1 20 10a9.935 9.935 0 0 1-2.929 7.071A9.935 9.935 0 0 1 10 20z"/><path d="M10.684 9.644a.293.293 0 0 1-.202-.505l1.597-1.516a.293.293 0 0 1 .404.425l-1.598 1.516a.29.29 0 0 1-.2.08M9.298 9.538a.292.292 0 0 1-.214-.093L5.76 5.87a.293.293 0 1 1 .43-.398l3.323 3.574a.293.293 0 0 1-.215.492"/><path d="M10 9.403a.597.597 0 1 0 .002 1.195A.597.597 0 0 0 10 9.403zm0 1.78a1.184 1.184 0 0 1 0-2.365c.652 0 1.182.53 1.182 1.182 0 .652-.53 1.182-1.182 1.182zM10 2.967a.293.293 0 0 1-.293-.293V1.44a.293.293 0 1 1 .586 0v1.234a.293.293 0 0 1-.293.293M10 18.863a.293.293 0 0 1-.293-.293v-1.234a.293.293 0 1 1 .586 0v1.234a.293.293 0 0 1-.293.293M18.565 10.298H17.33a.293.293 0 1 1 0-.586h1.234a.293.293 0 0 1 0 .586M2.669 10.298H1.435a.293.293 0 1 1 0-.586H2.67a.293.293 0 1 1 0 .586"/></g></svg><svg height="20" viewBox="0 0 20 20" width="20" x="190" y="156"><title>Instagram Copy 9_Color</title><path d="M10 0C7.286 0 6.945.012 5.879.06 4.813.11 4.086.278 3.45.525A4.897 4.897 0 0 0 1.68 1.678 4.909 4.909 0 0 0 .525 3.45C.277 4.085.108 4.812.06 5.876.013 6.943 0 7.284 0 10c0 2.716.012 3.056.06 4.122.05 1.065.218 1.792.465 2.427a4.9 4.9 0 0 0 1.153 1.772 4.897 4.897 0 0 0 1.771 1.154c.636.247 1.363.416 2.428.465 1.066.048 1.407.06 4.123.06s3.056-.012 4.122-.06c1.065-.05 1.792-.218 2.429-.465a4.893 4.893 0 0 0 1.77-1.154 4.909 4.909 0 0 0 1.154-1.771c.246-.636.415-1.363.465-2.428.047-1.066.06-1.406.06-4.122s-.013-3.057-.06-4.123c-.05-1.065-.22-1.792-.465-2.427a4.908 4.908 0 0 0-1.154-1.772A4.887 4.887 0 0 0 16.55.525C15.912.278 15.185.109 14.12.06 13.055.012 12.716 0 9.999 0H10zm-.896 1.802H10c2.67 0 2.986.01 4.04.058.976.044 1.505.207 1.857.344.467.181.8.398 1.15.748.35.35.566.683.748 1.15.137.352.3.881.344 1.856.048 1.054.059 1.371.059 4.04 0 2.668-.01 2.985-.059 4.04-.044.974-.207 1.503-.344 1.856a3.092 3.092 0 0 1-.748 1.148c-.35.35-.683.567-1.15.748-.352.138-.881.3-1.856.345-1.054.048-1.371.058-4.041.058-2.67 0-2.987-.01-4.04-.058-.976-.045-1.505-.208-1.858-.345a3.097 3.097 0 0 1-1.15-.748 3.1 3.1 0 0 1-.748-1.15c-.137-.351-.3-.88-.345-1.856-.047-1.054-.057-1.37-.057-4.04 0-2.671.01-2.986.057-4.04.045-.975.208-1.505.345-1.857.181-.467.398-.8.748-1.15.35-.35.683-.567 1.15-.748.353-.138.882-.3 1.857-.345.923-.042 1.28-.054 3.144-.056v.002zm6.235 1.66a1.2 1.2 0 1 0 0 2.401 1.2 1.2 0 0 0 0-2.4zM10 4.865a5.136 5.136 0 1 0 0 10.27 5.136 5.136 0 0 0 0-10.27zm0 1.802a3.333 3.333 0 1 1 0 6.666 3.333 3.333 0 0 1 0-6.666z" fill="#7F7873" fill-rule="evenodd" opacity=".5"/></svg><svg height="20" viewBox="0 0 20 20" width="20" x="215" y="156"><title>Instagram Copy 9_Color</title><path d="M10 0C7.286 0 6.945.012 5.879.06 4.813.11 4.086.278 3.45.525A4.897 4.897 0 0 0 1.68 1.678 4.909 4.909 0 0 0 .525 3.45C.277 4.085.108 4.812.06 5.876.013 6.943 0 7.284 0 10c0 2.716.012 3.056.06 4.122.05 1.065.218 1.792.465 2.427a4.9 4.9 0 0 0 1.153 1.772 4.897 4.897 0 0 0 1.771 1.154c.636.247 1.363.416 2.428.465 1.066.048 1.407.06 4.123.06s3.056-.012 4.122-.06c1.065-.05 1.792-.218 2.429-.465a4.893 4.893 0 0 0 1.77-1.154 4.909 4.909 0 0 0 1.154-1.771c.246-.636.415-1.363.465-2.428.047-1.066.06-1.406.06-4.122s-.013-3.057-.06-4.123c-.05-1.065-.22-1.792-.465-2.427a4.908 4.908 0 0 0-1.154-1.772A4.887 4.887 0 0 0 16.55.525C15.912.278 15.185.109 14.12.06 13.055.012 12.716 0 9.999 0H10zm-.896 1.802H10c2.67 0 2.986.01 4.04.058.976.044 1.505.207 1.857.344.467.181.8.398 1.15.748.35.35.566.683.748 1.15.137.352.3.881.344 1.856.048 1.054.059 1.371.059 4.04 0 2.668-.01 2.985-.059 4.04-.044.974-.207 1.503-.344 1.856a3.092 3.092 0 0 1-.748 1.148c-.35.35-.683.567-1.15.748-.352.138-.881.3-1.856.345-1.054.048-1.371.058-4.041.058-2.67 0-2.987-.01-4.04-.058-.976-.045-1.505-.208-1.858-.345a3.097 3.097 0 0 1-1.15-.748 3.1 3.1 0 0 1-.748-1.15c-.137-.351-.3-.88-.345-1.856-.047-1.054-.057-1.37-.057-4.04 0-2.671.01-2.986.057-4.04.045-.975.208-1.505.345-1.857.181-.467.398-.8.748-1.15.35-.35.683-.567 1.15-.748.353-.138.882-.3 1.857-.345.923-.042 1.28-.054 3.144-.056v.002zm6.235 1.66a1.2 1.2 0 1 0 0 2.401 1.2 1.2 0 0 0 0-2.4zM10 4.865a5.136 5.136 0 1 0 0 10.27 5.136 5.136 0 0 0 0-10.27zm0 1.802a3.333 3.333 0 1 1 0 6.666 3.333 3.333 0 0 1 0-6.666z" fill="#7F7873" fill-rule="evenodd" opacity=".5"/></svg><svg height="20" viewBox="0 0 16 20" width="16" x="165" y="181"><title>Group Copy 3</title><path d="M15.994 16.909l-.623-10.647c-.052-.687-.623-1.242-1.298-1.242H11.97v-.872C11.97 1.876 10.153 0 7.894 0 5.635 0 3.818 1.85 3.818 4.148v.872H1.715c-.7 0-1.272.555-1.298 1.268L.002 16.962c-.026.792.26 1.558.804 2.14A2.786 2.786 0 0 0 2.857 20h10.255a2.87 2.87 0 0 0 2.077-.925 2.83 2.83 0 0 0 .805-2.166zM5.402 4.122c0-1.4 1.116-2.563 2.518-2.563 1.402 0 2.518 1.136 2.518 2.563v.871H5.402v-.871zm8.697 13.87c-.26.264-.571.423-.935.423H2.884c-.364 0-.702-.132-.935-.397-.26-.264-.364-.607-.364-.977l.416-10.436h1.843v4.306h1.558V6.605h5.01v4.306h1.558V6.605h1.87l.596 10.41a1.26 1.26 0 0 1-.337.977z" fill-rule="nonzero" fill="#231F20"/></svg><svg height="20" viewBox="0 0 16 20" width="16" x="186" y="181"><title>Shape</title><path d="M12.45 7.159c1.958 0 3.55-1.605 3.55-3.58C16 1.607 14.408 0 12.45 0c-1.956 0-3.549 1.606-3.549 3.58 0 .254.028.501.078.74l-4.31 2.995a3.027 3.027 0 0 0-1.597-.464C1.378 6.85 0 8.239 0 9.948s1.377 3.099 3.072 3.099c.864 0 1.644-.364 2.203-.947.028.027.05.061.084.084l3.95 2.61a3.55 3.55 0 0 0-.408 1.627c0 1.974 1.593 3.579 3.55 3.579C14.408 20 16 18.395 16 16.42c0-1.973-1.592-3.579-3.55-3.579a3.5 3.5 0 0 0-2.32.894l-4.043-2.672c-.043-.03-.092-.04-.139-.057.121-.332.196-.685.196-1.059 0-.62-.186-1.197-.499-1.683L9.509 5.58a3.536 3.536 0 0 0 2.942 1.579z" fill-rule="nonzero" fill="#231F20"/></svg><svg height="20" viewBox="0 0 15 20" width="15" x="207" y="181"><title>Group</title><g fill="#FFF" fill-rule="evenodd"><path d="M.302 19.007V1.102c0-.459.377-.83.842-.83h7.361l6.304 6.212v12.523c0 .458-.378.83-.842.83H1.144a.836.836 0 0 1-.842-.83z" opacity=".5"/><path d="M8.505.272l6.304 6.212H9.347a.836.836 0 0 1-.842-.83V.272z" opacity=".67"/></g></svg><svg height="20" viewBox="0 0 14 20" width="14" x="224" y="99"><title>Icon</title><g fill="#7F7873" fill-rule="evenodd"><path d="M6.98.642C3.468.642.61 3.483.61 6.977c0 3.641 5.177 10.648 6.367 12.21 1.188-1.573 6.37-8.644 6.37-12.21 0-3.494-2.857-6.335-6.368-6.335zm0 19.35a.307.307 0 0 1-.24-.116c-.017-.021-1.698-2.16-3.356-4.79C1.139 11.524 0 8.796 0 6.976 0 3.149 3.131.035 6.98.035c3.848 0 6.978 3.114 6.978 6.943 0 1.782-1.138 4.5-3.383 8.076a65.242 65.242 0 0 1-3.354 4.822.304.304 0 0 1-.24.117H6.98z"/><path d="M6.98 3.629c-1.856 0-3.366 1.502-3.366 3.348 0 1.845 1.51 3.347 3.366 3.347 1.855 0 3.365-1.502 3.365-3.347 0-1.846-1.51-3.348-3.365-3.348zm0 7.302c-2.193 0-3.977-1.774-3.977-3.954 0-2.181 1.784-3.956 3.977-3.956 2.192 0 3.975 1.775 3.975 3.956 0 2.18-1.783 3.954-3.975 3.954z"/></g></svg><svg height="14" viewBox="0 0 20 14" width="20" x="5" y="210"><title>menu</title><g stroke="#000" stroke-width="2" fill="none" fill-rule="evenodd" stroke-linecap="round" stroke-linejoin="round"><path d="M1 6.538h18M1 1h18M1 12.077h18"/></g></svg><svg height="18" viewBox="0 0 18 18" width="18" x="243" y="5"><title>search copy</title><path d="M7.674 1C4.004 1 1 3.995 1 7.663c0 3.669 3.004 6.67 6.674 6.67 1.412 0 3.01-.62 4.087-1.37l3.609 3.598c.223.227.956.7 1.423.256.467-.444.03-.997-.206-1.233l-3.608-3.606c.758-1.084 1.363-2.904 1.363-4.315C14.342 3.995 11.339 1 7.674 1zm5.354 6.663a5.336 5.336 0 0 1-5.353 5.358 5.338 5.338 0 0 1-5.361-5.358 5.338 5.338 0 0 1 5.361-5.358 5.336 5.336 0 0 1 5.353 5.358z" stroke-width=".2" stroke="#231F20" fill="#231F20" fill-rule="evenodd"/></svg><svg height="18" viewBox="0 0 16 18" width="16" x="243" y="28"><title>Shape</title><path d="M1.795 18h12.41A1.81 1.81 0 0 0 16 16.186V3.514A1.81 1.81 0 0 0 14.205 1.7h-1.93V.907A.905.905 0 0 0 11.377 0a.905.905 0 0 0-.897.907V1.7H5.52V.907A.905.905 0 0 0 4.623 0a.905.905 0 0 0-.898.907V1.7h-1.93A1.81 1.81 0 0 0 0 3.514v12.65C0 17.184.808 18 1.795 18zm0-1.814V8.524h12.41v7.64H1.795v.022zm1.93-12.672V4.76c0 .498.404.907.898.907a.905.905 0 0 0 .897-.907V3.514h4.982V4.76c0 .498.404.907.898.907a.905.905 0 0 0 .897-.907V3.514h1.93V6.71H1.795V3.514h1.93z" fill-rule="nonzero" fill="#FFF"/></svg><svg height="18" viewBox="0 0 16 18" width="16" x="243" y="51"><title>Shape</title><path d="M1.795 18h12.41A1.81 1.81 0 0 0 16 16.186V3.514A1.81 1.81 0 0 0 14.205 1.7h-1.93V.907A.905.905 0 0 0 11.377 0a.905.905 0 0 0-.897.907V1.7H5.52V.907A.905.905 0 0 0 4.623 0a.905.905 0 0 0-.898.907V1.7h-1.93A1.81 1.81 0 0 0 0 3.514v12.65C0 17.184.808 18 1.795 18zm0-1.814V8.524h12.41v7.64H1.795v.022zm1.93-12.672V4.76c0 .498.404.907.898.907a.905.905 0 0 0 .897-.907V3.514h4.982V4.76c0 .498.404.907.898.907a.905.905 0 0 0 .897-.907V3.514h1.93V6.71H1.795V3.514h1.93z" fill-rule="nonzero" fill="#000"/></svg><svg height="18" viewBox="0 0 15 18" width="15" x="243" y="74"><title>Pinterest Copy 9_Color</title><path d="M3.69 17.638s-.186-2.215.04-3.17c.204-.862 1.322-5.49 1.322-5.49s-.337-.662-.337-1.64c0-1.537.908-2.683 2.04-2.683.961 0 1.426.708 1.426 1.556 0 .948-.616 2.365-.934 3.678-.265 1.1.564 1.996 1.67 1.996 2.004 0 3.544-2.07 3.544-5.059 0-2.645-1.939-4.494-4.709-4.494-3.208 0-5.09 2.358-5.09 4.794 0 .95.371 1.968.838 2.521.092.11.105.205.078.318-.085.348-.276 1.099-.313 1.252-.05.202-.164.245-.378.149C1.48 10.723.6 8.705.6 7.086.6 3.6 3.184.4 8.05.4 11.96.4 15 3.131 15 6.78c0 3.807-2.45 6.872-5.85 6.872-1.143 0-2.218-.583-2.585-1.27l-.703 2.626c-.254.96-.942 2.162-1.4 2.896 1.054.321-.772-.266-.772-.266z" fill="#7F7873" fill-rule="evenodd" opacity=".5"/></svg><svg height="18" viewBox="0 0 14 18" width="14" x="243" y="97"><title>Group 19</title><g fill-rule="nonzero" fill="none"><path d="M7 7.627c1.444 0 2.742-.843 3.29-2.13a3.358 3.358 0 0 0-.767-3.738A3.648 3.648 0 0 0 5.63 1.01c-1.329.536-2.19 1.79-2.19 3.177.003 1.895 1.591 3.438 3.56 3.44z" stroke="#231F20" stroke-width="1.35"/><path d="M13.89 15.757c-.096-3.631-3.152-6.526-6.888-6.526-3.736 0-6.791 2.895-6.887 6.526v2.155H13.89v-2.155zm-1.355.84H1.47v-.84c.086-2.91 2.537-5.227 5.532-5.227s5.447 2.316 5.533 5.227v.84z" fill="#231F20"/></g></svg><svg height="17" viewBox="0 0 17 17" width="17" x="243" y="120"><title>Combined Shape</title><path d="M8.5 6.379L2.843.722.722 2.843 6.379 8.5.722 14.157l2.121 2.121L8.5 10.621l5.657 5.657 2.121-2.121L10.621 8.5l5.657-5.657L14.157.722 8.5 6.379z" fill="#000" fill-rule="evenodd"/></svg><svg height="17" viewBox="0 0 17 17" width="17" x="243" y="142"><title>Combined Shape</title><path d="M8.5 6.379L2.843.722.722 2.843 6.379 8.5.722 14.157l2.121 2.121L8.5 10.621l5.657 5.657 2.121-2.121L10.621 8.5l5.657-5.657L14.157.722 8.5 6.379z" fill="#FFF" fill-rule="evenodd"/></svg><svg height="11" viewBox="0 0 17 11" width="17" x="243" y="164"><title>VK Copy 9_Color</title><path d="M9.224 10.16s.303-.034.458-.2c.143-.154.138-.443.138-.443s-.02-1.349.606-1.548c.616-.196 1.408 1.304 2.247 1.881.635.437 1.116.341 1.116.341l2.244-.031s1.174-.073.617-.997c-.046-.076-.324-.684-1.668-1.933-1.407-1.308-1.218-1.096.476-3.359 1.032-1.378 1.445-2.219 1.316-2.578-.123-.344-.882-.253-.882-.253l-2.526.016s-.187-.026-.326.057c-.136.082-.224.272-.224.272s-.399 1.066-.932 1.973c-1.125 1.912-1.575 2.014-1.759 1.895-.428-.277-.321-1.113-.321-1.706 0-1.854.281-2.627-.546-2.827C8.983.653 8.78.61 8.078.602c-.9-.009-1.663.003-2.096.215-.287.14-.51.455-.374.473.167.022.545.102.746.375.259.353.25 1.145.25 1.145s.148 2.183-.348 2.454c-.34.186-.807-.194-1.81-1.93-.514-.888-.902-1.871-.902-1.871s-.074-.184-.208-.282c-.162-.12-.388-.157-.388-.157l-2.4.016s-.361.01-.493.167c-.118.14-.01.428-.01.428s1.88 4.404 4.008 6.624c1.952 2.034 4.167 1.9 4.167 1.9h1.004z" fill="#7F7873" fill-rule="evenodd" opacity=".5"/></svg><svg height="13" viewBox="0 0 16 13" width="16" x="243" y="180"><title>Twitter Copy 9_Color</title><path d="M7.58 3.405l.033.554-.549-.068C5.065 3.63 3.32 2.75 1.836 1.27L1.112.535l-.187.542c-.396 1.21-.143 2.486.68 3.345.44.474.341.542-.417.26-.263-.09-.494-.158-.516-.125-.077.08.187 1.108.396 1.514.285.565.867 1.12 1.504 1.447l.538.26-.637.01c-.615 0-.637.012-.57.25.219.734 1.087 1.513 2.053 1.852l.681.238-.593.361a6.096 6.096 0 0 1-2.943.836c-.495.012-.901.057-.901.09 0 .114 1.34.746 2.12.995 2.339.734 5.118.418 7.204-.836 1.483-.893 2.966-2.667 3.658-4.384.373-.915.747-2.587.747-3.39 0-.52.032-.587.648-1.209.362-.361.702-.757.768-.87.11-.214.1-.214-.46-.022-.934.339-1.066.294-.605-.215.34-.361.747-1.017.747-1.209 0-.034-.165.023-.352.125-.197.113-.637.282-.966.384l-.593.192-.538-.373c-.297-.203-.714-.43-.934-.497-.56-.158-1.417-.136-1.922.045-1.373.508-2.24 1.82-2.142 3.254z" fill="#7F7873" fill-rule="evenodd" opacity=".5"/></svg><svg height="12" viewBox="0 0 16 12" width="16" x="243" y="198"><title>Shape Copy 2</title><path d="M7.058 1.954a1.134 1.134 0 0 0 0-1.619 1.17 1.17 0 0 0-1.64 0L.227 5.46a.757.757 0 0 0 0 1.082l5.191 5.124a1.17 1.17 0 0 0 1.64 0 1.134 1.134 0 0 0 0-1.619l-2.95-2.912H14.84c.64 0 1.159-.512 1.159-1.145 0-.632-.519-1.144-1.159-1.144H4.129l2.93-2.891z" fill-rule="nonzero" fill="#7F7873"/></svg><svg height="16" viewBox="0 0 8 16" width="8" x="117" y="62"><title>Facebook Copy 9_Color</title><path d="M4.788 15.6V8h2.13L7.2 5.38H4.788l.003-1.311c0-.683.066-1.05 1.062-1.05h1.332V.4h-2.13c-2.56 0-3.46 1.27-3.46 3.407V5.38H0V8h1.595v7.6h3.193z" fill="#7F7873" fill-rule="evenodd" opacity=".5"/></svg><svg height="8" viewBox="0 0 13 8" width="13" x="243" y="215"><title>Combined Shape</title><path d="M6.036 4.621L1.414 0 0 1.414l5.657 5.657.379-.379.378.38 5.657-5.658L10.657 0 6.036 4.621z" fill="#231F20" fill-rule="evenodd"/></svg><svg height="10" viewBox="0 0 17 17" width="10" x="117" y="83"><title>Combined Shape</title><path d="M8.5 6.379L2.843.722.722 2.843 6.379 8.5.722 14.157l2.121 2.121L8.5 10.621l5.657 5.657 2.121-2.121L10.621 8.5l5.657-5.657L14.157.722 8.5 6.379z" fill="#000" fill-rule="evenodd"/></svg><svg height="7" viewBox="0 0 10 7" width="10" x="198" y="75"><title>Combined Shape4</title><path d="M6.414 4.657l2.743-2.743L7.743.5 5 3.243 2.257.5.843 1.914l2.743 2.743-.086.086 1.414 1.414L5 6.07l.086.086L6.5 4.743l-.086-.086z" fill="#231F20" fill-rule="evenodd"/></svg><svg height="9" viewBox="0 0 9 9" width="9" x="224" y="124"><title>Rectangle Copy</title><path d="M0 4.243L4.244 0l4.243 4.243-4.243 4.242z" fill="#CBBC9D" fill-rule="evenodd"/></svg><svg height="8" viewBox="0 0 8 8" width="8" x="224" y="138"><title>Combined Shape</title><path d="M3 3H0v2h3v3h2V5h3V3H5V0H3v3z" fill="#7F7873" fill-rule="evenodd"/></svg><svg height="2" viewBox="0 0 8 2" width="8" x="225" y="68"><title>Rectangle 14</title><path d="M0 0h8v2H0z" fill="#7F7873" fill-rule="evenodd"/></svg><svg height="5" viewBox="0 0 9 9" width="5" x="213" y="75"><title>Rectangle Small</title><path d="M0 4.243L4.244 0l4.243 4.243-4.243 4.242z" fill="#CBBC9D" fill-rule="evenodd"/></svg></svg>