<?xml version="1.0" encoding="UTF-8"?>
<svg width="288px" height="164px" viewBox="0 0 288 164" version="1.1" xmlns="http://www.w3.org/2000/svg" xmlns:xlink="http://www.w3.org/1999/xlink">
    <!-- Generator: Sketch 47.1 (45422) - http://www.bohemiancoding.com/sketch -->
    <title>22</title>
    <desc>Created with Sketch.</desc>
    <defs></defs>
    <g id="my" stroke="none" stroke-width="1" fill="none" fill-rule="evenodd">
        <g id="01-Главная" transform="translate(-50.000000, -3067.000000)" fill="#F5F2EC">
            <g id="4" transform="translate(0.000000, 3014.000000)">
                <g id="Slide">
                    <g id="Group-15" transform="translate(50.000000, 53.000000)">
                        <path d="M1.39598394,152.687282 C24.5184556,131.42524 41.3949491,115.412504 52.0259705,104.648594 C62.656992,93.8846851 70.1650383,84.6491238 74.5503347,76.9416332 C78.935631,69.2341426 81.1282463,61.3938819 81.1282463,53.4206158 C81.1282463,43.5869209 78.6034166,35.0157884 73.5536814,27.7069612 C68.5039462,20.3981339 61.3281143,16.7437751 52.0259705,16.7437751 C42.1922757,16.7437751 34.1526863,21.0625628 27.9069612,29.7002677 C21.6612361,38.3379727 15.3491617,51.6929931 8.97054886,69.7657296 C8.97054886,70.0315051 8.43900576,70.1643909 7.37590361,70.1643909 C4.98392378,70.1643909 3.92083758,69.7657336 4.18661312,68.968407 L21.7277108,0.797322624 C21.7277108,0.26577155 22.2592539,0 23.3223561,0 C24.1196827,0 24.8505545,0.199328663 25.5149933,0.597991968 C26.1794321,0.996655273 26.3787608,1.32886971 26.1129853,1.59464525 C25.8472097,2.92352293 25.714324,4.51815223 25.714324,6.37858099 C25.714324,10.8967651 27.7076106,13.1558233 31.6942436,13.1558233 C34.0862235,13.1558233 38.0727967,12.2256229 43.654083,10.3651941 C55.0824311,6.37856106 65.5804073,4.38527443 75.1483266,4.38527443 C89.7659812,4.38527443 101.194158,7.84030458 109.433199,14.7504685 C117.672241,21.6606325 121.7917,30.829751 121.7917,42.2580991 C121.7917,56.078427 116.409826,68.6361327 105.645917,79.931593 C94.8820078,91.2270534 80.0652438,103.518988 61.1951807,116.807764 L45.2487282,128.767604 C44.4514016,129.56493 44.252073,130.229359 44.6507363,130.76091 C45.0493996,131.292461 45.9131571,131.558233 47.2420348,131.558233 C68.5040778,131.558233 84.5168137,131.159576 95.2807229,130.362249 C106.044632,129.564922 114.549322,127.770964 120.795047,124.980321 C127.040772,122.189678 131.093788,117.738005 132.954217,111.625167 C133.219992,110.827841 134.08375,110.429183 135.545515,110.429183 C137.007281,110.429183 137.738153,110.827841 137.738153,111.625167 L129.366265,159.065863 C129.366265,160.128966 129.034051,161.125609 128.369612,162.055823 C127.705173,162.986038 126.841415,163.451138 125.778313,163.451138 L3.78795181,163.451138 C2.72484966,163.451138 1.86109212,162.653823 1.19665328,161.05917 C0.532214438,159.464517 0.2,157.869887 0.2,156.275234 C0.2,154.680581 0.598657325,153.484609 1.39598394,152.687282 Z M151.657831,152.687282 C174.780303,131.42524 191.656796,115.412504 202.287818,104.648594 C212.918839,93.8846851 220.426886,84.6491238 224.812182,76.9416332 C229.197478,69.2341426 231.390094,61.3938819 231.390094,53.4206158 C231.390094,43.5869209 228.865264,35.0157884 223.815529,27.7069612 C218.765794,20.3981339 211.589962,16.7437751 202.287818,16.7437751 C192.454123,16.7437751 184.414534,21.0625628 178.168809,29.7002677 C171.923083,38.3379727 165.611009,51.6929931 159.232396,69.7657296 C159.232396,70.0315051 158.700853,70.1643909 157.637751,70.1643909 C155.245771,70.1643909 154.182685,69.7657336 154.448461,68.968407 L171.989558,0.797322624 C171.989558,0.26577155 172.521101,0 173.584203,0 C174.38153,0 175.112402,0.199328663 175.776841,0.597991968 C176.44128,0.996655273 176.640608,1.32886971 176.374833,1.59464525 C176.109057,2.92352293 175.976171,4.51815223 175.976171,6.37858099 C175.976171,10.8967651 177.969458,13.1558233 181.956091,13.1558233 C184.348071,13.1558233 188.334644,12.2256229 193.91593,10.3651941 C205.344278,6.37856106 215.842255,4.38527443 225.410174,4.38527443 C240.027829,4.38527443 251.456005,7.84030458 259.695047,14.7504685 C267.934088,21.6606325 272.053548,30.829751 272.053548,42.2580991 C272.053548,56.078427 266.671674,68.6361327 255.907764,79.931593 C245.143855,91.2270534 230.327091,103.518988 211.457028,116.807764 L195.510576,128.767604 C194.713249,129.56493 194.51392,130.229359 194.912584,130.76091 C195.311247,131.292461 196.175005,131.558233 197.503882,131.558233 C218.765925,131.558233 234.778661,131.159576 245.54257,130.362249 C256.30648,129.564922 264.811169,127.770964 271.056894,124.980321 C277.302619,122.189678 281.355635,117.738005 283.216064,111.625167 C283.48184,110.827841 284.345597,110.429183 285.807363,110.429183 C287.269128,110.429183 288,110.827841 288,111.625167 L279.628112,159.065863 C279.628112,160.128966 279.295898,161.125609 278.631459,162.055823 C277.96702,162.986038 277.103263,163.451138 276.040161,163.451138 L154.049799,163.451138 C152.986697,163.451138 152.12294,162.653823 151.458501,161.05917 C150.794062,159.464517 150.461847,157.869887 150.461847,156.275234 C150.461847,154.680581 150.860505,153.484609 151.657831,152.687282 Z" id="22"></path>
                    </g>
                </g>
            </g>
        </g>
    </g>
</svg>