<?xml version="1.0" encoding="UTF-8"?>
<svg width="58px" height="58px" viewBox="0 0 58 58" version="1.1" xmlns="http://www.w3.org/2000/svg" xmlns:xlink="http://www.w3.org/1999/xlink">
    <!-- Generator: sketchtool 48.2 (47327) - http://www.bohemiancoding.com/sketch -->
    <title>D839506B-B427-4AA8-A56A-6D12189D7C98</title>
    <desc>Created with sketchtool.</desc>
    <defs>
        <circle id="path-1" cx="25" cy="25" r="25"></circle>
        <filter x="-13.0%" y="-9.0%" width="126.0%" height="126.0%" filterUnits="objectBoundingBox" id="filter-2">
            <feMorphology radius="1" operator="dilate" in="SourceAlpha" result="shadowSpreadOuter1"></feMorphology>
            <feOffset dx="0" dy="2" in="shadowSpreadOuter1" result="shadowOffsetOuter1"></feOffset>
            <feGaussianBlur stdDeviation="1.5" in="shadowOffsetOuter1" result="shadowBlurOuter1"></feGaussianBlur>
            <feComposite in="shadowBlurOuter1" in2="SourceAlpha" operator="out" result="shadowBlurOuter1"></feComposite>
            <feColorMatrix values="0 0 0 0 0   0 0 0 0 0   0 0 0 0 0  0 0 0 0.25 0" type="matrix" in="shadowBlurOuter1"></feColorMatrix>
        </filter>
    </defs>
    <g id="08-Контакты" stroke="none" stroke-width="1" fill="none" fill-rule="evenodd" transform="translate(-611.000000, -826.000000)">
        <g id="map-pin" transform="translate(615.000000, 828.000000)">
            <g id="Group-7">
                <g id="Oval">
                    <use fill="black" fill-opacity="1" filter="url(#filter-2)" xlink:href="#path-1"></use>
                    <use stroke="#4D4239" stroke-width="2" fill="#FFFFFF" fill-rule="evenodd" xlink:href="#path-1"></use>
                </g>
                <g id="Group-18" transform="translate(14.000000, 12.000000)" fill="#4D4239">
                    <path d="M4.37823766,6.81675091 C3.73072468,7.06174182 2.89374045,7.33190545 2.16633043,7.24366303 C2.03481744,7.22739333 1.91598905,7.3199297 1.89991391,7.44933879 C1.88387866,7.57878727 1.97705863,7.69653576 2.10817273,7.71245091 C2.22384991,7.72647515 2.34092319,7.73285697 2.45887403,7.73285697 C3.1892757,7.73285697 3.94724045,7.48558121 4.54936011,7.25780545 C4.67269592,7.21116303 4.73432393,7.07458424 4.68709573,6.95277818 C4.63986753,6.83105091 4.50197236,6.76983273 4.37823766,6.81675091" id="Fill-48"></path>
                    <path d="M7.58569462,18.7472842 L9.63836623,18.7472842 C9.90984861,19.7615206 10.3273236,20.5830418 10.83742,21.1081236 C9.47007588,20.7643327 8.31063154,19.9022752 7.58569462,18.7472842 Z M10.83742,10.7990842 C10.3193059,11.33236 9.89700445,12.1718055 9.62592096,13.2080236 L7.55506011,13.2080236 C8.27776327,12.0286873 9.4509692,11.1476418 10.83742,10.7990842 Z M16.7758078,13.2080236 L14.7048672,13.2080236 C14.4337837,12.1718055 14.0114822,11.33236 13.4933681,10.7990448 C14.8798189,11.1476418 16.0531046,12.0286873 16.7758078,13.2080236 Z M13.4933681,21.1081236 C14.0034646,20.5830418 14.4209395,19.7615206 14.6924219,18.7472842 L16.7452132,18.7472842 C16.0202364,19.9022752 14.8607122,20.7643327 13.4933681,21.1081236 Z M11.9262215,18.7472842 L11.9262215,21.2443479 C11.183215,21.0717236 10.5286816,20.1059812 10.1413625,18.7472842 L11.9262215,18.7472842 Z M9.77442653,16.1896721 L11.9262215,16.1896721 L11.9262215,18.2749903 L10.0210583,18.2749903 C9.87725955,17.6365721 9.78982356,16.9301206 9.77442653,16.1896721 Z M11.9262215,13.6802782 L11.9262215,15.7173782 L9.77442653,15.7173782 C9.78946456,14.9956418 9.87263247,14.3058933 10.0100091,13.6802782 L11.9262215,13.6802782 Z M11.9262215,10.6628206 L11.9262215,13.2080236 L10.1273217,13.2080236 C10.512766,11.82376 11.1743597,10.8374933 11.9262215,10.6628206 Z M12.4045666,13.2080236 L12.4045666,10.6628206 C13.1564284,10.8374933 13.8180221,11.82376 14.2034664,13.2080236 L12.4045666,13.2080236 Z M14.5563616,15.7173782 L12.4045666,15.7173782 L12.4045666,13.6802782 L14.320779,13.6802782 C14.4581557,14.3058933 14.5413236,14.9956418 14.5563616,15.7173782 Z M14.1893857,18.7472842 C13.8021065,20.1059812 13.1475731,21.0717236 12.4045666,21.2443479 L12.4045666,18.7472842 L14.1893857,18.7472842 Z M12.4045666,18.2749903 L12.4045666,16.1896721 L14.5563616,16.1896721 C14.5409247,16.9301206 14.4535286,17.6365721 14.3097299,18.2749903 L12.4045666,18.2749903 Z M17.0095555,18.2749903 L14.804908,18.2749903 C14.9402902,17.6350358 15.0205462,16.9324448 15.0346269,16.1896721 L17.5445026,16.1896721 C17.511395,16.9344539 17.3228412,17.6398812 17.0095555,18.2749903 Z M17.0323718,13.6794903 C17.331856,14.3022297 17.5121928,14.9910327 17.5445026,15.7173782 L15.0346269,15.7173782 C15.0208653,14.9933964 14.9447577,14.3071145 14.8155184,13.6802782 L17.0242345,13.6802782 C17.0270267,13.6802782 17.0295796,13.6795691 17.0323718,13.6794903 Z M7.29817699,13.6802782 L9.51530965,13.6802782 C9.38603043,14.3071145 9.30988293,14.9933964 9.29612134,15.7173782 L6.78640519,15.7173782 C6.81871503,14.9913479 6.99889221,14.3028206 7.29817699,13.6802782 Z M6.78640519,16.1896721 L9.29612134,16.1896721 C9.31024193,16.9324448 9.39049796,17.6350358 9.52588015,18.2749903 L7.32135232,18.2749903 C7.0080666,17.6398812 6.81955269,16.9344539 6.78640519,16.1896721 Z M18.0289506,15.9535055 C18.0289506,12.7604691 15.3985314,10.1627539 12.1653941,10.1627539 C8.93237644,10.1627539 6.30203692,12.7604691 6.30203692,15.9535055 C6.30203692,19.14666 8.93237644,21.7444145 12.1653941,21.7444145 C15.3985314,21.7444145 18.0289506,19.14666 18.0289506,15.9535055 Z" id="Fill-50"></path>
                    <path d="M19.3612287,18.1787864 C19.237135,18.1363197 19.1004365,18.2010439 19.0568381,18.3242288 C18.0376823,21.2183045 15.268211,23.1628288 12.1653901,23.1628288 C11.1610728,23.1628288 10.1869912,22.9639682 9.27010993,22.5719197 C9.14868878,22.5199197 9.00804128,22.5751894 8.95566744,22.6947894 C8.90313404,22.8144682 8.95893831,22.9535288 9.08008024,23.0053318 C10.0572732,23.4232227 11.0952964,23.6350833 12.1653901,23.6350833 C15.4715237,23.6350833 18.4225682,21.5631591 19.5086173,18.4794015 C19.5519763,18.3562167 19.4860404,18.2216076 19.3612287,18.1787864" id="Fill-52"></path>
                    <path d="M6.28565065,10.9290803 L4.81918312,8.19037424 C4.76194286,8.0834197 4.63054954,8.03811667 4.51810334,8.08204091 C2.82610519,8.72156212 1.53570631,8.83667121 0.738251763,7.31965 C0.455441002,6.78204091 0.401511503,6.16781061 0.586475325,5.59009848 C0.771479035,5.01238636 1.17319796,4.54036818 1.71747904,4.26114394 C1.95350037,4.14020455 2.20607551,4.06133788 2.46842338,4.02667121 C2.53228516,4.01824091 2.58996419,3.98471667 2.62845677,3.93366212 C2.66698924,3.88264697 2.68294471,3.81843485 2.67285288,3.75560152 C2.48038998,2.55920758 3.08250965,1.38030455 4.17095213,0.821974242 C5.17263673,0.308356061 6.37137143,0.430831818 7.24218126,1.10974697 C6.97285288,1.42344091 6.77524434,1.79732879 6.67077588,2.19583788 C6.6375885,2.32201667 6.7144141,2.45095303 6.84217755,2.48365 C6.86236122,2.48881061 6.8825449,2.49125303 6.90232968,2.49125303 C7.00863302,2.49125303 7.10576197,2.4206197 7.13360427,2.31421667 C7.22411169,1.96967727 7.39774712,1.64664697 7.636082,1.38018636 C7.64070909,1.37502576 7.64394007,1.36919545 7.64804861,1.36375909 C7.70796141,1.35918939 7.76420445,1.33334697 7.80524991,1.28954091 C7.98510798,1.09745606 8.19591967,0.938777273 8.43142245,0.817956061 C8.9761423,0.53865303 9.59808664,0.485392424 10.1829345,0.668180303 C10.7677425,0.850928788 11.2455291,1.24762576 11.5281803,1.78531364 C12.0347666,2.74877121 11.7779633,3.93606515 10.9221915,4.60489545 C10.6329985,4.81990758 10.3334345,5.02853788 10.0295625,5.23385909 C10.0177954,5.23775909 10.0060681,5.24173788 9.99469981,5.24756818 C9.96506252,5.26277424 9.9401321,5.28333788 9.92022764,5.30732879 C9.39884267,5.65565 8.86050501,5.99049848 8.30561354,6.30458636 C8.19097347,6.36950758 8.15144378,6.51372879 8.21710056,6.62690758 C8.28275733,6.73992879 8.42886957,6.77924394 8.54338998,6.71440152 C9.04893915,6.42824394 9.54192338,6.12538333 10.0218241,5.81019242 L11.3470059,8.3225803 C9.356441,8.52841364 7.55738163,9.47638939 6.28565065,10.9290803 M12.165402,8.75134394 C13.1249243,8.75134394 14.059197,8.93354091 14.9422128,9.29285303 C15.0646312,9.34284394 15.2042416,9.28505303 15.2543816,9.16442879 C15.3046414,9.04388333 15.2464837,8.90584697 15.1243445,8.85613182 C14.1832907,8.47322273 13.187749,8.27905 12.165402,8.27905 C12.0653213,8.27905 11.9656794,8.28121667 11.8663965,8.28495909 L10.4199132,5.54266818 C10.6894809,5.35830455 10.9557777,5.17118333 11.2147351,4.97870455 C12.2541942,4.16612576 12.5645282,2.73155606 11.9525959,1.56766212 C11.611069,0.917977273 11.0337202,0.438671212 10.3270523,0.217868182 C9.62070353,-0.00281666667 8.86884174,0.0613954545 8.21115714,0.398804545 C7.99671558,0.50875303 7.79946605,0.644622727 7.62212096,0.804128788 C6.5991757,-0.0474106061 5.15309128,-0.213416667 3.95064694,0.402822727 C2.74896048,1.0191803 2.05485751,2.28289848 2.17185102,3.59944394 C1.93786401,3.65073485 1.71177495,3.73196515 1.49713395,3.84199242 C0.839329685,4.17944091 0.35404397,4.74966818 0.130547681,5.44765 C-0.0930283859,6.14571061 -0.0278502783,6.88785303 0.313876067,7.5373803 C1.2925449,9.39905909 2.95622208,9.14957727 4.49480835,8.59491061 L5.95932134,11.3298742 C5.45421095,11.992047 5.05101614,12.7424621 4.77837699,13.5637076 C4.73721187,13.6876015 4.80554119,13.8210682 4.93107087,13.8616439 C4.95580186,13.8696409 4.98093173,13.8735015 5.00562282,13.8735015 C5.1061423,13.8735015 5.19976104,13.8103136 5.23274898,13.7108439 C6.21760056,10.7444409 9.00366549,8.75134394 12.165402,8.75134394" id="Fill-54"></path>
                </g>
            </g>
        </g>
    </g>
</svg>